%TF.GenerationSoftware,KiCad,Pcbnew,8.0.7-8.0.7-0~ubuntu22.04.1*%
%TF.CreationDate,2025-01-26T21:06:57+01:00*%
%TF.ProjectId,G431_Expander,47343331-5f45-4787-9061-6e6465722e6b,rev?*%
%TF.SameCoordinates,Original*%
%TF.FileFunction,Soldermask,Bot*%
%TF.FilePolarity,Negative*%
%FSLAX46Y46*%
G04 Gerber Fmt 4.6, Leading zero omitted, Abs format (unit mm)*
G04 Created by KiCad (PCBNEW 8.0.7-8.0.7-0~ubuntu22.04.1) date 2025-01-26 21:06:57*
%MOMM*%
%LPD*%
G01*
G04 APERTURE LIST*
G04 Aperture macros list*
%AMRoundRect*
0 Rectangle with rounded corners*
0 $1 Rounding radius*
0 $2 $3 $4 $5 $6 $7 $8 $9 X,Y pos of 4 corners*
0 Add a 4 corners polygon primitive as box body*
4,1,4,$2,$3,$4,$5,$6,$7,$8,$9,$2,$3,0*
0 Add four circle primitives for the rounded corners*
1,1,$1+$1,$2,$3*
1,1,$1+$1,$4,$5*
1,1,$1+$1,$6,$7*
1,1,$1+$1,$8,$9*
0 Add four rect primitives between the rounded corners*
20,1,$1+$1,$2,$3,$4,$5,0*
20,1,$1+$1,$4,$5,$6,$7,0*
20,1,$1+$1,$6,$7,$8,$9,0*
20,1,$1+$1,$8,$9,$2,$3,0*%
G04 Aperture macros list end*
%ADD10RoundRect,0.250000X0.845000X-0.620000X0.845000X0.620000X-0.845000X0.620000X-0.845000X-0.620000X0*%
%ADD11O,2.190000X1.740000*%
%ADD12R,2.500000X1.500000*%
%ADD13O,2.500000X1.500000*%
%ADD14R,3.000000X3.000000*%
%ADD15C,3.000000*%
%ADD16O,1.600000X2.600000*%
%ADD17R,1.600000X1.600000*%
%ADD18O,1.600000X1.600000*%
%ADD19RoundRect,0.250000X-0.620000X-0.845000X0.620000X-0.845000X0.620000X0.845000X-0.620000X0.845000X0*%
%ADD20O,1.740000X2.190000*%
%ADD21C,6.400000*%
%ADD22C,1.700000*%
%ADD23R,1.500000X2.500000*%
%ADD24O,1.500000X2.500000*%
%ADD25R,1.700000X1.700000*%
%ADD26O,1.700000X1.700000*%
%ADD27RoundRect,0.250000X0.312500X0.625000X-0.312500X0.625000X-0.312500X-0.625000X0.312500X-0.625000X0*%
%ADD28RoundRect,0.250000X0.325000X0.650000X-0.325000X0.650000X-0.325000X-0.650000X0.325000X-0.650000X0*%
%ADD29RoundRect,0.250000X-0.312500X-0.625000X0.312500X-0.625000X0.312500X0.625000X-0.312500X0.625000X0*%
%ADD30RoundRect,0.250000X-0.325000X-0.650000X0.325000X-0.650000X0.325000X0.650000X-0.325000X0.650000X0*%
%ADD31RoundRect,0.250000X-0.650000X0.325000X-0.650000X-0.325000X0.650000X-0.325000X0.650000X0.325000X0*%
G04 APERTURE END LIST*
D10*
%TO.C,J6*%
X149036500Y-110236000D03*
D11*
X149036500Y-107696000D03*
X149036500Y-105156000D03*
X149036500Y-102616000D03*
%TD*%
D10*
%TO.C,J14*%
X180340000Y-110236000D03*
D11*
X180340000Y-107696000D03*
X180340000Y-105156000D03*
X180340000Y-102616000D03*
%TD*%
D12*
%TO.C,U1*%
X179070000Y-50907500D03*
D13*
X179070000Y-53447500D03*
X179070000Y-55987500D03*
%TD*%
D14*
%TO.C,J1*%
X142240000Y-50800000D03*
D15*
X147240000Y-50800000D03*
%TD*%
D16*
%TO.C,C4*%
X131064000Y-75184000D03*
X127564000Y-75184000D03*
%TD*%
D10*
%TO.C,J5*%
X191155000Y-81280000D03*
D11*
X191155000Y-78740000D03*
X191155000Y-76200000D03*
X191155000Y-73660000D03*
%TD*%
D17*
%TO.C,A1*%
X157480000Y-55880000D03*
D18*
X157480000Y-58420000D03*
X157480000Y-60960000D03*
X157480000Y-63500000D03*
X157480000Y-66040000D03*
X157480000Y-68580000D03*
X157480000Y-71120000D03*
X157480000Y-73660000D03*
X157480000Y-76200000D03*
X157480000Y-78740000D03*
X157480000Y-81280000D03*
X157480000Y-83820000D03*
X157480000Y-86360000D03*
X157480000Y-88900000D03*
X157480000Y-91440000D03*
X172720000Y-91440000D03*
X172720000Y-88900000D03*
X172720000Y-86360000D03*
X172720000Y-83820000D03*
X172720000Y-81280000D03*
X172720000Y-78740000D03*
X172720000Y-76200000D03*
X172720000Y-73660000D03*
X172720000Y-71120000D03*
X172720000Y-68580000D03*
X172720000Y-66040000D03*
X172720000Y-63500000D03*
X172720000Y-60960000D03*
X172720000Y-58420000D03*
X172720000Y-55880000D03*
%TD*%
D19*
%TO.C,J4*%
X178435000Y-74315000D03*
D20*
X180975000Y-74315000D03*
X183515000Y-74315000D03*
%TD*%
D21*
%TO.C,H1*%
X129540000Y-51435000D03*
%TD*%
D10*
%TO.C,J13*%
X171704000Y-110236000D03*
D11*
X171704000Y-107696000D03*
X171704000Y-105156000D03*
X171704000Y-102616000D03*
%TD*%
D22*
%TO.C,J10*%
X153416000Y-74168000D03*
X150876000Y-74168000D03*
X148336000Y-74168000D03*
%TD*%
D10*
%TO.C,J12*%
X163175000Y-110236000D03*
D11*
X163175000Y-107696000D03*
X163175000Y-105156000D03*
X163175000Y-102616000D03*
%TD*%
D23*
%TO.C,U2*%
X138957500Y-58261500D03*
D24*
X136417500Y-58261500D03*
X133877500Y-58261500D03*
%TD*%
D19*
%TO.C,J2*%
X178435000Y-92095000D03*
D20*
X180975000Y-92095000D03*
X183515000Y-92095000D03*
%TD*%
D17*
%TO.C,U3*%
X143256000Y-97536000D03*
D18*
X143256000Y-94996000D03*
X143256000Y-92456000D03*
X143256000Y-89916000D03*
X143256000Y-87376000D03*
X143256000Y-84836000D03*
X143256000Y-82296000D03*
X143256000Y-79756000D03*
X135636000Y-79756000D03*
X135636000Y-82296000D03*
X135636000Y-84836000D03*
X135636000Y-87376000D03*
X135636000Y-89916000D03*
X135636000Y-92456000D03*
X135636000Y-94996000D03*
X135636000Y-97536000D03*
%TD*%
D22*
%TO.C,J11*%
X153419500Y-69088000D03*
X150879500Y-69088000D03*
X148339500Y-69088000D03*
%TD*%
D14*
%TO.C,J8*%
X129032000Y-95464000D03*
D15*
X129032000Y-90464000D03*
%TD*%
D25*
%TO.C,JP1*%
X137668000Y-66548000D03*
D26*
X140208000Y-66548000D03*
X142748000Y-66548000D03*
%TD*%
D19*
%TO.C,J3*%
X178435000Y-83185000D03*
D20*
X180975000Y-83185000D03*
X183515000Y-83185000D03*
%TD*%
D21*
%TO.C,H4*%
X190500000Y-107696000D03*
%TD*%
%TO.C,H2*%
X190500000Y-51435000D03*
%TD*%
%TO.C,H3*%
X129540000Y-107696000D03*
%TD*%
D14*
%TO.C,J7*%
X149352000Y-89996000D03*
D15*
X149352000Y-94996000D03*
%TD*%
D16*
%TO.C,C1*%
X148110000Y-58928000D03*
X151610000Y-58928000D03*
%TD*%
%TO.C,C3*%
X181130000Y-65405000D03*
X184630000Y-65405000D03*
%TD*%
D14*
%TO.C,J15*%
X142708000Y-72136000D03*
D15*
X137708000Y-72136000D03*
%TD*%
D22*
%TO.C,J9*%
X153416000Y-65024000D03*
X150876000Y-65024000D03*
X148336000Y-65024000D03*
%TD*%
D27*
%TO.C,R6*%
X170372500Y-71120000D03*
X167447500Y-71120000D03*
%TD*%
D28*
%TO.C,C9*%
X135587000Y-100584000D03*
X132637000Y-100584000D03*
%TD*%
D29*
%TO.C,R17*%
X159827500Y-81280000D03*
X162752500Y-81280000D03*
%TD*%
D27*
%TO.C,R1*%
X178627500Y-89535000D03*
X175702500Y-89535000D03*
%TD*%
D28*
%TO.C,C11*%
X170385000Y-63500000D03*
X167435000Y-63500000D03*
%TD*%
D27*
%TO.C,R3*%
X178627500Y-80645000D03*
X175702500Y-80645000D03*
%TD*%
%TO.C,R4*%
X170372500Y-76200000D03*
X167447500Y-76200000D03*
%TD*%
D30*
%TO.C,C10*%
X187755000Y-84455000D03*
X190705000Y-84455000D03*
%TD*%
D27*
%TO.C,R8*%
X191327500Y-71120000D03*
X188402500Y-71120000D03*
%TD*%
%TO.C,R5*%
X178627500Y-71755000D03*
X175702500Y-71755000D03*
%TD*%
%TO.C,R15*%
X162752500Y-55245000D03*
X159827500Y-55245000D03*
%TD*%
D29*
%TO.C,R13*%
X159827500Y-88900000D03*
X162752500Y-88900000D03*
%TD*%
D27*
%TO.C,R16*%
X162752500Y-76835000D03*
X159827500Y-76835000D03*
%TD*%
%TO.C,R11*%
X170372500Y-81280000D03*
X167447500Y-81280000D03*
%TD*%
%TO.C,R7*%
X188787500Y-76200000D03*
X185862500Y-76200000D03*
%TD*%
D29*
%TO.C,R10*%
X148967000Y-100076000D03*
X151892000Y-100076000D03*
%TD*%
D27*
%TO.C,R9*%
X146689000Y-105271000D03*
X143764000Y-105271000D03*
%TD*%
D29*
%TO.C,R14*%
X159827500Y-91440000D03*
X162752500Y-91440000D03*
%TD*%
D28*
%TO.C,C2*%
X138635000Y-61976000D03*
X135685000Y-61976000D03*
%TD*%
D31*
%TO.C,C8*%
X183896000Y-103681000D03*
X183896000Y-106631000D03*
%TD*%
D27*
%TO.C,R2*%
X170372500Y-83820000D03*
X167447500Y-83820000D03*
%TD*%
%TO.C,R12*%
X170372500Y-73660000D03*
X167447500Y-73660000D03*
%TD*%
D28*
%TO.C,C12*%
X170385000Y-88900000D03*
X167435000Y-88900000D03*
%TD*%
M02*
