%TF.GenerationSoftware,KiCad,Pcbnew,8.0.7-8.0.7-0~ubuntu22.04.1*%
%TF.CreationDate,2025-01-26T21:06:57+01:00*%
%TF.ProjectId,G431_Expander,47343331-5f45-4787-9061-6e6465722e6b,rev?*%
%TF.SameCoordinates,Original*%
%TF.FileFunction,Paste,Bot*%
%TF.FilePolarity,Positive*%
%FSLAX46Y46*%
G04 Gerber Fmt 4.6, Leading zero omitted, Abs format (unit mm)*
G04 Created by KiCad (PCBNEW 8.0.7-8.0.7-0~ubuntu22.04.1) date 2025-01-26 21:06:57*
%MOMM*%
%LPD*%
G01*
G04 APERTURE LIST*
G04 Aperture macros list*
%AMRoundRect*
0 Rectangle with rounded corners*
0 $1 Rounding radius*
0 $2 $3 $4 $5 $6 $7 $8 $9 X,Y pos of 4 corners*
0 Add a 4 corners polygon primitive as box body*
4,1,4,$2,$3,$4,$5,$6,$7,$8,$9,$2,$3,0*
0 Add four circle primitives for the rounded corners*
1,1,$1+$1,$2,$3*
1,1,$1+$1,$4,$5*
1,1,$1+$1,$6,$7*
1,1,$1+$1,$8,$9*
0 Add four rect primitives between the rounded corners*
20,1,$1+$1,$2,$3,$4,$5,0*
20,1,$1+$1,$4,$5,$6,$7,0*
20,1,$1+$1,$6,$7,$8,$9,0*
20,1,$1+$1,$8,$9,$2,$3,0*%
G04 Aperture macros list end*
%ADD10RoundRect,0.250000X0.312500X0.625000X-0.312500X0.625000X-0.312500X-0.625000X0.312500X-0.625000X0*%
%ADD11RoundRect,0.250000X0.325000X0.650000X-0.325000X0.650000X-0.325000X-0.650000X0.325000X-0.650000X0*%
%ADD12RoundRect,0.250000X-0.312500X-0.625000X0.312500X-0.625000X0.312500X0.625000X-0.312500X0.625000X0*%
%ADD13RoundRect,0.250000X-0.325000X-0.650000X0.325000X-0.650000X0.325000X0.650000X-0.325000X0.650000X0*%
%ADD14RoundRect,0.250000X-0.650000X0.325000X-0.650000X-0.325000X0.650000X-0.325000X0.650000X0.325000X0*%
G04 APERTURE END LIST*
D10*
%TO.C,R6*%
X170372500Y-71120000D03*
X167447500Y-71120000D03*
%TD*%
D11*
%TO.C,C9*%
X135587000Y-100584000D03*
X132637000Y-100584000D03*
%TD*%
D12*
%TO.C,R17*%
X159827500Y-81280000D03*
X162752500Y-81280000D03*
%TD*%
D10*
%TO.C,R1*%
X178627500Y-89535000D03*
X175702500Y-89535000D03*
%TD*%
D11*
%TO.C,C11*%
X170385000Y-63500000D03*
X167435000Y-63500000D03*
%TD*%
D10*
%TO.C,R3*%
X178627500Y-80645000D03*
X175702500Y-80645000D03*
%TD*%
%TO.C,R4*%
X170372500Y-76200000D03*
X167447500Y-76200000D03*
%TD*%
D13*
%TO.C,C10*%
X187755000Y-84455000D03*
X190705000Y-84455000D03*
%TD*%
D10*
%TO.C,R8*%
X191327500Y-71120000D03*
X188402500Y-71120000D03*
%TD*%
%TO.C,R5*%
X178627500Y-71755000D03*
X175702500Y-71755000D03*
%TD*%
%TO.C,R15*%
X162752500Y-55245000D03*
X159827500Y-55245000D03*
%TD*%
D12*
%TO.C,R13*%
X159827500Y-88900000D03*
X162752500Y-88900000D03*
%TD*%
D10*
%TO.C,R16*%
X162752500Y-76835000D03*
X159827500Y-76835000D03*
%TD*%
%TO.C,R11*%
X170372500Y-81280000D03*
X167447500Y-81280000D03*
%TD*%
%TO.C,R7*%
X188787500Y-76200000D03*
X185862500Y-76200000D03*
%TD*%
D12*
%TO.C,R10*%
X148967000Y-100076000D03*
X151892000Y-100076000D03*
%TD*%
D10*
%TO.C,R9*%
X146689000Y-105271000D03*
X143764000Y-105271000D03*
%TD*%
D12*
%TO.C,R14*%
X159827500Y-91440000D03*
X162752500Y-91440000D03*
%TD*%
D11*
%TO.C,C2*%
X138635000Y-61976000D03*
X135685000Y-61976000D03*
%TD*%
D14*
%TO.C,C8*%
X183896000Y-103681000D03*
X183896000Y-106631000D03*
%TD*%
D10*
%TO.C,R2*%
X170372500Y-83820000D03*
X167447500Y-83820000D03*
%TD*%
%TO.C,R12*%
X170372500Y-73660000D03*
X167447500Y-73660000D03*
%TD*%
D11*
%TO.C,C12*%
X170385000Y-88900000D03*
X167435000Y-88900000D03*
%TD*%
M02*
