M48
; DRILL file {KiCad 8.0.7-8.0.7-0~ubuntu22.04.1} date 2025-01-26T21:06:59+0100
; FORMAT={-:-/ absolute / inch / decimal}
; #@! TF.CreationDate,2025-01-26T21:06:59+01:00
; #@! TF.GenerationSoftware,Kicad,Pcbnew,8.0.7-8.0.7-0~ubuntu22.04.1
; #@! TF.FileFunction,Plated,1,2,PTH
FMAT,2
INCH
; #@! TA.AperFunction,Plated,PTH,ViaDrill
T1C0.0236
; #@! TA.AperFunction,Plated,PTH,ComponentDrill
T2C0.0315
; #@! TA.AperFunction,Plated,PTH,ComponentDrill
T3C0.0394
; #@! TA.AperFunction,Plated,PTH,ComponentDrill
T4C0.0469
; #@! TA.AperFunction,Plated,PTH,ComponentDrill
T5C0.0709
; #@! TA.AperFunction,Plated,PTH,ComponentDrill
T6C0.1260
%
G90
G05
T1
X5.962Y-3.268
X6.288Y-2.85
X6.308Y-3.918
X6.344Y-2.896
X6.524Y-3.936
X7.08Y-2.76
X7.32Y-3.1
T2
X5.0222Y-2.96
X5.16Y-2.96
X5.34Y-3.14
X5.34Y-3.24
X5.34Y-3.34
X5.34Y-3.44
X5.34Y-3.54
X5.34Y-3.64
X5.34Y-3.74
X5.34Y-3.84
X5.64Y-3.14
X5.64Y-3.24
X5.64Y-3.34
X5.64Y-3.44
X5.64Y-3.54
X5.64Y-3.64
X5.64Y-3.74
X5.64Y-3.84
X5.8311Y-2.32
X5.9689Y-2.32
X7.1311Y-2.575
X7.2689Y-2.575
T3
X5.2708Y-2.2938
X5.3708Y-2.2938
X5.42Y-2.62
X5.4708Y-2.2938
X5.52Y-2.62
X5.62Y-2.62
X5.84Y-2.56
X5.84Y-2.92
X5.8401Y-2.72
X5.94Y-2.56
X5.94Y-2.92
X5.9401Y-2.72
X6.04Y-2.56
X6.04Y-2.92
X6.0401Y-2.72
X6.2Y-2.2
X6.2Y-2.3
X6.2Y-2.4
X6.2Y-2.5
X6.2Y-2.6
X6.2Y-2.7
X6.2Y-2.8
X6.2Y-2.9
X6.2Y-3.0
X6.2Y-3.1
X6.2Y-3.2
X6.2Y-3.3
X6.2Y-3.4
X6.2Y-3.5
X6.2Y-3.6
X6.8Y-2.2
X6.8Y-2.3
X6.8Y-2.4
X6.8Y-2.5
X6.8Y-2.6
X6.8Y-2.7
X6.8Y-2.8
X6.8Y-2.9
X6.8Y-3.0
X6.8Y-3.1
X6.8Y-3.2
X6.8Y-3.3
X6.8Y-3.4
X6.8Y-3.5
X6.8Y-3.6
X7.05Y-2.0042
X7.05Y-2.1042
X7.05Y-2.2042
T4
X5.8676Y-4.04
X5.8676Y-4.14
X5.8676Y-4.24
X5.8676Y-4.34
X6.4242Y-4.04
X6.4242Y-4.14
X6.4242Y-4.24
X6.4242Y-4.34
X6.76Y-4.04
X6.76Y-4.14
X6.76Y-4.24
X6.76Y-4.34
X7.025Y-2.9258
X7.025Y-3.275
X7.025Y-3.6258
X7.1Y-4.04
X7.1Y-4.14
X7.1Y-4.24
X7.1Y-4.34
X7.125Y-2.9258
X7.125Y-3.275
X7.125Y-3.6258
X7.225Y-2.9258
X7.225Y-3.275
X7.225Y-3.6258
X7.5258Y-2.9
X7.5258Y-3.0
X7.5258Y-3.1
X7.5258Y-3.2
T5
X5.08Y-3.5616
X5.08Y-3.7584
X5.4216Y-2.84
X5.6Y-2.0
X5.6184Y-2.84
X5.7969Y-2.0
X5.88Y-3.5431
X5.88Y-3.74
T6
X5.1Y-2.025
X5.1Y-4.24
X7.5Y-2.025
X7.5Y-4.24
M30
