%TF.GenerationSoftware,KiCad,Pcbnew,8.0.7-8.0.7-0~ubuntu22.04.1*%
%TF.CreationDate,2025-01-26T21:06:57+01:00*%
%TF.ProjectId,G431_Expander,47343331-5f45-4787-9061-6e6465722e6b,rev?*%
%TF.SameCoordinates,Original*%
%TF.FileFunction,Copper,L2,Bot*%
%TF.FilePolarity,Positive*%
%FSLAX46Y46*%
G04 Gerber Fmt 4.6, Leading zero omitted, Abs format (unit mm)*
G04 Created by KiCad (PCBNEW 8.0.7-8.0.7-0~ubuntu22.04.1) date 2025-01-26 21:06:57*
%MOMM*%
%LPD*%
G01*
G04 APERTURE LIST*
G04 Aperture macros list*
%AMRoundRect*
0 Rectangle with rounded corners*
0 $1 Rounding radius*
0 $2 $3 $4 $5 $6 $7 $8 $9 X,Y pos of 4 corners*
0 Add a 4 corners polygon primitive as box body*
4,1,4,$2,$3,$4,$5,$6,$7,$8,$9,$2,$3,0*
0 Add four circle primitives for the rounded corners*
1,1,$1+$1,$2,$3*
1,1,$1+$1,$4,$5*
1,1,$1+$1,$6,$7*
1,1,$1+$1,$8,$9*
0 Add four rect primitives between the rounded corners*
20,1,$1+$1,$2,$3,$4,$5,0*
20,1,$1+$1,$4,$5,$6,$7,0*
20,1,$1+$1,$6,$7,$8,$9,0*
20,1,$1+$1,$8,$9,$2,$3,0*%
G04 Aperture macros list end*
%TA.AperFunction,ComponentPad*%
%ADD10RoundRect,0.250000X0.845000X-0.620000X0.845000X0.620000X-0.845000X0.620000X-0.845000X-0.620000X0*%
%TD*%
%TA.AperFunction,ComponentPad*%
%ADD11O,2.190000X1.740000*%
%TD*%
%TA.AperFunction,ComponentPad*%
%ADD12R,2.500000X1.500000*%
%TD*%
%TA.AperFunction,ComponentPad*%
%ADD13O,2.500000X1.500000*%
%TD*%
%TA.AperFunction,ComponentPad*%
%ADD14R,3.000000X3.000000*%
%TD*%
%TA.AperFunction,ComponentPad*%
%ADD15C,3.000000*%
%TD*%
%TA.AperFunction,ComponentPad*%
%ADD16O,1.600000X2.600000*%
%TD*%
%TA.AperFunction,ComponentPad*%
%ADD17R,1.600000X1.600000*%
%TD*%
%TA.AperFunction,ComponentPad*%
%ADD18O,1.600000X1.600000*%
%TD*%
%TA.AperFunction,ComponentPad*%
%ADD19RoundRect,0.250000X-0.620000X-0.845000X0.620000X-0.845000X0.620000X0.845000X-0.620000X0.845000X0*%
%TD*%
%TA.AperFunction,ComponentPad*%
%ADD20O,1.740000X2.190000*%
%TD*%
%TA.AperFunction,ComponentPad*%
%ADD21C,6.400000*%
%TD*%
%TA.AperFunction,ComponentPad*%
%ADD22C,1.700000*%
%TD*%
%TA.AperFunction,ComponentPad*%
%ADD23R,1.500000X2.500000*%
%TD*%
%TA.AperFunction,ComponentPad*%
%ADD24O,1.500000X2.500000*%
%TD*%
%TA.AperFunction,ComponentPad*%
%ADD25R,1.700000X1.700000*%
%TD*%
%TA.AperFunction,ComponentPad*%
%ADD26O,1.700000X1.700000*%
%TD*%
%TA.AperFunction,SMDPad,CuDef*%
%ADD27RoundRect,0.250000X0.312500X0.625000X-0.312500X0.625000X-0.312500X-0.625000X0.312500X-0.625000X0*%
%TD*%
%TA.AperFunction,SMDPad,CuDef*%
%ADD28RoundRect,0.250000X0.325000X0.650000X-0.325000X0.650000X-0.325000X-0.650000X0.325000X-0.650000X0*%
%TD*%
%TA.AperFunction,SMDPad,CuDef*%
%ADD29RoundRect,0.250000X-0.312500X-0.625000X0.312500X-0.625000X0.312500X0.625000X-0.312500X0.625000X0*%
%TD*%
%TA.AperFunction,SMDPad,CuDef*%
%ADD30RoundRect,0.250000X-0.325000X-0.650000X0.325000X-0.650000X0.325000X0.650000X-0.325000X0.650000X0*%
%TD*%
%TA.AperFunction,SMDPad,CuDef*%
%ADD31RoundRect,0.250000X-0.650000X0.325000X-0.650000X-0.325000X0.650000X-0.325000X0.650000X0.325000X0*%
%TD*%
%TA.AperFunction,ViaPad*%
%ADD32C,1.200000*%
%TD*%
%TA.AperFunction,Conductor*%
%ADD33C,0.700000*%
%TD*%
%TA.AperFunction,Conductor*%
%ADD34C,1.000000*%
%TD*%
%TA.AperFunction,Conductor*%
%ADD35C,1.500000*%
%TD*%
%TA.AperFunction,Conductor*%
%ADD36C,0.500000*%
%TD*%
%TA.AperFunction,Conductor*%
%ADD37C,2.000000*%
%TD*%
G04 APERTURE END LIST*
D10*
%TO.P,J6,1,Pin_1*%
%TO.N,+5V*%
X149036500Y-110236000D03*
D11*
%TO.P,J6,2,Pin_2*%
%TO.N,GND*%
X149036500Y-107696000D03*
%TO.P,J6,3,Pin_3*%
%TO.N,Net-(J6-Pin_3)*%
X149036500Y-105156000D03*
%TO.P,J6,4,Pin_4*%
%TO.N,Net-(J6-Pin_4)*%
X149036500Y-102616000D03*
%TD*%
D10*
%TO.P,J14,1,Pin_1*%
%TO.N,GND*%
X180340000Y-110236000D03*
D11*
%TO.P,J14,2,Pin_2*%
%TO.N,/I2C_SCL*%
X180340000Y-107696000D03*
%TO.P,J14,3,Pin_3*%
%TO.N,/I2C_SDA*%
X180340000Y-105156000D03*
%TO.P,J14,4,Pin_4*%
%TO.N,+5V*%
X180340000Y-102616000D03*
%TD*%
D12*
%TO.P,U1,1,Vin*%
%TO.N,/VBAT*%
X179070000Y-50907500D03*
D13*
%TO.P,U1,2,GND*%
%TO.N,GND*%
X179070000Y-53447500D03*
%TO.P,U1,3,Vout*%
%TO.N,+5V*%
X179070000Y-55987500D03*
%TD*%
D14*
%TO.P,J1,1,-*%
%TO.N,GND*%
X142240000Y-50800000D03*
D15*
%TO.P,J1,2,+*%
%TO.N,/VBAT*%
X147240000Y-50800000D03*
%TD*%
D16*
%TO.P,C4,1*%
%TO.N,/+6.5V*%
X131064000Y-75184000D03*
%TO.P,C4,2*%
%TO.N,GND*%
X127564000Y-75184000D03*
%TD*%
D10*
%TO.P,J5,1,Pin_1*%
%TO.N,+5V*%
X191155000Y-81280000D03*
D11*
%TO.P,J5,2,Pin_2*%
%TO.N,GND*%
X191155000Y-78740000D03*
%TO.P,J5,3,Pin_3*%
%TO.N,Net-(J5-Pin_3)*%
X191155000Y-76200000D03*
%TO.P,J5,4,Pin_4*%
%TO.N,Net-(J5-Pin_4)*%
X191155000Y-73660000D03*
%TD*%
D17*
%TO.P,A1,1,PA9*%
%TO.N,/I2C_SCL*%
X157480000Y-55880000D03*
D18*
%TO.P,A1,2,PA10*%
%TO.N,/Servo1_PWM*%
X157480000Y-58420000D03*
%TO.P,A1,3,~{RESET}*%
%TO.N,unconnected-(A1-~{RESET}-Pad3)*%
X157480000Y-60960000D03*
%TO.P,A1,4,GND*%
%TO.N,GND*%
X157480000Y-63500000D03*
%TO.P,A1,5,PA12*%
%TO.N,/Moteur2_PWM*%
X157480000Y-66040000D03*
%TO.P,A1,6,PB0*%
%TO.N,/Moteur2_Sens1*%
X157480000Y-68580000D03*
%TO.P,A1,7,PB7*%
%TO.N,/Moteur2_Sens2*%
X157480000Y-71120000D03*
%TO.P,A1,8,PA15*%
%TO.N,/Moteur1_Sens1*%
X157480000Y-73660000D03*
%TO.P,A1,9,PB6*%
%TO.N,/Moteur1_PWM*%
X157480000Y-76200000D03*
%TO.P,A1,10,PF0*%
%TO.N,/I2C_SDA*%
X157480000Y-78740000D03*
%TO.P,A1,11,PF1*%
%TO.N,/Cde_Mosfet*%
X157480000Y-81280000D03*
%TO.P,A1,12,PA8*%
%TO.N,/Servo3_PWM*%
X157480000Y-83820000D03*
%TO.P,A1,13,PA11*%
%TO.N,/Servo2_PWM*%
X157480000Y-86360000D03*
%TO.P,A1,14,PB5*%
%TO.N,/Codeur2_B*%
X157480000Y-88900000D03*
%TO.P,A1,15,PB4*%
%TO.N,/Codeur2_A*%
X157480000Y-91440000D03*
%TO.P,A1,16,PB3/PB8*%
%TO.N,unconnected-(A1-PB3{slash}PB8-Pad16)*%
X172720000Y-91440000D03*
%TO.P,A1,17,3V3*%
%TO.N,+3.3V*%
X172720000Y-88900000D03*
%TO.P,A1,18,AREF*%
%TO.N,unconnected-(A1-AREF-Pad18)*%
X172720000Y-86360000D03*
%TO.P,A1,19,PA0*%
%TO.N,/Eana1f*%
X172720000Y-83820000D03*
%TO.P,A1,20,PA1*%
%TO.N,/Codeur1_B*%
X172720000Y-81280000D03*
%TO.P,A1,21,PA3*%
%TO.N,unconnected-(A1-PA3-Pad21)*%
X172720000Y-78740000D03*
%TO.P,A1,22,PA4*%
%TO.N,/Eana2f*%
X172720000Y-76200000D03*
%TO.P,A1,23,PA5/PB7*%
%TO.N,/Codeur1_A*%
X172720000Y-73660000D03*
%TO.P,A1,24,PA6/PA15*%
%TO.N,/Eana3f*%
X172720000Y-71120000D03*
%TO.P,A1,25,PA7*%
%TO.N,/Moteur1_Sens2*%
X172720000Y-68580000D03*
%TO.P,A1,26,PA2*%
%TO.N,unconnected-(A1-PA2-Pad26)*%
X172720000Y-66040000D03*
%TO.P,A1,27,+5V*%
%TO.N,+5V*%
X172720000Y-63500000D03*
%TO.P,A1,28,~{RESET}*%
%TO.N,unconnected-(A1-~{RESET}-Pad28)*%
X172720000Y-60960000D03*
%TO.P,A1,29,GND*%
%TO.N,GND*%
X172720000Y-58420000D03*
%TO.P,A1,30,VIN*%
%TO.N,unconnected-(A1-VIN-Pad30)*%
X172720000Y-55880000D03*
%TD*%
D19*
%TO.P,J4,1,Pin_1*%
%TO.N,/Eana3*%
X178435000Y-74315000D03*
D20*
%TO.P,J4,2,Pin_2*%
%TO.N,GND*%
X180975000Y-74315000D03*
%TO.P,J4,3,Pin_3*%
%TO.N,+5V*%
X183515000Y-74315000D03*
%TD*%
D21*
%TO.P,H1,1,1*%
%TO.N,GND*%
X129540000Y-51435000D03*
%TD*%
D10*
%TO.P,J13,1,Pin_1*%
%TO.N,GND*%
X171704000Y-110236000D03*
D11*
%TO.P,J13,2,Pin_2*%
%TO.N,/I2C_SCL*%
X171704000Y-107696000D03*
%TO.P,J13,3,Pin_3*%
%TO.N,/I2C_SDA*%
X171704000Y-105156000D03*
%TO.P,J13,4,Pin_4*%
%TO.N,+5V*%
X171704000Y-102616000D03*
%TD*%
D22*
%TO.P,J10,1,Pin_1*%
%TO.N,/Servo2_PWM*%
X153416000Y-74168000D03*
%TO.P,J10,2,Pin_2*%
%TO.N,/+6.5V*%
X150876000Y-74168000D03*
%TO.P,J10,3,Pin_3*%
%TO.N,GND*%
X148336000Y-74168000D03*
%TD*%
D10*
%TO.P,J12,1,Pin_1*%
%TO.N,GND*%
X163175000Y-110236000D03*
D11*
%TO.P,J12,2,Pin_2*%
%TO.N,/I2C_SCL*%
X163175000Y-107696000D03*
%TO.P,J12,3,Pin_3*%
%TO.N,/I2C_SDA*%
X163175000Y-105156000D03*
%TO.P,J12,4,Pin_4*%
%TO.N,+5V*%
X163175000Y-102616000D03*
%TD*%
D23*
%TO.P,U2,1,Vin*%
%TO.N,/VBAT*%
X138957500Y-58261500D03*
D24*
%TO.P,U2,2,GND*%
%TO.N,GND*%
X136417500Y-58261500D03*
%TO.P,U2,3,Vout*%
%TO.N,/+6.5V*%
X133877500Y-58261500D03*
%TD*%
D19*
%TO.P,J2,1,Pin_1*%
%TO.N,/Eana1*%
X178435000Y-92095000D03*
D20*
%TO.P,J2,2,Pin_2*%
%TO.N,GND*%
X180975000Y-92095000D03*
%TO.P,J2,3,Pin_3*%
%TO.N,+5V*%
X183515000Y-92095000D03*
%TD*%
D17*
%TO.P,U3,1,EN1\u002C2*%
%TO.N,/Moteur1_PWM*%
X143256000Y-97536000D03*
D18*
%TO.P,U3,2,1A*%
%TO.N,/Moteur1_Sens1*%
X143256000Y-94996000D03*
%TO.P,U3,3,1Y*%
%TO.N,/Mot1_1*%
X143256000Y-92456000D03*
%TO.P,U3,4,GND*%
%TO.N,GND*%
X143256000Y-89916000D03*
%TO.P,U3,5,GND*%
X143256000Y-87376000D03*
%TO.P,U3,6,2Y*%
%TO.N,/Mot1_2*%
X143256000Y-84836000D03*
%TO.P,U3,7,2A*%
%TO.N,/Moteur1_Sens2*%
X143256000Y-82296000D03*
%TO.P,U3,8,VCC2*%
%TO.N,/+VACTUATORS*%
X143256000Y-79756000D03*
%TO.P,U3,9,EN3\u002C4*%
%TO.N,/Moteur2_PWM*%
X135636000Y-79756000D03*
%TO.P,U3,10,3A*%
%TO.N,/Moteur2_Sens1*%
X135636000Y-82296000D03*
%TO.P,U3,11,3Y*%
%TO.N,/Mot2_1*%
X135636000Y-84836000D03*
%TO.P,U3,12,GND*%
%TO.N,GND*%
X135636000Y-87376000D03*
%TO.P,U3,13,GND*%
X135636000Y-89916000D03*
%TO.P,U3,14,4Y*%
%TO.N,/Mot2_2*%
X135636000Y-92456000D03*
%TO.P,U3,15,4A*%
%TO.N,/Moteur2_Sens2*%
X135636000Y-94996000D03*
%TO.P,U3,16,VCC1*%
%TO.N,+5V*%
X135636000Y-97536000D03*
%TD*%
D22*
%TO.P,J11,1,Pin_1*%
%TO.N,/Servo3_PWM*%
X153419500Y-69088000D03*
%TO.P,J11,2,Pin_2*%
%TO.N,/+6.5V*%
X150879500Y-69088000D03*
%TO.P,J11,3,Pin_3*%
%TO.N,GND*%
X148339500Y-69088000D03*
%TD*%
D14*
%TO.P,J8,1,-*%
%TO.N,/Mot2_2*%
X129032000Y-95464000D03*
D15*
%TO.P,J8,2,+*%
%TO.N,/Mot2_1*%
X129032000Y-90464000D03*
%TD*%
D25*
%TO.P,JP1,1,A*%
%TO.N,/+6.5V*%
X137668000Y-66548000D03*
D26*
%TO.P,JP1,2,C*%
%TO.N,/+VACTUATORS*%
X140208000Y-66548000D03*
%TO.P,JP1,3,B*%
%TO.N,/VBAT*%
X142748000Y-66548000D03*
%TD*%
D19*
%TO.P,J3,1,Pin_1*%
%TO.N,/Eana2*%
X178435000Y-83185000D03*
D20*
%TO.P,J3,2,Pin_2*%
%TO.N,GND*%
X180975000Y-83185000D03*
%TO.P,J3,3,Pin_3*%
%TO.N,+5V*%
X183515000Y-83185000D03*
%TD*%
D21*
%TO.P,H4,1,1*%
%TO.N,GND*%
X190500000Y-107696000D03*
%TD*%
%TO.P,H2,1,1*%
%TO.N,GND*%
X190500000Y-51435000D03*
%TD*%
%TO.P,H3,1,1*%
%TO.N,GND*%
X129540000Y-107696000D03*
%TD*%
D14*
%TO.P,J7,1,-*%
%TO.N,/Mot1_2*%
X149352000Y-89996000D03*
D15*
%TO.P,J7,2,+*%
%TO.N,/Mot1_1*%
X149352000Y-94996000D03*
%TD*%
D16*
%TO.P,C1,1*%
%TO.N,/VBAT*%
X148110000Y-58928000D03*
%TO.P,C1,2*%
%TO.N,GND*%
X151610000Y-58928000D03*
%TD*%
%TO.P,C3,1*%
%TO.N,+5V*%
X181130000Y-65405000D03*
%TO.P,C3,2*%
%TO.N,GND*%
X184630000Y-65405000D03*
%TD*%
D14*
%TO.P,J15,1,-*%
%TO.N,Net-(J15--)*%
X142708000Y-72136000D03*
D15*
%TO.P,J15,2,+*%
%TO.N,/+VACTUATORS*%
X137708000Y-72136000D03*
%TD*%
D22*
%TO.P,J9,1,Pin_1*%
%TO.N,/Servo1_PWM*%
X153416000Y-65024000D03*
%TO.P,J9,2,Pin_2*%
%TO.N,/+6.5V*%
X150876000Y-65024000D03*
%TO.P,J9,3,Pin_3*%
%TO.N,GND*%
X148336000Y-65024000D03*
%TD*%
D27*
%TO.P,R6,1*%
%TO.N,/Eana3f*%
X170372500Y-71120000D03*
%TO.P,R6,2*%
%TO.N,GND*%
X167447500Y-71120000D03*
%TD*%
D28*
%TO.P,C9,1*%
%TO.N,+5V*%
X135587000Y-100584000D03*
%TO.P,C9,2*%
%TO.N,GND*%
X132637000Y-100584000D03*
%TD*%
D29*
%TO.P,R17,1*%
%TO.N,/Cde_Mosfet*%
X159827500Y-81280000D03*
%TO.P,R17,2*%
%TO.N,GND*%
X162752500Y-81280000D03*
%TD*%
D27*
%TO.P,R1,1*%
%TO.N,/Eana1*%
X178627500Y-89535000D03*
%TO.P,R1,2*%
%TO.N,/Eana1f*%
X175702500Y-89535000D03*
%TD*%
D28*
%TO.P,C11,1*%
%TO.N,+5V*%
X170385000Y-63500000D03*
%TO.P,C11,2*%
%TO.N,GND*%
X167435000Y-63500000D03*
%TD*%
D27*
%TO.P,R3,1*%
%TO.N,/Eana2*%
X178627500Y-80645000D03*
%TO.P,R3,2*%
%TO.N,/Eana2f*%
X175702500Y-80645000D03*
%TD*%
%TO.P,R4,1*%
%TO.N,/Eana2f*%
X170372500Y-76200000D03*
%TO.P,R4,2*%
%TO.N,GND*%
X167447500Y-76200000D03*
%TD*%
D30*
%TO.P,C10,1*%
%TO.N,+5V*%
X187755000Y-84455000D03*
%TO.P,C10,2*%
%TO.N,GND*%
X190705000Y-84455000D03*
%TD*%
D27*
%TO.P,R8,1*%
%TO.N,Net-(J5-Pin_4)*%
X191327500Y-71120000D03*
%TO.P,R8,2*%
%TO.N,/Codeur1_A*%
X188402500Y-71120000D03*
%TD*%
%TO.P,R5,1*%
%TO.N,/Eana3*%
X178627500Y-71755000D03*
%TO.P,R5,2*%
%TO.N,/Eana3f*%
X175702500Y-71755000D03*
%TD*%
%TO.P,R15,1*%
%TO.N,+3.3V*%
X162752500Y-55245000D03*
%TO.P,R15,2*%
%TO.N,/I2C_SCL*%
X159827500Y-55245000D03*
%TD*%
D29*
%TO.P,R13,1*%
%TO.N,/Codeur2_B*%
X159827500Y-88900000D03*
%TO.P,R13,2*%
%TO.N,GND*%
X162752500Y-88900000D03*
%TD*%
D27*
%TO.P,R16,1*%
%TO.N,+3.3V*%
X162752500Y-76835000D03*
%TO.P,R16,2*%
%TO.N,/I2C_SDA*%
X159827500Y-76835000D03*
%TD*%
%TO.P,R11,1*%
%TO.N,/Codeur1_B*%
X170372500Y-81280000D03*
%TO.P,R11,2*%
%TO.N,GND*%
X167447500Y-81280000D03*
%TD*%
%TO.P,R7,1*%
%TO.N,Net-(J5-Pin_3)*%
X188787500Y-76200000D03*
%TO.P,R7,2*%
%TO.N,/Codeur1_B*%
X185862500Y-76200000D03*
%TD*%
D29*
%TO.P,R10,1*%
%TO.N,Net-(J6-Pin_4)*%
X148967000Y-100076000D03*
%TO.P,R10,2*%
%TO.N,/Codeur2_A*%
X151892000Y-100076000D03*
%TD*%
D27*
%TO.P,R9,1*%
%TO.N,Net-(J6-Pin_3)*%
X146689000Y-105271000D03*
%TO.P,R9,2*%
%TO.N,/Codeur2_B*%
X143764000Y-105271000D03*
%TD*%
D29*
%TO.P,R14,1*%
%TO.N,/Codeur2_A*%
X159827500Y-91440000D03*
%TO.P,R14,2*%
%TO.N,GND*%
X162752500Y-91440000D03*
%TD*%
D28*
%TO.P,C2,1*%
%TO.N,/VBAT*%
X138635000Y-61976000D03*
%TO.P,C2,2*%
%TO.N,GND*%
X135685000Y-61976000D03*
%TD*%
D31*
%TO.P,C8,1*%
%TO.N,+5V*%
X183896000Y-103681000D03*
%TO.P,C8,2*%
%TO.N,GND*%
X183896000Y-106631000D03*
%TD*%
D27*
%TO.P,R2,1*%
%TO.N,/Eana1f*%
X170372500Y-83820000D03*
%TO.P,R2,2*%
%TO.N,GND*%
X167447500Y-83820000D03*
%TD*%
%TO.P,R12,1*%
%TO.N,/Codeur1_A*%
X170372500Y-73660000D03*
%TO.P,R12,2*%
%TO.N,GND*%
X167447500Y-73660000D03*
%TD*%
D28*
%TO.P,C12,1*%
%TO.N,+3.3V*%
X170385000Y-88900000D03*
%TO.P,C12,2*%
%TO.N,GND*%
X167435000Y-88900000D03*
%TD*%
D32*
%TO.N,/Cde_Mosfet*%
X151434800Y-83007200D03*
%TO.N,/Moteur1_Sens2*%
X159715200Y-72390000D03*
%TO.N,/I2C_SCL*%
X165709600Y-99974400D03*
X161137600Y-73558400D03*
%TO.N,/I2C_SDA*%
X160223200Y-99517200D03*
%TO.N,/Codeur1_A*%
X179832000Y-70104000D03*
%TO.N,/Codeur1_B*%
X185928000Y-78740000D03*
%TD*%
D33*
%TO.N,/Moteur2_PWM*%
X145796000Y-66243200D02*
X146202400Y-66649600D01*
X156870400Y-66649600D02*
X157480000Y-66040000D01*
X146202400Y-66649600D02*
X156362400Y-66649600D01*
X135636000Y-79756000D02*
X135636000Y-65532000D01*
X135636000Y-65532000D02*
X136652000Y-64516000D01*
X136652000Y-64516000D02*
X145288000Y-64516000D01*
X156362400Y-66649600D02*
X156870400Y-66649600D01*
X145796000Y-65024000D02*
X145796000Y-66243200D01*
X145288000Y-64516000D02*
X145796000Y-65024000D01*
%TO.N,/Cde_Mosfet*%
X157480000Y-81280000D02*
X159827500Y-81280000D01*
X153162000Y-81280000D02*
X151434800Y-83007200D01*
X157480000Y-81280000D02*
X153162000Y-81280000D01*
D34*
%TO.N,+3.3V*%
X165642000Y-79724500D02*
X165642000Y-85886000D01*
X166624000Y-86868000D02*
X168353000Y-86868000D01*
X168353000Y-86868000D02*
X170385000Y-88900000D01*
X162752500Y-76835000D02*
X165642000Y-79724500D01*
X162752500Y-55245000D02*
X162752500Y-76835000D01*
X165642000Y-85886000D02*
X166624000Y-86868000D01*
D35*
X170385000Y-88900000D02*
X172720000Y-88900000D01*
D33*
%TO.N,/Moteur2_Sens1*%
X135636000Y-82296000D02*
X138176000Y-79756000D01*
X140208000Y-75184000D02*
X144068800Y-75184000D01*
X146230800Y-67688000D02*
X156588000Y-67688000D01*
X145288000Y-68630800D02*
X146230800Y-67688000D01*
X138176000Y-77216000D02*
X140208000Y-75184000D01*
X156588000Y-67688000D02*
X157480000Y-68580000D01*
X145288000Y-73964800D02*
X145288000Y-68630800D01*
X138176000Y-79756000D02*
X138176000Y-77216000D01*
X144068800Y-75184000D02*
X145288000Y-73964800D01*
D36*
%TO.N,/Moteur1_PWM*%
X147015200Y-93776800D02*
X143256000Y-97536000D01*
X154838400Y-78841600D02*
X149961600Y-78841600D01*
X147015200Y-81788000D02*
X147015200Y-93776800D01*
X149961600Y-78841600D02*
X147015200Y-81788000D01*
X157480000Y-76200000D02*
X154838400Y-78841600D01*
D35*
%TO.N,+5V*%
X183515000Y-83185000D02*
X186485000Y-83185000D01*
D34*
X135636000Y-97536000D02*
X135636000Y-100535000D01*
D33*
X170385000Y-63500000D02*
X172720000Y-63500000D01*
X182831000Y-102616000D02*
X180340000Y-102616000D01*
X183896000Y-103681000D02*
X182831000Y-102616000D01*
D35*
X186485000Y-83185000D02*
X187755000Y-84455000D01*
D33*
%TO.N,/Moteur1_Sens2*%
X153466800Y-76200000D02*
X153517600Y-76149200D01*
D36*
X155143200Y-73152000D02*
X155752800Y-72542400D01*
X155905200Y-72390000D02*
X159715200Y-72390000D01*
X153517600Y-76149200D02*
X155143200Y-74523600D01*
X143256000Y-82296000D02*
X149352000Y-76200000D01*
X155143200Y-74523600D02*
X155143200Y-73152000D01*
X155752800Y-72542400D02*
X155803600Y-72542400D01*
X149555200Y-76200000D02*
X153466800Y-76200000D01*
X155752800Y-72542400D02*
X155905200Y-72390000D01*
D34*
%TO.N,/Eana2*%
X178435000Y-83185000D02*
X178435000Y-80837500D01*
X178435000Y-80837500D02*
X178627500Y-80645000D01*
%TO.N,/Eana1*%
X178435000Y-92095000D02*
X178435000Y-89727500D01*
X178435000Y-89727500D02*
X178627500Y-89535000D01*
D33*
%TO.N,/I2C_SCL*%
X159827500Y-55245000D02*
X158115000Y-55245000D01*
X161137600Y-59537600D02*
X161137600Y-73558400D01*
X165709600Y-106781600D02*
X164795200Y-107696000D01*
X165709600Y-99974400D02*
X165709600Y-106781600D01*
X158115000Y-55245000D02*
X157480000Y-55880000D01*
X164795200Y-107696000D02*
X163175000Y-107696000D01*
X157480000Y-55880000D02*
X161137600Y-59537600D01*
%TO.N,/I2C_SDA*%
X160274000Y-104394000D02*
X161036000Y-105156000D01*
X160274000Y-99568000D02*
X160274000Y-104394000D01*
X161036000Y-105156000D02*
X163175000Y-105156000D01*
X160223200Y-99517200D02*
X160274000Y-99568000D01*
X157922500Y-78740000D02*
X159827500Y-76835000D01*
X157480000Y-78740000D02*
X157922500Y-78740000D01*
D36*
%TO.N,/Moteur1_Sens1*%
X145694400Y-81991200D02*
X149910800Y-77774800D01*
X153365200Y-77774800D02*
X157480000Y-73660000D01*
X145694400Y-92557600D02*
X145694400Y-81991200D01*
X149910800Y-77774800D02*
X153365200Y-77774800D01*
X143256000Y-94996000D02*
X145694400Y-92557600D01*
D34*
%TO.N,/Eana3*%
X178435000Y-74315000D02*
X178435000Y-71947500D01*
X178435000Y-71947500D02*
X178627500Y-71755000D01*
D33*
%TO.N,/Moteur2_Sens2*%
X139903200Y-80518000D02*
X139903200Y-78232000D01*
X146659600Y-71831200D02*
X147370800Y-71120000D01*
X147370800Y-71120000D02*
X157480000Y-71120000D01*
X138226800Y-92405200D02*
X138226800Y-82194400D01*
X146659600Y-74879200D02*
X146659600Y-71831200D01*
X138226800Y-82194400D02*
X139903200Y-80518000D01*
X139903200Y-78232000D02*
X141427200Y-76708000D01*
X144830800Y-76708000D02*
X146659600Y-74879200D01*
X141427200Y-76708000D02*
X144830800Y-76708000D01*
X135636000Y-94996000D02*
X138226800Y-92405200D01*
%TO.N,/VBAT*%
X138635000Y-58584000D02*
X138957500Y-58261500D01*
X138635000Y-61976000D02*
X138635000Y-58584000D01*
D37*
%TO.N,/+6.5V*%
X143764000Y-56896000D02*
X143764000Y-60960000D01*
X145288000Y-62484000D02*
X149860000Y-62484000D01*
X149860000Y-62484000D02*
X150876000Y-63500000D01*
X133877500Y-58261500D02*
X133877500Y-56114500D01*
X135128000Y-54864000D02*
X141732000Y-54864000D01*
X143764000Y-60960000D02*
X145288000Y-62484000D01*
X141732000Y-54864000D02*
X143764000Y-56896000D01*
X150876000Y-63500000D02*
X150876000Y-65024000D01*
X133877500Y-56114500D02*
X135128000Y-54864000D01*
D34*
%TO.N,/Eana1f*%
X172720000Y-83820000D02*
X174752000Y-83820000D01*
X170372500Y-83820000D02*
X172720000Y-83820000D01*
X175702500Y-84770500D02*
X175702500Y-89535000D01*
X174752000Y-83820000D02*
X175702500Y-84770500D01*
%TO.N,/Eana2f*%
X175702500Y-80645000D02*
X175702500Y-79182500D01*
X175702500Y-79182500D02*
X172720000Y-76200000D01*
X170372500Y-76200000D02*
X172720000Y-76200000D01*
%TO.N,/Eana3f*%
X172720000Y-71120000D02*
X170372500Y-71120000D01*
X175702500Y-71755000D02*
X175067500Y-71120000D01*
X175067500Y-71120000D02*
X172720000Y-71120000D01*
%TO.N,Net-(J5-Pin_4)*%
X191327500Y-73487500D02*
X191155000Y-73660000D01*
X191327500Y-71120000D02*
X191327500Y-73487500D01*
%TO.N,Net-(J5-Pin_3)*%
X188787500Y-76200000D02*
X191155000Y-76200000D01*
D33*
%TO.N,Net-(J6-Pin_3)*%
X148921500Y-105271000D02*
X149036500Y-105156000D01*
X146689000Y-105271000D02*
X148921500Y-105271000D01*
%TO.N,Net-(J6-Pin_4)*%
X149036500Y-100145500D02*
X148967000Y-100076000D01*
X149036500Y-102616000D02*
X149036500Y-100145500D01*
D34*
%TO.N,/Codeur1_A*%
X187386500Y-70104000D02*
X188402500Y-71120000D01*
X179832000Y-70104000D02*
X187386500Y-70104000D01*
X170372500Y-73660000D02*
X172720000Y-73660000D01*
D33*
%TO.N,/Codeur2_A*%
X151892000Y-100076000D02*
X152908000Y-99060000D01*
X156464000Y-99060000D02*
X157480000Y-98044000D01*
X159827500Y-91440000D02*
X157480000Y-91440000D01*
X157480000Y-98044000D02*
X157480000Y-91440000D01*
X152908000Y-99060000D02*
X156464000Y-99060000D01*
D34*
%TO.N,/Codeur1_B*%
X170372500Y-81280000D02*
X172720000Y-81280000D01*
X185928000Y-78740000D02*
X185928000Y-76265500D01*
X185928000Y-76265500D02*
X185862500Y-76200000D01*
D33*
%TO.N,/Codeur2_B*%
X157480000Y-88900000D02*
X155956000Y-88900000D01*
X143764000Y-101092000D02*
X143764000Y-105271000D01*
X155956000Y-88900000D02*
X155448000Y-89408000D01*
X155448000Y-89408000D02*
X155448000Y-96012000D01*
X153924000Y-97536000D02*
X147320000Y-97536000D01*
X155448000Y-96012000D02*
X153924000Y-97536000D01*
X147320000Y-97536000D02*
X143764000Y-101092000D01*
X157480000Y-88900000D02*
X159827500Y-88900000D01*
%TD*%
%TA.AperFunction,Conductor*%
%TO.N,GND*%
G36*
X149534036Y-68558185D02*
G01*
X149579791Y-68610989D01*
X149589735Y-68680147D01*
X149586772Y-68694593D01*
X149544438Y-68852586D01*
X149544436Y-68852596D01*
X149523841Y-69087999D01*
X149523841Y-69088000D01*
X149544436Y-69323403D01*
X149544438Y-69323413D01*
X149605594Y-69551655D01*
X149605596Y-69551659D01*
X149605597Y-69551663D01*
X149695519Y-69744500D01*
X149705465Y-69765830D01*
X149705467Y-69765834D01*
X149794693Y-69893261D01*
X149841001Y-69959396D01*
X149841006Y-69959402D01*
X149939423Y-70057819D01*
X149972908Y-70119142D01*
X149967924Y-70188834D01*
X149926052Y-70244767D01*
X149860588Y-70269184D01*
X149851742Y-70269500D01*
X147287028Y-70269500D01*
X147122725Y-70302182D01*
X147122713Y-70302185D01*
X147077383Y-70320962D01*
X146967943Y-70366292D01*
X146967930Y-70366299D01*
X146828638Y-70459372D01*
X146828634Y-70459375D01*
X146350181Y-70937829D01*
X146288858Y-70971314D01*
X146219166Y-70966330D01*
X146163233Y-70924458D01*
X146138816Y-70858994D01*
X146138500Y-70850148D01*
X146138500Y-69034451D01*
X146158185Y-68967412D01*
X146174819Y-68946770D01*
X146546770Y-68574819D01*
X146608093Y-68541334D01*
X146634451Y-68538500D01*
X149466997Y-68538500D01*
X149534036Y-68558185D01*
G37*
%TD.AperFunction*%
%TA.AperFunction,Conductor*%
G36*
X149254150Y-64004185D02*
G01*
X149274792Y-64020819D01*
X149339181Y-64085208D01*
X149372666Y-64146531D01*
X149375500Y-64172889D01*
X149375500Y-65142097D01*
X149412446Y-65375368D01*
X149485433Y-65599995D01*
X149495017Y-65618803D01*
X149507914Y-65687472D01*
X149481639Y-65752213D01*
X149424533Y-65792471D01*
X149384533Y-65799100D01*
X146770500Y-65799100D01*
X146703461Y-65779415D01*
X146657706Y-65726611D01*
X146646500Y-65675100D01*
X146646500Y-64940232D01*
X146646499Y-64940228D01*
X146626138Y-64837865D01*
X146613816Y-64775918D01*
X146553610Y-64630570D01*
X146549704Y-64621139D01*
X146456627Y-64481839D01*
X146410282Y-64435494D01*
X146338162Y-64363374D01*
X146170968Y-64196180D01*
X146137484Y-64134858D01*
X146142468Y-64065166D01*
X146184340Y-64009233D01*
X146249804Y-63984816D01*
X146258650Y-63984500D01*
X149187111Y-63984500D01*
X149254150Y-64004185D01*
G37*
%TD.AperFunction*%
%TA.AperFunction,Conductor*%
G36*
X192685336Y-45560326D02*
G01*
X192975396Y-45577871D01*
X192990259Y-45579676D01*
X193272398Y-45631380D01*
X193286935Y-45634963D01*
X193560772Y-45720295D01*
X193574763Y-45725600D01*
X193836343Y-45843327D01*
X193849589Y-45850280D01*
X194095065Y-45998675D01*
X194107376Y-46007173D01*
X194333173Y-46184073D01*
X194344381Y-46194003D01*
X194547196Y-46396818D01*
X194557126Y-46408026D01*
X194677081Y-46561138D01*
X194734022Y-46633817D01*
X194742528Y-46646140D01*
X194890916Y-46891604D01*
X194897875Y-46904863D01*
X195015597Y-47166431D01*
X195020906Y-47180432D01*
X195106235Y-47454263D01*
X195109819Y-47468801D01*
X195161523Y-47750940D01*
X195163328Y-47765805D01*
X195180874Y-48055863D01*
X195181100Y-48063350D01*
X195181100Y-109975449D01*
X195180874Y-109982936D01*
X195163328Y-110272994D01*
X195161523Y-110287859D01*
X195109819Y-110569998D01*
X195106235Y-110584536D01*
X195020906Y-110858367D01*
X195015597Y-110872368D01*
X194897875Y-111133936D01*
X194890916Y-111147195D01*
X194742528Y-111392659D01*
X194734022Y-111404982D01*
X194557126Y-111630773D01*
X194547196Y-111641981D01*
X194344381Y-111844796D01*
X194333173Y-111854726D01*
X194107382Y-112031622D01*
X194095059Y-112040128D01*
X193849595Y-112188516D01*
X193836336Y-112195475D01*
X193574768Y-112313197D01*
X193560767Y-112318506D01*
X193286936Y-112403835D01*
X193272398Y-112407419D01*
X192990259Y-112459123D01*
X192975394Y-112460928D01*
X192685336Y-112478474D01*
X192677849Y-112478700D01*
X127158951Y-112478700D01*
X127151464Y-112478474D01*
X126861405Y-112460928D01*
X126846540Y-112459123D01*
X126564401Y-112407419D01*
X126549863Y-112403835D01*
X126276032Y-112318506D01*
X126262031Y-112313197D01*
X126000463Y-112195475D01*
X125987204Y-112188516D01*
X125741740Y-112040128D01*
X125729417Y-112031622D01*
X125503626Y-111854726D01*
X125492418Y-111844796D01*
X125289603Y-111641981D01*
X125279673Y-111630773D01*
X125209193Y-111540812D01*
X125102773Y-111404976D01*
X125094275Y-111392665D01*
X124945880Y-111147189D01*
X124938927Y-111133943D01*
X124821200Y-110872363D01*
X124815893Y-110858367D01*
X124730564Y-110584536D01*
X124726980Y-110569998D01*
X124675276Y-110287859D01*
X124673471Y-110272994D01*
X124655926Y-109982936D01*
X124655700Y-109975449D01*
X124655700Y-109565983D01*
X147441000Y-109565983D01*
X147441000Y-110906001D01*
X147441001Y-110906018D01*
X147451500Y-111008796D01*
X147451501Y-111008799D01*
X147497362Y-111147195D01*
X147506686Y-111175334D01*
X147598788Y-111324656D01*
X147722844Y-111448712D01*
X147872166Y-111540814D01*
X148038703Y-111595999D01*
X148141491Y-111606500D01*
X149931508Y-111606499D01*
X150034297Y-111595999D01*
X150200834Y-111540814D01*
X150350156Y-111448712D01*
X150474212Y-111324656D01*
X150566314Y-111175334D01*
X150621499Y-111008797D01*
X150632000Y-110906009D01*
X150631999Y-109565992D01*
X150621499Y-109463203D01*
X150566314Y-109296666D01*
X150474212Y-109147344D01*
X150350156Y-109023288D01*
X150200834Y-108931186D01*
X150034297Y-108876001D01*
X150034295Y-108876000D01*
X149931510Y-108865500D01*
X148141498Y-108865500D01*
X148141481Y-108865501D01*
X148038703Y-108876000D01*
X148038700Y-108876001D01*
X147872168Y-108931185D01*
X147872163Y-108931187D01*
X147722842Y-109023289D01*
X147598789Y-109147342D01*
X147506687Y-109296663D01*
X147506686Y-109296666D01*
X147451501Y-109463203D01*
X147451501Y-109463204D01*
X147451500Y-109463204D01*
X147441000Y-109565983D01*
X124655700Y-109565983D01*
X124655700Y-93916135D01*
X127031500Y-93916135D01*
X127031500Y-97011870D01*
X127031501Y-97011876D01*
X127037908Y-97071483D01*
X127088202Y-97206328D01*
X127088206Y-97206335D01*
X127174452Y-97321544D01*
X127174455Y-97321547D01*
X127289664Y-97407793D01*
X127289671Y-97407797D01*
X127424517Y-97458091D01*
X127424516Y-97458091D01*
X127431444Y-97458835D01*
X127484127Y-97464500D01*
X130579872Y-97464499D01*
X130639483Y-97458091D01*
X130774331Y-97407796D01*
X130889546Y-97321546D01*
X130975796Y-97206331D01*
X131026091Y-97071483D01*
X131032500Y-97011873D01*
X131032499Y-93916128D01*
X131026091Y-93856517D01*
X131002723Y-93793865D01*
X130975797Y-93721671D01*
X130975793Y-93721664D01*
X130889547Y-93606455D01*
X130889544Y-93606452D01*
X130774335Y-93520206D01*
X130774328Y-93520202D01*
X130639482Y-93469908D01*
X130639483Y-93469908D01*
X130579883Y-93463501D01*
X130579881Y-93463500D01*
X130579873Y-93463500D01*
X130579864Y-93463500D01*
X127484129Y-93463500D01*
X127484123Y-93463501D01*
X127424516Y-93469908D01*
X127289671Y-93520202D01*
X127289664Y-93520206D01*
X127174455Y-93606452D01*
X127174452Y-93606455D01*
X127088206Y-93721664D01*
X127088202Y-93721671D01*
X127037908Y-93856517D01*
X127031977Y-93911690D01*
X127031501Y-93916123D01*
X127031500Y-93916135D01*
X124655700Y-93916135D01*
X124655700Y-90463998D01*
X127026390Y-90463998D01*
X127026390Y-90464001D01*
X127046804Y-90749433D01*
X127107628Y-91029037D01*
X127107630Y-91029043D01*
X127107631Y-91029046D01*
X127182308Y-91229261D01*
X127207635Y-91297166D01*
X127344770Y-91548309D01*
X127344775Y-91548317D01*
X127516254Y-91777387D01*
X127516270Y-91777405D01*
X127718594Y-91979729D01*
X127718612Y-91979745D01*
X127947682Y-92151224D01*
X127947690Y-92151229D01*
X128198833Y-92288364D01*
X128198832Y-92288364D01*
X128198836Y-92288365D01*
X128198839Y-92288367D01*
X128466954Y-92388369D01*
X128466960Y-92388370D01*
X128466962Y-92388371D01*
X128746566Y-92449195D01*
X128746568Y-92449195D01*
X128746572Y-92449196D01*
X129000220Y-92467337D01*
X129031999Y-92469610D01*
X129032000Y-92469610D01*
X129032001Y-92469610D01*
X129060595Y-92467564D01*
X129317428Y-92449196D01*
X129359486Y-92440047D01*
X129597037Y-92388371D01*
X129597037Y-92388370D01*
X129597046Y-92388369D01*
X129865161Y-92288367D01*
X130116315Y-92151226D01*
X130345395Y-91979739D01*
X130547739Y-91777395D01*
X130719226Y-91548315D01*
X130856367Y-91297161D01*
X130956369Y-91029046D01*
X130982157Y-90910499D01*
X131017195Y-90749433D01*
X131017195Y-90749432D01*
X131017196Y-90749428D01*
X131037610Y-90464000D01*
X131017196Y-90178572D01*
X131015545Y-90170984D01*
X130956371Y-89898962D01*
X130956370Y-89898960D01*
X130956369Y-89898954D01*
X130856367Y-89630839D01*
X130855340Y-89628959D01*
X130719229Y-89379690D01*
X130719224Y-89379682D01*
X130547745Y-89150612D01*
X130547729Y-89150594D01*
X130345405Y-88948270D01*
X130345387Y-88948254D01*
X130116317Y-88776775D01*
X130116309Y-88776770D01*
X129865166Y-88639635D01*
X129865167Y-88639635D01*
X129706000Y-88580269D01*
X129597046Y-88539631D01*
X129597043Y-88539630D01*
X129597037Y-88539628D01*
X129317433Y-88478804D01*
X129032001Y-88458390D01*
X129031999Y-88458390D01*
X128746566Y-88478804D01*
X128466962Y-88539628D01*
X128198833Y-88639635D01*
X127947690Y-88776770D01*
X127947682Y-88776775D01*
X127718612Y-88948254D01*
X127718594Y-88948270D01*
X127516270Y-89150594D01*
X127516254Y-89150612D01*
X127344775Y-89379682D01*
X127344770Y-89379690D01*
X127207635Y-89630833D01*
X127107628Y-89898962D01*
X127046804Y-90178566D01*
X127026390Y-90463998D01*
X124655700Y-90463998D01*
X124655700Y-74581648D01*
X129763500Y-74581648D01*
X129763500Y-75786351D01*
X129795522Y-75988534D01*
X129858781Y-76183223D01*
X129951715Y-76365613D01*
X130072028Y-76531213D01*
X130216786Y-76675971D01*
X130371749Y-76788556D01*
X130382390Y-76796287D01*
X130479967Y-76846005D01*
X130564776Y-76889218D01*
X130564778Y-76889218D01*
X130564781Y-76889220D01*
X130654277Y-76918299D01*
X130759465Y-76952477D01*
X130856949Y-76967917D01*
X130961648Y-76984500D01*
X130961649Y-76984500D01*
X131166351Y-76984500D01*
X131166352Y-76984500D01*
X131368534Y-76952477D01*
X131563219Y-76889220D01*
X131745610Y-76796287D01*
X131884732Y-76695210D01*
X131911213Y-76675971D01*
X131911215Y-76675968D01*
X131911219Y-76675966D01*
X132055966Y-76531219D01*
X132055968Y-76531215D01*
X132055971Y-76531213D01*
X132133529Y-76424462D01*
X132176287Y-76365610D01*
X132269220Y-76183219D01*
X132332477Y-75988534D01*
X132364500Y-75786352D01*
X132364500Y-74581648D01*
X132332477Y-74379465D01*
X132274377Y-74200654D01*
X132269220Y-74184781D01*
X132269218Y-74184778D01*
X132269218Y-74184776D01*
X132215726Y-74079793D01*
X132176287Y-74002390D01*
X132143780Y-73957647D01*
X132055971Y-73836786D01*
X131911213Y-73692028D01*
X131745613Y-73571715D01*
X131745612Y-73571714D01*
X131745610Y-73571713D01*
X131688653Y-73542691D01*
X131563223Y-73478781D01*
X131368534Y-73415522D01*
X131193995Y-73387878D01*
X131166352Y-73383500D01*
X130961648Y-73383500D01*
X130937329Y-73387351D01*
X130759465Y-73415522D01*
X130564776Y-73478781D01*
X130382386Y-73571715D01*
X130216786Y-73692028D01*
X130072028Y-73836786D01*
X129951715Y-74002386D01*
X129858781Y-74184776D01*
X129795522Y-74379465D01*
X129763500Y-74581648D01*
X124655700Y-74581648D01*
X124655700Y-55996402D01*
X132377000Y-55996402D01*
X132377000Y-58379597D01*
X132413946Y-58612868D01*
X132486933Y-58837496D01*
X132594157Y-59047933D01*
X132693970Y-59185313D01*
X132711582Y-59219878D01*
X132718616Y-59241526D01*
X132807975Y-59416903D01*
X132807976Y-59416905D01*
X132923672Y-59576146D01*
X133062854Y-59715328D01*
X133222095Y-59831024D01*
X133296714Y-59869044D01*
X133397470Y-59920382D01*
X133397472Y-59920382D01*
X133397475Y-59920384D01*
X133461697Y-59941251D01*
X133584673Y-59981209D01*
X133779078Y-60012000D01*
X133779083Y-60012000D01*
X133975922Y-60012000D01*
X134170326Y-59981209D01*
X134357525Y-59920384D01*
X134532905Y-59831024D01*
X134692146Y-59715328D01*
X134831328Y-59576146D01*
X134947024Y-59416905D01*
X135036384Y-59241525D01*
X135043415Y-59219882D01*
X135061026Y-59185316D01*
X135160843Y-59047933D01*
X135268068Y-58837492D01*
X135341053Y-58612868D01*
X135345923Y-58582118D01*
X135378000Y-58379597D01*
X135378000Y-56787389D01*
X135397685Y-56720350D01*
X135414319Y-56699708D01*
X135713208Y-56400819D01*
X135774531Y-56367334D01*
X135800889Y-56364500D01*
X137864058Y-56364500D01*
X137931097Y-56384185D01*
X137976852Y-56436989D01*
X137986796Y-56506147D01*
X137957771Y-56569703D01*
X137938371Y-56587764D01*
X137849954Y-56653954D01*
X137849953Y-56653955D01*
X137849952Y-56653956D01*
X137763706Y-56769164D01*
X137763702Y-56769171D01*
X137713408Y-56904017D01*
X137709397Y-56941328D01*
X137707001Y-56963623D01*
X137707000Y-56963635D01*
X137707000Y-59559370D01*
X137707001Y-59559376D01*
X137713408Y-59618981D01*
X137715202Y-59623791D01*
X137763704Y-59753831D01*
X137763705Y-59753832D01*
X137763706Y-59753835D01*
X137767956Y-59761618D01*
X137765193Y-59763126D01*
X137784183Y-59814021D01*
X137784500Y-59822882D01*
X137784500Y-60738770D01*
X137764815Y-60805809D01*
X137748181Y-60826451D01*
X137717289Y-60857342D01*
X137625187Y-61006663D01*
X137625185Y-61006668D01*
X137620619Y-61020447D01*
X137570001Y-61173203D01*
X137570001Y-61173204D01*
X137570000Y-61173204D01*
X137559500Y-61275983D01*
X137559500Y-62676001D01*
X137559501Y-62676018D01*
X137570000Y-62778796D01*
X137570001Y-62778799D01*
X137618118Y-62924003D01*
X137625186Y-62945334D01*
X137717288Y-63094656D01*
X137841344Y-63218712D01*
X137990666Y-63310814D01*
X138157203Y-63365999D01*
X138259991Y-63376500D01*
X139010008Y-63376499D01*
X139010016Y-63376498D01*
X139010019Y-63376498D01*
X139066302Y-63370748D01*
X139112797Y-63365999D01*
X139279334Y-63310814D01*
X139428656Y-63218712D01*
X139552712Y-63094656D01*
X139644814Y-62945334D01*
X139699999Y-62778797D01*
X139710500Y-62676009D01*
X139710499Y-61275992D01*
X139699999Y-61173203D01*
X139644814Y-61006666D01*
X139552712Y-60857344D01*
X139521819Y-60826451D01*
X139488334Y-60765128D01*
X139485500Y-60738770D01*
X139485500Y-60135999D01*
X139505185Y-60068960D01*
X139557989Y-60023205D01*
X139609500Y-60011999D01*
X139755371Y-60011999D01*
X139755372Y-60011999D01*
X139814983Y-60005591D01*
X139949831Y-59955296D01*
X140065046Y-59869046D01*
X140151296Y-59753831D01*
X140201591Y-59618983D01*
X140208000Y-59559373D01*
X140207999Y-56963628D01*
X140201591Y-56904017D01*
X140163596Y-56802148D01*
X140151297Y-56769171D01*
X140151293Y-56769164D01*
X140065047Y-56653956D01*
X140065048Y-56653956D01*
X140065046Y-56653954D01*
X139976630Y-56587765D01*
X139934760Y-56531833D01*
X139929776Y-56462141D01*
X139963261Y-56400818D01*
X140024585Y-56367334D01*
X140050942Y-56364500D01*
X141059111Y-56364500D01*
X141126150Y-56384185D01*
X141146792Y-56400819D01*
X142227181Y-57481208D01*
X142260666Y-57542531D01*
X142263500Y-57568889D01*
X142263500Y-61078097D01*
X142300446Y-61311368D01*
X142373433Y-61535996D01*
X142480657Y-61746434D01*
X142619484Y-61937511D01*
X144135792Y-63453819D01*
X144169277Y-63515142D01*
X144164293Y-63584834D01*
X144122421Y-63640767D01*
X144056957Y-63665184D01*
X144048111Y-63665500D01*
X136568228Y-63665500D01*
X136403925Y-63698182D01*
X136403913Y-63698185D01*
X136358583Y-63716962D01*
X136249143Y-63762292D01*
X136249130Y-63762299D01*
X136109838Y-63855372D01*
X136109834Y-63855375D01*
X134975375Y-64989834D01*
X134975372Y-64989838D01*
X134882299Y-65129130D01*
X134882292Y-65129143D01*
X134843755Y-65222183D01*
X134818185Y-65283913D01*
X134818182Y-65283925D01*
X134785500Y-65448228D01*
X134785500Y-78715951D01*
X134765815Y-78782990D01*
X134749181Y-78803632D01*
X134635954Y-78916858D01*
X134505432Y-79103265D01*
X134505431Y-79103267D01*
X134409261Y-79309502D01*
X134409258Y-79309511D01*
X134350366Y-79529302D01*
X134350364Y-79529313D01*
X134330532Y-79755998D01*
X134330532Y-79756001D01*
X134350364Y-79982686D01*
X134350366Y-79982697D01*
X134409258Y-80202488D01*
X134409261Y-80202497D01*
X134505431Y-80408732D01*
X134505432Y-80408734D01*
X134635954Y-80595141D01*
X134796858Y-80756045D01*
X134796861Y-80756047D01*
X134983266Y-80886568D01*
X135041275Y-80913618D01*
X135093714Y-80959791D01*
X135112866Y-81026984D01*
X135092650Y-81093865D01*
X135041275Y-81138382D01*
X134983267Y-81165431D01*
X134983265Y-81165432D01*
X134796858Y-81295954D01*
X134635954Y-81456858D01*
X134505432Y-81643265D01*
X134505431Y-81643267D01*
X134409261Y-81849502D01*
X134409258Y-81849511D01*
X134350366Y-82069302D01*
X134350364Y-82069313D01*
X134330532Y-82295998D01*
X134330532Y-82296001D01*
X134350364Y-82522686D01*
X134350366Y-82522697D01*
X134409258Y-82742488D01*
X134409261Y-82742497D01*
X134505431Y-82948732D01*
X134505432Y-82948734D01*
X134635954Y-83135141D01*
X134796858Y-83296045D01*
X134796861Y-83296047D01*
X134983266Y-83426568D01*
X135041275Y-83453618D01*
X135093714Y-83499791D01*
X135112866Y-83566984D01*
X135092650Y-83633865D01*
X135041275Y-83678382D01*
X134983267Y-83705431D01*
X134983265Y-83705432D01*
X134796858Y-83835954D01*
X134635954Y-83996858D01*
X134505432Y-84183265D01*
X134505431Y-84183267D01*
X134409261Y-84389502D01*
X134409258Y-84389511D01*
X134350366Y-84609302D01*
X134350364Y-84609313D01*
X134330532Y-84835998D01*
X134330532Y-84836001D01*
X134350364Y-85062686D01*
X134350366Y-85062697D01*
X134409258Y-85282488D01*
X134409261Y-85282497D01*
X134505431Y-85488732D01*
X134505432Y-85488734D01*
X134635954Y-85675141D01*
X134796858Y-85836045D01*
X134796861Y-85836047D01*
X134983266Y-85966568D01*
X135189504Y-86062739D01*
X135409308Y-86121635D01*
X135571230Y-86135801D01*
X135635998Y-86141468D01*
X135636000Y-86141468D01*
X135636002Y-86141468D01*
X135692673Y-86136509D01*
X135862692Y-86121635D01*
X136082496Y-86062739D01*
X136288734Y-85966568D01*
X136475139Y-85836047D01*
X136636047Y-85675139D01*
X136766568Y-85488734D01*
X136862739Y-85282496D01*
X136921635Y-85062692D01*
X136941468Y-84836000D01*
X136941177Y-84832679D01*
X136933660Y-84746754D01*
X136921635Y-84609308D01*
X136862739Y-84389504D01*
X136766568Y-84183266D01*
X136636047Y-83996861D01*
X136636045Y-83996858D01*
X136475141Y-83835954D01*
X136288734Y-83705432D01*
X136288728Y-83705429D01*
X136230725Y-83678382D01*
X136178285Y-83632210D01*
X136159133Y-83565017D01*
X136179348Y-83498135D01*
X136230725Y-83453618D01*
X136288734Y-83426568D01*
X136475139Y-83296047D01*
X136636047Y-83135139D01*
X136766568Y-82948734D01*
X136862739Y-82742496D01*
X136921635Y-82522692D01*
X136941468Y-82296000D01*
X136938246Y-82259181D01*
X136952011Y-82190685D01*
X136974090Y-82160697D01*
X137174694Y-81960093D01*
X137236015Y-81926610D01*
X137305707Y-81931594D01*
X137361640Y-81973466D01*
X137386057Y-82038930D01*
X137383991Y-82071966D01*
X137376300Y-82110634D01*
X137376300Y-92001549D01*
X137356615Y-92068588D01*
X137339981Y-92089230D01*
X137131780Y-92297430D01*
X137070457Y-92330915D01*
X137000765Y-92325931D01*
X136944832Y-92284059D01*
X136923355Y-92234451D01*
X136923036Y-92234537D01*
X136922456Y-92232372D01*
X136921983Y-92231280D01*
X136921636Y-92229312D01*
X136862741Y-92009511D01*
X136862738Y-92009502D01*
X136854748Y-91992368D01*
X136766568Y-91803266D01*
X136636047Y-91616861D01*
X136636045Y-91616858D01*
X136475141Y-91455954D01*
X136288734Y-91325432D01*
X136288732Y-91325431D01*
X136082497Y-91229261D01*
X136082488Y-91229258D01*
X135862697Y-91170366D01*
X135862693Y-91170365D01*
X135862692Y-91170365D01*
X135862691Y-91170364D01*
X135862686Y-91170364D01*
X135636002Y-91150532D01*
X135635998Y-91150532D01*
X135409313Y-91170364D01*
X135409302Y-91170366D01*
X135189511Y-91229258D01*
X135189502Y-91229261D01*
X134983267Y-91325431D01*
X134983265Y-91325432D01*
X134796858Y-91455954D01*
X134635954Y-91616858D01*
X134505432Y-91803265D01*
X134505431Y-91803267D01*
X134409261Y-92009502D01*
X134409258Y-92009511D01*
X134350366Y-92229302D01*
X134350364Y-92229313D01*
X134330532Y-92455998D01*
X134330532Y-92456001D01*
X134350364Y-92682686D01*
X134350366Y-92682697D01*
X134409258Y-92902488D01*
X134409261Y-92902497D01*
X134505431Y-93108732D01*
X134505432Y-93108734D01*
X134635954Y-93295141D01*
X134796858Y-93456045D01*
X134810978Y-93465932D01*
X134983266Y-93586568D01*
X135025914Y-93606455D01*
X135041275Y-93613618D01*
X135093714Y-93659791D01*
X135112866Y-93726984D01*
X135092650Y-93793865D01*
X135041275Y-93838382D01*
X134983267Y-93865431D01*
X134983265Y-93865432D01*
X134796858Y-93995954D01*
X134635954Y-94156858D01*
X134505432Y-94343265D01*
X134505431Y-94343267D01*
X134409261Y-94549502D01*
X134409258Y-94549511D01*
X134350366Y-94769302D01*
X134350364Y-94769313D01*
X134330532Y-94995998D01*
X134330532Y-94996001D01*
X134350364Y-95222686D01*
X134350366Y-95222697D01*
X134409258Y-95442488D01*
X134409261Y-95442497D01*
X134505431Y-95648732D01*
X134505432Y-95648734D01*
X134635954Y-95835141D01*
X134796858Y-95996045D01*
X134843693Y-96028839D01*
X134983266Y-96126568D01*
X135006384Y-96137348D01*
X135041275Y-96153618D01*
X135093714Y-96199791D01*
X135112866Y-96266984D01*
X135092650Y-96333865D01*
X135041275Y-96378381D01*
X135041118Y-96378455D01*
X134983267Y-96405431D01*
X134983265Y-96405432D01*
X134796858Y-96535954D01*
X134635954Y-96696858D01*
X134505432Y-96883265D01*
X134505431Y-96883267D01*
X134409261Y-97089502D01*
X134409258Y-97089511D01*
X134350366Y-97309302D01*
X134350364Y-97309313D01*
X134330532Y-97535998D01*
X134330532Y-97536001D01*
X134350364Y-97762686D01*
X134350366Y-97762697D01*
X134409258Y-97982488D01*
X134409261Y-97982496D01*
X134505432Y-98188734D01*
X134577796Y-98292082D01*
X134613075Y-98342465D01*
X134635402Y-98408671D01*
X134635500Y-98413588D01*
X134635500Y-99484957D01*
X134617039Y-99550053D01*
X134577189Y-99614659D01*
X134577186Y-99614666D01*
X134522001Y-99781203D01*
X134522001Y-99781204D01*
X134522000Y-99781204D01*
X134511500Y-99883983D01*
X134511500Y-101284001D01*
X134511501Y-101284018D01*
X134522000Y-101386796D01*
X134522001Y-101386799D01*
X134543441Y-101451499D01*
X134577186Y-101553334D01*
X134669288Y-101702656D01*
X134793344Y-101826712D01*
X134942666Y-101918814D01*
X135109203Y-101973999D01*
X135211991Y-101984500D01*
X135962008Y-101984499D01*
X135962016Y-101984498D01*
X135962019Y-101984498D01*
X136018302Y-101978748D01*
X136064797Y-101973999D01*
X136231334Y-101918814D01*
X136380656Y-101826712D01*
X136504712Y-101702656D01*
X136596814Y-101553334D01*
X136651999Y-101386797D01*
X136662500Y-101284009D01*
X136662499Y-99883992D01*
X136651999Y-99781203D01*
X136642794Y-99753423D01*
X136636500Y-99714419D01*
X136636500Y-98413588D01*
X136656185Y-98346549D01*
X136658925Y-98342465D01*
X136766568Y-98188734D01*
X136862739Y-97982496D01*
X136921635Y-97762692D01*
X136941468Y-97536000D01*
X136921635Y-97309308D01*
X136862739Y-97089504D01*
X136766568Y-96883266D01*
X136636047Y-96696861D01*
X136636045Y-96696858D01*
X136475141Y-96535954D01*
X136288734Y-96405432D01*
X136288728Y-96405429D01*
X136230882Y-96378455D01*
X136230724Y-96378381D01*
X136178285Y-96332210D01*
X136159133Y-96265017D01*
X136179348Y-96198135D01*
X136230725Y-96153618D01*
X136288734Y-96126568D01*
X136475139Y-95996047D01*
X136636047Y-95835139D01*
X136766568Y-95648734D01*
X136862739Y-95442496D01*
X136921635Y-95222692D01*
X136941468Y-94996000D01*
X136938246Y-94959181D01*
X136952011Y-94890685D01*
X136974090Y-94860697D01*
X138887426Y-92947362D01*
X138980503Y-92808063D01*
X138981772Y-92804999D01*
X139044616Y-92653282D01*
X139077300Y-92488967D01*
X139077300Y-82598051D01*
X139096985Y-82531012D01*
X139113619Y-82510370D01*
X140563824Y-81060165D01*
X140563827Y-81060162D01*
X140656904Y-80920863D01*
X140721016Y-80766081D01*
X140725500Y-80743541D01*
X140753700Y-80601767D01*
X140753700Y-78635650D01*
X140773385Y-78568611D01*
X140790019Y-78547969D01*
X141743169Y-77594819D01*
X141804492Y-77561334D01*
X141830850Y-77558500D01*
X144914568Y-77558500D01*
X144914569Y-77558499D01*
X145078882Y-77525816D01*
X145128006Y-77505468D01*
X145233663Y-77461704D01*
X145372962Y-77368627D01*
X147320227Y-75421362D01*
X147413304Y-75282063D01*
X147428947Y-75244297D01*
X147467757Y-75150602D01*
X147477414Y-75127286D01*
X147477416Y-75127282D01*
X147510100Y-74962967D01*
X147510100Y-72234851D01*
X147529785Y-72167812D01*
X147546419Y-72147170D01*
X147686770Y-72006819D01*
X147748093Y-71973334D01*
X147774451Y-71970500D01*
X154963970Y-71970500D01*
X155031009Y-71990185D01*
X155076764Y-72042989D01*
X155086708Y-72112147D01*
X155057683Y-72175703D01*
X155051651Y-72182181D01*
X154560247Y-72673584D01*
X154560245Y-72673586D01*
X154529571Y-72719497D01*
X154529569Y-72719500D01*
X154478119Y-72796498D01*
X154478112Y-72796511D01*
X154421543Y-72933082D01*
X154421540Y-72933091D01*
X154407922Y-73001554D01*
X154375536Y-73063464D01*
X154314820Y-73098038D01*
X154245051Y-73094297D01*
X154215182Y-73078936D01*
X154093834Y-72993967D01*
X154093830Y-72993965D01*
X154048253Y-72972712D01*
X153879663Y-72894097D01*
X153879659Y-72894096D01*
X153879655Y-72894094D01*
X153651413Y-72832938D01*
X153651403Y-72832936D01*
X153416001Y-72812341D01*
X153415999Y-72812341D01*
X153180596Y-72832936D01*
X153180586Y-72832938D01*
X152952344Y-72894094D01*
X152952335Y-72894098D01*
X152738171Y-72993964D01*
X152738169Y-72993965D01*
X152544597Y-73129505D01*
X152377505Y-73296597D01*
X152247575Y-73482158D01*
X152192998Y-73525783D01*
X152123500Y-73532977D01*
X152061145Y-73501454D01*
X152044425Y-73482158D01*
X151914494Y-73296597D01*
X151747402Y-73129506D01*
X151747395Y-73129501D01*
X151733823Y-73119998D01*
X151675181Y-73078936D01*
X151553834Y-72993967D01*
X151553830Y-72993965D01*
X151508253Y-72972712D01*
X151339663Y-72894097D01*
X151339659Y-72894096D01*
X151339655Y-72894094D01*
X151111413Y-72832938D01*
X151111403Y-72832936D01*
X150876001Y-72812341D01*
X150875999Y-72812341D01*
X150640596Y-72832936D01*
X150640586Y-72832938D01*
X150412344Y-72894094D01*
X150412335Y-72894098D01*
X150198171Y-72993964D01*
X150198169Y-72993965D01*
X150004597Y-73129505D01*
X149837505Y-73296597D01*
X149701965Y-73490169D01*
X149701964Y-73490171D01*
X149602098Y-73704335D01*
X149602094Y-73704344D01*
X149540938Y-73932586D01*
X149540936Y-73932596D01*
X149520341Y-74167999D01*
X149520341Y-74168000D01*
X149540936Y-74403403D01*
X149540938Y-74403413D01*
X149602094Y-74631655D01*
X149602096Y-74631659D01*
X149602097Y-74631663D01*
X149692019Y-74824500D01*
X149701965Y-74845830D01*
X149701967Y-74845834D01*
X149783985Y-74962967D01*
X149837505Y-75039401D01*
X150004599Y-75206495D01*
X150029492Y-75223925D01*
X150073116Y-75278502D01*
X150080309Y-75348001D01*
X150048787Y-75410355D01*
X149988557Y-75445769D01*
X149958368Y-75449500D01*
X149481278Y-75449500D01*
X149477774Y-75450197D01*
X149429419Y-75450196D01*
X149425918Y-75449500D01*
X149425917Y-75449500D01*
X149278083Y-75449500D01*
X149278081Y-75449500D01*
X149133093Y-75478340D01*
X149133087Y-75478342D01*
X148996509Y-75534914D01*
X148996502Y-75534918D01*
X148934418Y-75576400D01*
X148873584Y-75617048D01*
X148873582Y-75617049D01*
X148873579Y-75617052D01*
X148873578Y-75617052D01*
X144763431Y-79727199D01*
X144702108Y-79760684D01*
X144632416Y-79755700D01*
X144576483Y-79713828D01*
X144552222Y-79650327D01*
X144541635Y-79529308D01*
X144482739Y-79309504D01*
X144386568Y-79103266D01*
X144256047Y-78916861D01*
X144256045Y-78916858D01*
X144095141Y-78755954D01*
X143908734Y-78625432D01*
X143908732Y-78625431D01*
X143702497Y-78529261D01*
X143702488Y-78529258D01*
X143482697Y-78470366D01*
X143482693Y-78470365D01*
X143482692Y-78470365D01*
X143482691Y-78470364D01*
X143482686Y-78470364D01*
X143256002Y-78450532D01*
X143255998Y-78450532D01*
X143029313Y-78470364D01*
X143029302Y-78470366D01*
X142809511Y-78529258D01*
X142809502Y-78529261D01*
X142603267Y-78625431D01*
X142603265Y-78625432D01*
X142416858Y-78755954D01*
X142255954Y-78916858D01*
X142125432Y-79103265D01*
X142125431Y-79103267D01*
X142029261Y-79309502D01*
X142029258Y-79309511D01*
X141970366Y-79529302D01*
X141970364Y-79529313D01*
X141950532Y-79755998D01*
X141950532Y-79756001D01*
X141970364Y-79982686D01*
X141970366Y-79982697D01*
X142029258Y-80202488D01*
X142029261Y-80202497D01*
X142125431Y-80408732D01*
X142125432Y-80408734D01*
X142255954Y-80595141D01*
X142416858Y-80756045D01*
X142416861Y-80756047D01*
X142603266Y-80886568D01*
X142661275Y-80913618D01*
X142713714Y-80959791D01*
X142732866Y-81026984D01*
X142712650Y-81093865D01*
X142661275Y-81138382D01*
X142603267Y-81165431D01*
X142603265Y-81165432D01*
X142416858Y-81295954D01*
X142255954Y-81456858D01*
X142125432Y-81643265D01*
X142125431Y-81643267D01*
X142029261Y-81849502D01*
X142029258Y-81849511D01*
X141970366Y-82069302D01*
X141970364Y-82069313D01*
X141950532Y-82295998D01*
X141950532Y-82296001D01*
X141970364Y-82522686D01*
X141970366Y-82522697D01*
X142029258Y-82742488D01*
X142029261Y-82742497D01*
X142125431Y-82948732D01*
X142125432Y-82948734D01*
X142255954Y-83135141D01*
X142416858Y-83296045D01*
X142416861Y-83296047D01*
X142603266Y-83426568D01*
X142661275Y-83453618D01*
X142713714Y-83499791D01*
X142732866Y-83566984D01*
X142712650Y-83633865D01*
X142661275Y-83678382D01*
X142603267Y-83705431D01*
X142603265Y-83705432D01*
X142416858Y-83835954D01*
X142255954Y-83996858D01*
X142125432Y-84183265D01*
X142125431Y-84183267D01*
X142029261Y-84389502D01*
X142029258Y-84389511D01*
X141970366Y-84609302D01*
X141970364Y-84609313D01*
X141950532Y-84835998D01*
X141950532Y-84836001D01*
X141970364Y-85062686D01*
X141970366Y-85062697D01*
X142029258Y-85282488D01*
X142029261Y-85282497D01*
X142125431Y-85488732D01*
X142125432Y-85488734D01*
X142255954Y-85675141D01*
X142416858Y-85836045D01*
X142416861Y-85836047D01*
X142603266Y-85966568D01*
X142809504Y-86062739D01*
X143029308Y-86121635D01*
X143191230Y-86135801D01*
X143255998Y-86141468D01*
X143256000Y-86141468D01*
X143256002Y-86141468D01*
X143312673Y-86136509D01*
X143482692Y-86121635D01*
X143702496Y-86062739D01*
X143908734Y-85966568D01*
X144095139Y-85836047D01*
X144256047Y-85675139D01*
X144386568Y-85488734D01*
X144482739Y-85282496D01*
X144541635Y-85062692D01*
X144561468Y-84836000D01*
X144561177Y-84832679D01*
X144553660Y-84746754D01*
X144541635Y-84609308D01*
X144482739Y-84389504D01*
X144386568Y-84183266D01*
X144256047Y-83996861D01*
X144256045Y-83996858D01*
X144095141Y-83835954D01*
X143908734Y-83705432D01*
X143908728Y-83705429D01*
X143850725Y-83678382D01*
X143798285Y-83632210D01*
X143779133Y-83565017D01*
X143799348Y-83498135D01*
X143850725Y-83453618D01*
X143908734Y-83426568D01*
X144095139Y-83296047D01*
X144256047Y-83135139D01*
X144386568Y-82948734D01*
X144482739Y-82742496D01*
X144541635Y-82522692D01*
X144561468Y-82296000D01*
X144546869Y-82129137D01*
X144560635Y-82060639D01*
X144582710Y-82030656D01*
X144732221Y-81881145D01*
X144793542Y-81847663D01*
X144863234Y-81852647D01*
X144919167Y-81894519D01*
X144943584Y-81959983D01*
X144943900Y-81968829D01*
X144943900Y-92195370D01*
X144924215Y-92262409D01*
X144907585Y-92283046D01*
X144827643Y-92362989D01*
X144763431Y-92427201D01*
X144702108Y-92460685D01*
X144632416Y-92455701D01*
X144576483Y-92413829D01*
X144552222Y-92350328D01*
X144541635Y-92229308D01*
X144482739Y-92009504D01*
X144386568Y-91803266D01*
X144256047Y-91616861D01*
X144256045Y-91616858D01*
X144095141Y-91455954D01*
X143908734Y-91325432D01*
X143908732Y-91325431D01*
X143702497Y-91229261D01*
X143702488Y-91229258D01*
X143482697Y-91170366D01*
X143482693Y-91170365D01*
X143482692Y-91170365D01*
X143482691Y-91170364D01*
X143482686Y-91170364D01*
X143256002Y-91150532D01*
X143255998Y-91150532D01*
X143029313Y-91170364D01*
X143029302Y-91170366D01*
X142809511Y-91229258D01*
X142809502Y-91229261D01*
X142603267Y-91325431D01*
X142603265Y-91325432D01*
X142416858Y-91455954D01*
X142255954Y-91616858D01*
X142125432Y-91803265D01*
X142125431Y-91803267D01*
X142029261Y-92009502D01*
X142029258Y-92009511D01*
X141970366Y-92229302D01*
X141970364Y-92229313D01*
X141950532Y-92455998D01*
X141950532Y-92456001D01*
X141970364Y-92682686D01*
X141970366Y-92682697D01*
X142029258Y-92902488D01*
X142029261Y-92902497D01*
X142125431Y-93108732D01*
X142125432Y-93108734D01*
X142255954Y-93295141D01*
X142416858Y-93456045D01*
X142430978Y-93465932D01*
X142603266Y-93586568D01*
X142645914Y-93606455D01*
X142661275Y-93613618D01*
X142713714Y-93659791D01*
X142732866Y-93726984D01*
X142712650Y-93793865D01*
X142661275Y-93838382D01*
X142603267Y-93865431D01*
X142603265Y-93865432D01*
X142416858Y-93995954D01*
X142255954Y-94156858D01*
X142125432Y-94343265D01*
X142125431Y-94343267D01*
X142029261Y-94549502D01*
X142029258Y-94549511D01*
X141970366Y-94769302D01*
X141970364Y-94769313D01*
X141950532Y-94995998D01*
X141950532Y-94996001D01*
X141970364Y-95222686D01*
X141970366Y-95222697D01*
X142029258Y-95442488D01*
X142029261Y-95442497D01*
X142125431Y-95648732D01*
X142125432Y-95648734D01*
X142255954Y-95835141D01*
X142416858Y-95996045D01*
X142441462Y-96013273D01*
X142485087Y-96067849D01*
X142492281Y-96137348D01*
X142460758Y-96199703D01*
X142400529Y-96235117D01*
X142383593Y-96238138D01*
X142348516Y-96241908D01*
X142213671Y-96292202D01*
X142213664Y-96292206D01*
X142098455Y-96378452D01*
X142098454Y-96378454D01*
X142012206Y-96493664D01*
X142012202Y-96493671D01*
X141961908Y-96628517D01*
X141955501Y-96688116D01*
X141955500Y-96688135D01*
X141955500Y-98383870D01*
X141955501Y-98383876D01*
X141961908Y-98443483D01*
X142012202Y-98578328D01*
X142012206Y-98578335D01*
X142098452Y-98693544D01*
X142098455Y-98693547D01*
X142213664Y-98779793D01*
X142213671Y-98779797D01*
X142348517Y-98830091D01*
X142348516Y-98830091D01*
X142355444Y-98830835D01*
X142408127Y-98836500D01*
X144103872Y-98836499D01*
X144163483Y-98830091D01*
X144298331Y-98779796D01*
X144413546Y-98693546D01*
X144499796Y-98578331D01*
X144550091Y-98443483D01*
X144556500Y-98383873D01*
X144556499Y-97348228D01*
X144576183Y-97281190D01*
X144592813Y-97260553D01*
X147148979Y-94704386D01*
X147210300Y-94670903D01*
X147279992Y-94675887D01*
X147335925Y-94717759D01*
X147360342Y-94783223D01*
X147360342Y-94800915D01*
X147346390Y-94995998D01*
X147346390Y-94996001D01*
X147366804Y-95281433D01*
X147427628Y-95561037D01*
X147427630Y-95561043D01*
X147427631Y-95561046D01*
X147477978Y-95696030D01*
X147527635Y-95829166D01*
X147664770Y-96080309D01*
X147664775Y-96080317D01*
X147836254Y-96309387D01*
X147836270Y-96309405D01*
X148000684Y-96473819D01*
X148034169Y-96535142D01*
X148029185Y-96604834D01*
X147987313Y-96660767D01*
X147921849Y-96685184D01*
X147913003Y-96685500D01*
X147236228Y-96685500D01*
X147071925Y-96718182D01*
X147071917Y-96718184D01*
X146917139Y-96782295D01*
X146777837Y-96875373D01*
X146777834Y-96875376D01*
X143103375Y-100549834D01*
X143103372Y-100549838D01*
X143010299Y-100689130D01*
X143010292Y-100689143D01*
X142981040Y-100759767D01*
X142946185Y-100843913D01*
X142946182Y-100843925D01*
X142913500Y-101008228D01*
X142913500Y-104071270D01*
X142893815Y-104138309D01*
X142877181Y-104158951D01*
X142858789Y-104177342D01*
X142766687Y-104326663D01*
X142766686Y-104326666D01*
X142711501Y-104493203D01*
X142711501Y-104493204D01*
X142711500Y-104493204D01*
X142701000Y-104595983D01*
X142701000Y-105946001D01*
X142701001Y-105946018D01*
X142711500Y-106048796D01*
X142711501Y-106048799D01*
X142735592Y-106121500D01*
X142766686Y-106215334D01*
X142858788Y-106364656D01*
X142982844Y-106488712D01*
X143132166Y-106580814D01*
X143298703Y-106635999D01*
X143401491Y-106646500D01*
X144126508Y-106646499D01*
X144126516Y-106646498D01*
X144126519Y-106646498D01*
X144182802Y-106640748D01*
X144229297Y-106635999D01*
X144395834Y-106580814D01*
X144545156Y-106488712D01*
X144669212Y-106364656D01*
X144761314Y-106215334D01*
X144816499Y-106048797D01*
X144827000Y-105946009D01*
X144826999Y-104595992D01*
X144826998Y-104595983D01*
X145626000Y-104595983D01*
X145626000Y-105946001D01*
X145626001Y-105946018D01*
X145636500Y-106048796D01*
X145636501Y-106048799D01*
X145660592Y-106121500D01*
X145691686Y-106215334D01*
X145783788Y-106364656D01*
X145907844Y-106488712D01*
X146057166Y-106580814D01*
X146223703Y-106635999D01*
X146326491Y-106646500D01*
X147051508Y-106646499D01*
X147051516Y-106646498D01*
X147051519Y-106646498D01*
X147107802Y-106640748D01*
X147154297Y-106635999D01*
X147320834Y-106580814D01*
X147470156Y-106488712D01*
X147594212Y-106364656D01*
X147686314Y-106215334D01*
X147686316Y-106215327D01*
X147689366Y-106208789D01*
X147692076Y-106210053D01*
X147724115Y-106163730D01*
X147788617Y-106136874D01*
X147857399Y-106149154D01*
X147889778Y-106172458D01*
X147918679Y-106201359D01*
X148093201Y-106328157D01*
X148285411Y-106426092D01*
X148490574Y-106492754D01*
X148570473Y-106505408D01*
X148703634Y-106526500D01*
X148703639Y-106526500D01*
X149369366Y-106526500D01*
X149487730Y-106507752D01*
X149582426Y-106492754D01*
X149787589Y-106426092D01*
X149979799Y-106328157D01*
X150154321Y-106201359D01*
X150306859Y-106048821D01*
X150433657Y-105874299D01*
X150531592Y-105682089D01*
X150598254Y-105476926D01*
X150613252Y-105382230D01*
X150632000Y-105263866D01*
X150632000Y-105048133D01*
X150598254Y-104835077D01*
X150598254Y-104835074D01*
X150531592Y-104629911D01*
X150433657Y-104437701D01*
X150306859Y-104263179D01*
X150154321Y-104110641D01*
X149983204Y-103986317D01*
X149940540Y-103930988D01*
X149934561Y-103861374D01*
X149967167Y-103799580D01*
X149983202Y-103785684D01*
X150154321Y-103661359D01*
X150306859Y-103508821D01*
X150433657Y-103334299D01*
X150531592Y-103142089D01*
X150598254Y-102936926D01*
X150613252Y-102842230D01*
X150632000Y-102723866D01*
X150632000Y-102508133D01*
X150598254Y-102295077D01*
X150598254Y-102295074D01*
X150531592Y-102089911D01*
X150433657Y-101897701D01*
X150306859Y-101723179D01*
X150154321Y-101570641D01*
X149979799Y-101443843D01*
X149979798Y-101443842D01*
X149979796Y-101443841D01*
X149954702Y-101431054D01*
X149903907Y-101383078D01*
X149887000Y-101320571D01*
X149887000Y-101180846D01*
X149905460Y-101115750D01*
X149964314Y-101020334D01*
X150019499Y-100853797D01*
X150030000Y-100751009D01*
X150029999Y-99400992D01*
X150019499Y-99298203D01*
X149964314Y-99131666D01*
X149872212Y-98982344D01*
X149748156Y-98858288D01*
X149620901Y-98779797D01*
X149598836Y-98766187D01*
X149598831Y-98766185D01*
X149597362Y-98765698D01*
X149432297Y-98711001D01*
X149432295Y-98711000D01*
X149329510Y-98700500D01*
X148604498Y-98700500D01*
X148604480Y-98700501D01*
X148501703Y-98711000D01*
X148501700Y-98711001D01*
X148335168Y-98766185D01*
X148335163Y-98766187D01*
X148185842Y-98858289D01*
X148061789Y-98982342D01*
X147969687Y-99131663D01*
X147969686Y-99131666D01*
X147914501Y-99298203D01*
X147914501Y-99298204D01*
X147914500Y-99298204D01*
X147904000Y-99400983D01*
X147904000Y-100751001D01*
X147904001Y-100751018D01*
X147914500Y-100853796D01*
X147914501Y-100853799D01*
X147965674Y-101008228D01*
X147969686Y-101020334D01*
X148061788Y-101169656D01*
X148133346Y-101241214D01*
X148166830Y-101302538D01*
X148161845Y-101372229D01*
X148119974Y-101428163D01*
X148101964Y-101439377D01*
X148093203Y-101443841D01*
X148021895Y-101495650D01*
X147918679Y-101570641D01*
X147918677Y-101570643D01*
X147918676Y-101570643D01*
X147766143Y-101723176D01*
X147766143Y-101723177D01*
X147766141Y-101723179D01*
X147749695Y-101745815D01*
X147639343Y-101897700D01*
X147541409Y-102089908D01*
X147474745Y-102295077D01*
X147441000Y-102508133D01*
X147441000Y-102723866D01*
X147466893Y-102887344D01*
X147474746Y-102936926D01*
X147541408Y-103142089D01*
X147639343Y-103334299D01*
X147766141Y-103508821D01*
X147918679Y-103661359D01*
X148039954Y-103749471D01*
X148089794Y-103785682D01*
X148132459Y-103841012D01*
X148138438Y-103910626D01*
X148105832Y-103972421D01*
X148089794Y-103986318D01*
X147918680Y-104110640D01*
X147803439Y-104225881D01*
X147742116Y-104259365D01*
X147672424Y-104254381D01*
X147616491Y-104212509D01*
X147610220Y-104203296D01*
X147594214Y-104177347D01*
X147594211Y-104177343D01*
X147470157Y-104053289D01*
X147470156Y-104053288D01*
X147320834Y-103961186D01*
X147154297Y-103906001D01*
X147154295Y-103906000D01*
X147051510Y-103895500D01*
X146326498Y-103895500D01*
X146326480Y-103895501D01*
X146223703Y-103906000D01*
X146223700Y-103906001D01*
X146057168Y-103961185D01*
X146057163Y-103961187D01*
X145907842Y-104053289D01*
X145783789Y-104177342D01*
X145691687Y-104326663D01*
X145691686Y-104326666D01*
X145636501Y-104493203D01*
X145636501Y-104493204D01*
X145636500Y-104493204D01*
X145626000Y-104595983D01*
X144826998Y-104595983D01*
X144816499Y-104493203D01*
X144761314Y-104326666D01*
X144669212Y-104177344D01*
X144650819Y-104158951D01*
X144617334Y-104097628D01*
X144614500Y-104071270D01*
X144614500Y-101495650D01*
X144634185Y-101428611D01*
X144650819Y-101407969D01*
X147635969Y-98422819D01*
X147697292Y-98389334D01*
X147723650Y-98386500D01*
X152079348Y-98386500D01*
X152146387Y-98406185D01*
X152192142Y-98458989D01*
X152202086Y-98528147D01*
X152173061Y-98591703D01*
X152167037Y-98598172D01*
X152129993Y-98635217D01*
X152101028Y-98664182D01*
X152039704Y-98697666D01*
X152013347Y-98700500D01*
X151529498Y-98700500D01*
X151529480Y-98700501D01*
X151426703Y-98711000D01*
X151426700Y-98711001D01*
X151260168Y-98766185D01*
X151260163Y-98766187D01*
X151110842Y-98858289D01*
X150986789Y-98982342D01*
X150894687Y-99131663D01*
X150894686Y-99131666D01*
X150839501Y-99298203D01*
X150839501Y-99298204D01*
X150839500Y-99298204D01*
X150829000Y-99400983D01*
X150829000Y-100751001D01*
X150829001Y-100751018D01*
X150839500Y-100853796D01*
X150839501Y-100853799D01*
X150890674Y-101008228D01*
X150894686Y-101020334D01*
X150986788Y-101169656D01*
X151110844Y-101293712D01*
X151260166Y-101385814D01*
X151426703Y-101440999D01*
X151529491Y-101451500D01*
X152254508Y-101451499D01*
X152254516Y-101451498D01*
X152254519Y-101451498D01*
X152310802Y-101445748D01*
X152357297Y-101440999D01*
X152523834Y-101385814D01*
X152673156Y-101293712D01*
X152797212Y-101169656D01*
X152889314Y-101020334D01*
X152944499Y-100853797D01*
X152955000Y-100751009D01*
X152954999Y-100267150D01*
X152974683Y-100200112D01*
X152991318Y-100179470D01*
X153223970Y-99946819D01*
X153285293Y-99913334D01*
X153311651Y-99910500D01*
X156547768Y-99910500D01*
X156547769Y-99910499D01*
X156602538Y-99899605D01*
X156712074Y-99877818D01*
X156712078Y-99877816D01*
X156712082Y-99877816D01*
X156757415Y-99859037D01*
X156866863Y-99813704D01*
X157006162Y-99720627D01*
X157209590Y-99517199D01*
X159117985Y-99517199D01*
X159117985Y-99517200D01*
X159136802Y-99720282D01*
X159192617Y-99916447D01*
X159192622Y-99916460D01*
X159221473Y-99974400D01*
X159283527Y-100099021D01*
X159398454Y-100251210D01*
X159423146Y-100316569D01*
X159423500Y-100325935D01*
X159423500Y-104477771D01*
X159456181Y-104642073D01*
X159456184Y-104642082D01*
X159520296Y-104796863D01*
X159520297Y-104796866D01*
X159613372Y-104936161D01*
X159613375Y-104936165D01*
X160493834Y-105816624D01*
X160493838Y-105816627D01*
X160633137Y-105909704D01*
X160633139Y-105909705D01*
X160633143Y-105909707D01*
X160715222Y-105943703D01*
X160742584Y-105955037D01*
X160787918Y-105973816D01*
X160952228Y-106006499D01*
X160952232Y-106006500D01*
X160952233Y-106006500D01*
X161811331Y-106006500D01*
X161878370Y-106026185D01*
X161900806Y-106045765D01*
X161901196Y-106045376D01*
X161904641Y-106048821D01*
X162057179Y-106201359D01*
X162178454Y-106289471D01*
X162228294Y-106325682D01*
X162270959Y-106381012D01*
X162276938Y-106450626D01*
X162244332Y-106512421D01*
X162228294Y-106526318D01*
X162057179Y-106650641D01*
X162057177Y-106650643D01*
X162057176Y-106650643D01*
X161904643Y-106803176D01*
X161904643Y-106803177D01*
X161904641Y-106803179D01*
X161859459Y-106865367D01*
X161777843Y-106977700D01*
X161679909Y-107169908D01*
X161613245Y-107375077D01*
X161579500Y-107588133D01*
X161579500Y-107803866D01*
X161613245Y-108016922D01*
X161613246Y-108016926D01*
X161679908Y-108222089D01*
X161777843Y-108414299D01*
X161904641Y-108588821D01*
X162057179Y-108741359D01*
X162231701Y-108868157D01*
X162423911Y-108966092D01*
X162629074Y-109032754D01*
X162708973Y-109045408D01*
X162842134Y-109066500D01*
X162842139Y-109066500D01*
X163507866Y-109066500D01*
X163626230Y-109047752D01*
X163720926Y-109032754D01*
X163926089Y-108966092D01*
X164118299Y-108868157D01*
X164292821Y-108741359D01*
X164445359Y-108588821D01*
X164445359Y-108588820D01*
X164448804Y-108585376D01*
X164449834Y-108586406D01*
X164502889Y-108551774D01*
X164538669Y-108546500D01*
X164878968Y-108546500D01*
X164878969Y-108546499D01*
X164933738Y-108535605D01*
X165043274Y-108513818D01*
X165043278Y-108513816D01*
X165043282Y-108513816D01*
X165088615Y-108495037D01*
X165198063Y-108449704D01*
X165337362Y-108356627D01*
X166370227Y-107323762D01*
X166463304Y-107184463D01*
X166527416Y-107029681D01*
X166527416Y-107029678D01*
X166527418Y-107029674D01*
X166537756Y-106977701D01*
X166560099Y-106865371D01*
X166560100Y-106865368D01*
X166560100Y-102508133D01*
X170108500Y-102508133D01*
X170108500Y-102723866D01*
X170134393Y-102887344D01*
X170142246Y-102936926D01*
X170208908Y-103142089D01*
X170306843Y-103334299D01*
X170433641Y-103508821D01*
X170586179Y-103661359D01*
X170707454Y-103749471D01*
X170757294Y-103785682D01*
X170799959Y-103841012D01*
X170805938Y-103910626D01*
X170773332Y-103972421D01*
X170757294Y-103986318D01*
X170586179Y-104110641D01*
X170586177Y-104110643D01*
X170586176Y-104110643D01*
X170433643Y-104263176D01*
X170433643Y-104263177D01*
X170433641Y-104263179D01*
X170417195Y-104285815D01*
X170306843Y-104437700D01*
X170208909Y-104629908D01*
X170142245Y-104835077D01*
X170108500Y-105048133D01*
X170108500Y-105263866D01*
X170142245Y-105476922D01*
X170142246Y-105476926D01*
X170208908Y-105682089D01*
X170306843Y-105874299D01*
X170433641Y-106048821D01*
X170586179Y-106201359D01*
X170707454Y-106289471D01*
X170757294Y-106325682D01*
X170799959Y-106381012D01*
X170805938Y-106450626D01*
X170773332Y-106512421D01*
X170757294Y-106526318D01*
X170586179Y-106650641D01*
X170586177Y-106650643D01*
X170586176Y-106650643D01*
X170433643Y-106803176D01*
X170433643Y-106803177D01*
X170433641Y-106803179D01*
X170388459Y-106865367D01*
X170306843Y-106977700D01*
X170208909Y-107169908D01*
X170142245Y-107375077D01*
X170108500Y-107588133D01*
X170108500Y-107803866D01*
X170142245Y-108016922D01*
X170142246Y-108016926D01*
X170208908Y-108222089D01*
X170306843Y-108414299D01*
X170433641Y-108588821D01*
X170586179Y-108741359D01*
X170760701Y-108868157D01*
X170952911Y-108966092D01*
X171158074Y-109032754D01*
X171237973Y-109045408D01*
X171371134Y-109066500D01*
X171371139Y-109066500D01*
X172036866Y-109066500D01*
X172155230Y-109047752D01*
X172249926Y-109032754D01*
X172455089Y-108966092D01*
X172647299Y-108868157D01*
X172821821Y-108741359D01*
X172974359Y-108588821D01*
X173101157Y-108414299D01*
X173199092Y-108222089D01*
X173265754Y-108016926D01*
X173280752Y-107922230D01*
X173299500Y-107803866D01*
X173299500Y-107588133D01*
X173265754Y-107375077D01*
X173265754Y-107375074D01*
X173199092Y-107169911D01*
X173101157Y-106977701D01*
X172974359Y-106803179D01*
X172821821Y-106650641D01*
X172650704Y-106526317D01*
X172608040Y-106470988D01*
X172602061Y-106401374D01*
X172634667Y-106339580D01*
X172650702Y-106325684D01*
X172821821Y-106201359D01*
X172974359Y-106048821D01*
X173101157Y-105874299D01*
X173199092Y-105682089D01*
X173265754Y-105476926D01*
X173280752Y-105382230D01*
X173299500Y-105263866D01*
X173299500Y-105048133D01*
X173265754Y-104835077D01*
X173265754Y-104835074D01*
X173199092Y-104629911D01*
X173101157Y-104437701D01*
X172974359Y-104263179D01*
X172821821Y-104110641D01*
X172650704Y-103986317D01*
X172608040Y-103930988D01*
X172602061Y-103861374D01*
X172634667Y-103799580D01*
X172650702Y-103785684D01*
X172821821Y-103661359D01*
X172974359Y-103508821D01*
X173101157Y-103334299D01*
X173199092Y-103142089D01*
X173265754Y-102936926D01*
X173280752Y-102842230D01*
X173299500Y-102723866D01*
X173299500Y-102508133D01*
X178744500Y-102508133D01*
X178744500Y-102723866D01*
X178770393Y-102887344D01*
X178778246Y-102936926D01*
X178844908Y-103142089D01*
X178942843Y-103334299D01*
X179069641Y-103508821D01*
X179222179Y-103661359D01*
X179343454Y-103749471D01*
X179393294Y-103785682D01*
X179435959Y-103841012D01*
X179441938Y-103910626D01*
X179409332Y-103972421D01*
X179393294Y-103986318D01*
X179222179Y-104110641D01*
X179222177Y-104110643D01*
X179222176Y-104110643D01*
X179069643Y-104263176D01*
X179069643Y-104263177D01*
X179069641Y-104263179D01*
X179053195Y-104285815D01*
X178942843Y-104437700D01*
X178844909Y-104629908D01*
X178778245Y-104835077D01*
X178744500Y-105048133D01*
X178744500Y-105263866D01*
X178778245Y-105476922D01*
X178778246Y-105476926D01*
X178844908Y-105682089D01*
X178942843Y-105874299D01*
X179069641Y-106048821D01*
X179222179Y-106201359D01*
X179343454Y-106289471D01*
X179393294Y-106325682D01*
X179435959Y-106381012D01*
X179441938Y-106450626D01*
X179409332Y-106512421D01*
X179393294Y-106526318D01*
X179222179Y-106650641D01*
X179222177Y-106650643D01*
X179222176Y-106650643D01*
X179069643Y-106803176D01*
X179069643Y-106803177D01*
X179069641Y-106803179D01*
X179024459Y-106865367D01*
X178942843Y-106977700D01*
X178844909Y-107169908D01*
X178778245Y-107375077D01*
X178744500Y-107588133D01*
X178744500Y-107803866D01*
X178778245Y-108016922D01*
X178778246Y-108016926D01*
X178844908Y-108222089D01*
X178942843Y-108414299D01*
X179069641Y-108588821D01*
X179222179Y-108741359D01*
X179396701Y-108868157D01*
X179588911Y-108966092D01*
X179794074Y-109032754D01*
X179873973Y-109045408D01*
X180007134Y-109066500D01*
X180007139Y-109066500D01*
X180672866Y-109066500D01*
X180791230Y-109047752D01*
X180885926Y-109032754D01*
X181091089Y-108966092D01*
X181283299Y-108868157D01*
X181457821Y-108741359D01*
X181610359Y-108588821D01*
X181737157Y-108414299D01*
X181835092Y-108222089D01*
X181901754Y-108016926D01*
X181916752Y-107922230D01*
X181935500Y-107803866D01*
X181935500Y-107588133D01*
X181901754Y-107375077D01*
X181901754Y-107375074D01*
X181835092Y-107169911D01*
X181737157Y-106977701D01*
X181610359Y-106803179D01*
X181457821Y-106650641D01*
X181286704Y-106526317D01*
X181244040Y-106470988D01*
X181238061Y-106401374D01*
X181270667Y-106339580D01*
X181286702Y-106325684D01*
X181457821Y-106201359D01*
X181610359Y-106048821D01*
X181737157Y-105874299D01*
X181835092Y-105682089D01*
X181901754Y-105476926D01*
X181916752Y-105382230D01*
X181935500Y-105263866D01*
X181935500Y-105048133D01*
X181901754Y-104835077D01*
X181901754Y-104835074D01*
X181835092Y-104629911D01*
X181737157Y-104437701D01*
X181610359Y-104263179D01*
X181457821Y-104110641D01*
X181286704Y-103986317D01*
X181244040Y-103930988D01*
X181238061Y-103861374D01*
X181270667Y-103799580D01*
X181286702Y-103785684D01*
X181457821Y-103661359D01*
X181610359Y-103508821D01*
X181610359Y-103508820D01*
X181613804Y-103505376D01*
X181614834Y-103506406D01*
X181667889Y-103471774D01*
X181703669Y-103466500D01*
X182371500Y-103466500D01*
X182438539Y-103486185D01*
X182484294Y-103538989D01*
X182495500Y-103590500D01*
X182495500Y-104056001D01*
X182495501Y-104056019D01*
X182506000Y-104158796D01*
X182506001Y-104158799D01*
X182561185Y-104325331D01*
X182561187Y-104325336D01*
X182562009Y-104326668D01*
X182653288Y-104474656D01*
X182777344Y-104598712D01*
X182926666Y-104690814D01*
X183093203Y-104745999D01*
X183195991Y-104756500D01*
X184596008Y-104756499D01*
X184698797Y-104745999D01*
X184865334Y-104690814D01*
X185014656Y-104598712D01*
X185138712Y-104474656D01*
X185230814Y-104325334D01*
X185285999Y-104158797D01*
X185296500Y-104056009D01*
X185296499Y-103305992D01*
X185285999Y-103203203D01*
X185230814Y-103036666D01*
X185138712Y-102887344D01*
X185014656Y-102763288D01*
X184865334Y-102671186D01*
X184698797Y-102616001D01*
X184698795Y-102616000D01*
X184596016Y-102605500D01*
X184596009Y-102605500D01*
X184074650Y-102605500D01*
X184007611Y-102585815D01*
X183986969Y-102569181D01*
X183373165Y-101955375D01*
X183373161Y-101955372D01*
X183233866Y-101862297D01*
X183233863Y-101862296D01*
X183124416Y-101816962D01*
X183124414Y-101816961D01*
X183079086Y-101798185D01*
X183079074Y-101798182D01*
X182914771Y-101765500D01*
X182914767Y-101765500D01*
X181703669Y-101765500D01*
X181636630Y-101745815D01*
X181614193Y-101726234D01*
X181613804Y-101726624D01*
X181457823Y-101570643D01*
X181457821Y-101570641D01*
X181283299Y-101443843D01*
X181091089Y-101345908D01*
X180885926Y-101279246D01*
X180885924Y-101279245D01*
X180885922Y-101279245D01*
X180672866Y-101245500D01*
X180672861Y-101245500D01*
X180007139Y-101245500D01*
X180007134Y-101245500D01*
X179794077Y-101279245D01*
X179588908Y-101345909D01*
X179396700Y-101443843D01*
X179325395Y-101495650D01*
X179222179Y-101570641D01*
X179222177Y-101570643D01*
X179222176Y-101570643D01*
X179069643Y-101723176D01*
X179069643Y-101723177D01*
X179069641Y-101723179D01*
X179053195Y-101745815D01*
X178942843Y-101897700D01*
X178844909Y-102089908D01*
X178778245Y-102295077D01*
X178744500Y-102508133D01*
X173299500Y-102508133D01*
X173265754Y-102295077D01*
X173265754Y-102295074D01*
X173199092Y-102089911D01*
X173101157Y-101897701D01*
X172974359Y-101723179D01*
X172821821Y-101570641D01*
X172647299Y-101443843D01*
X172455089Y-101345908D01*
X172249926Y-101279246D01*
X172249924Y-101279245D01*
X172249922Y-101279245D01*
X172036866Y-101245500D01*
X172036861Y-101245500D01*
X171371139Y-101245500D01*
X171371134Y-101245500D01*
X171158077Y-101279245D01*
X170952908Y-101345909D01*
X170760700Y-101443843D01*
X170689395Y-101495650D01*
X170586179Y-101570641D01*
X170586177Y-101570643D01*
X170586176Y-101570643D01*
X170433643Y-101723176D01*
X170433643Y-101723177D01*
X170433641Y-101723179D01*
X170417195Y-101745815D01*
X170306843Y-101897700D01*
X170208909Y-102089908D01*
X170142245Y-102295077D01*
X170108500Y-102508133D01*
X166560100Y-102508133D01*
X166560100Y-100715865D01*
X166579785Y-100648826D01*
X166585138Y-100641148D01*
X166649273Y-100556221D01*
X166740182Y-100373650D01*
X166795997Y-100177483D01*
X166814815Y-99974400D01*
X166795997Y-99771317D01*
X166740182Y-99575150D01*
X166727685Y-99550053D01*
X166653462Y-99400992D01*
X166649273Y-99392579D01*
X166526364Y-99229821D01*
X166526362Y-99229818D01*
X166375641Y-99092419D01*
X166375639Y-99092417D01*
X166202242Y-98985055D01*
X166202235Y-98985051D01*
X166074013Y-98935378D01*
X166012056Y-98911376D01*
X165811576Y-98873900D01*
X165607624Y-98873900D01*
X165407144Y-98911376D01*
X165407141Y-98911376D01*
X165407141Y-98911377D01*
X165216964Y-98985051D01*
X165216957Y-98985055D01*
X165043560Y-99092417D01*
X165043558Y-99092419D01*
X164892837Y-99229818D01*
X164769927Y-99392578D01*
X164679022Y-99575139D01*
X164679017Y-99575152D01*
X164623202Y-99771317D01*
X164604385Y-99974399D01*
X164604385Y-99974400D01*
X164623202Y-100177482D01*
X164679017Y-100373647D01*
X164679022Y-100373660D01*
X164766747Y-100549834D01*
X164769927Y-100556221D01*
X164834054Y-100641139D01*
X164858746Y-100706499D01*
X164859100Y-100715865D01*
X164859100Y-101944361D01*
X164839415Y-102011400D01*
X164786611Y-102057155D01*
X164717453Y-102067099D01*
X164653897Y-102038074D01*
X164624615Y-102000656D01*
X164595931Y-101944361D01*
X164572157Y-101897701D01*
X164445359Y-101723179D01*
X164292821Y-101570641D01*
X164118299Y-101443843D01*
X163926089Y-101345908D01*
X163720926Y-101279246D01*
X163720924Y-101279245D01*
X163720922Y-101279245D01*
X163507866Y-101245500D01*
X163507861Y-101245500D01*
X162842139Y-101245500D01*
X162842134Y-101245500D01*
X162629077Y-101279245D01*
X162423908Y-101345909D01*
X162231700Y-101443843D01*
X162160395Y-101495650D01*
X162057179Y-101570641D01*
X162057177Y-101570643D01*
X162057176Y-101570643D01*
X161904643Y-101723176D01*
X161904643Y-101723177D01*
X161904641Y-101723179D01*
X161888195Y-101745815D01*
X161777843Y-101897700D01*
X161679909Y-102089908D01*
X161613245Y-102295077D01*
X161579500Y-102508133D01*
X161579500Y-102723866D01*
X161605393Y-102887344D01*
X161613246Y-102936926D01*
X161679908Y-103142089D01*
X161777843Y-103334299D01*
X161904641Y-103508821D01*
X162057179Y-103661359D01*
X162178454Y-103749471D01*
X162228294Y-103785682D01*
X162270959Y-103841012D01*
X162276938Y-103910626D01*
X162244332Y-103972421D01*
X162228294Y-103986318D01*
X162057179Y-104110641D01*
X162057177Y-104110643D01*
X162057176Y-104110643D01*
X161901196Y-104266624D01*
X161900165Y-104265593D01*
X161847111Y-104300226D01*
X161811331Y-104305500D01*
X161439651Y-104305500D01*
X161372612Y-104285815D01*
X161351970Y-104269181D01*
X161160819Y-104078030D01*
X161127334Y-104016707D01*
X161124500Y-103990349D01*
X161124500Y-100191395D01*
X161144185Y-100124356D01*
X161149533Y-100116684D01*
X161162873Y-100099021D01*
X161253782Y-99916450D01*
X161309597Y-99720283D01*
X161328415Y-99517200D01*
X161309597Y-99314117D01*
X161253782Y-99117950D01*
X161162873Y-98935379D01*
X161045383Y-98779797D01*
X161039962Y-98772618D01*
X160889241Y-98635219D01*
X160889239Y-98635217D01*
X160715842Y-98527855D01*
X160715835Y-98527851D01*
X160620746Y-98491014D01*
X160525656Y-98454176D01*
X160325176Y-98416700D01*
X160121224Y-98416700D01*
X159920744Y-98454176D01*
X159920741Y-98454176D01*
X159920741Y-98454177D01*
X159730564Y-98527851D01*
X159730557Y-98527855D01*
X159557160Y-98635217D01*
X159557158Y-98635219D01*
X159406437Y-98772618D01*
X159283527Y-98935378D01*
X159192622Y-99117939D01*
X159192617Y-99117952D01*
X159136802Y-99314117D01*
X159117985Y-99517199D01*
X157209590Y-99517199D01*
X158140627Y-98586162D01*
X158233704Y-98446863D01*
X158297816Y-98292081D01*
X158330500Y-98127767D01*
X158330500Y-97960233D01*
X158330500Y-92480048D01*
X158350185Y-92413009D01*
X158366819Y-92392367D01*
X158432367Y-92326819D01*
X158493690Y-92293334D01*
X158520048Y-92290500D01*
X158709551Y-92290500D01*
X158776590Y-92310185D01*
X158822345Y-92362989D01*
X158827256Y-92375493D01*
X158830186Y-92384334D01*
X158922288Y-92533656D01*
X159046344Y-92657712D01*
X159195666Y-92749814D01*
X159362203Y-92804999D01*
X159464991Y-92815500D01*
X160190008Y-92815499D01*
X160190016Y-92815498D01*
X160190019Y-92815498D01*
X160262851Y-92808058D01*
X160292797Y-92804999D01*
X160459334Y-92749814D01*
X160608656Y-92657712D01*
X160732712Y-92533656D01*
X160824814Y-92384334D01*
X160879999Y-92217797D01*
X160890500Y-92115009D01*
X160890499Y-90764992D01*
X160879999Y-90662203D01*
X160824814Y-90495666D01*
X160732712Y-90346344D01*
X160644049Y-90257681D01*
X160610564Y-90196358D01*
X160615548Y-90126666D01*
X160644049Y-90082319D01*
X160668750Y-90057618D01*
X160732712Y-89993656D01*
X160824814Y-89844334D01*
X160879999Y-89677797D01*
X160890500Y-89575009D01*
X160890499Y-88224992D01*
X160879999Y-88122203D01*
X160824814Y-87955666D01*
X160732712Y-87806344D01*
X160608656Y-87682288D01*
X160515888Y-87625069D01*
X160459336Y-87590187D01*
X160459331Y-87590185D01*
X160448932Y-87586739D01*
X160292797Y-87535001D01*
X160292795Y-87535000D01*
X160190010Y-87524500D01*
X159464998Y-87524500D01*
X159464980Y-87524501D01*
X159362203Y-87535000D01*
X159362200Y-87535001D01*
X159195668Y-87590185D01*
X159195663Y-87590187D01*
X159046342Y-87682289D01*
X158922289Y-87806342D01*
X158830185Y-87955667D01*
X158827256Y-87964507D01*
X158787482Y-88021951D01*
X158722965Y-88048772D01*
X158709551Y-88049500D01*
X158520048Y-88049500D01*
X158453009Y-88029815D01*
X158432371Y-88013185D01*
X158319139Y-87899953D01*
X158319138Y-87899952D01*
X158319137Y-87899951D01*
X158132734Y-87769432D01*
X158132728Y-87769429D01*
X158105038Y-87756517D01*
X158074724Y-87742381D01*
X158022285Y-87696210D01*
X158003133Y-87629017D01*
X158023348Y-87562135D01*
X158074725Y-87517618D01*
X158132734Y-87490568D01*
X158319139Y-87360047D01*
X158480047Y-87199139D01*
X158610568Y-87012734D01*
X158706739Y-86806496D01*
X158765635Y-86586692D01*
X158785468Y-86360000D01*
X158785460Y-86359914D01*
X158774114Y-86230221D01*
X158765635Y-86133308D01*
X158706739Y-85913504D01*
X158610568Y-85707266D01*
X158480047Y-85520861D01*
X158480045Y-85520858D01*
X158319141Y-85359954D01*
X158132734Y-85229432D01*
X158132728Y-85229429D01*
X158074725Y-85202382D01*
X158022285Y-85156210D01*
X158003133Y-85089017D01*
X158023348Y-85022135D01*
X158074725Y-84977618D01*
X158132734Y-84950568D01*
X158319139Y-84820047D01*
X158480047Y-84659139D01*
X158610568Y-84472734D01*
X158616888Y-84459182D01*
X158689799Y-84302823D01*
X158706739Y-84266496D01*
X158765635Y-84046692D01*
X158785468Y-83820000D01*
X158765635Y-83593308D01*
X158720916Y-83426415D01*
X158706741Y-83373511D01*
X158706738Y-83373502D01*
X158670619Y-83296045D01*
X158610568Y-83167266D01*
X158480047Y-82980861D01*
X158480045Y-82980858D01*
X158319141Y-82819954D01*
X158132734Y-82689432D01*
X158132728Y-82689429D01*
X158074725Y-82662382D01*
X158022285Y-82616210D01*
X158003133Y-82549017D01*
X158023348Y-82482135D01*
X158074725Y-82437618D01*
X158132734Y-82410568D01*
X158319139Y-82280047D01*
X158432368Y-82166817D01*
X158493689Y-82133334D01*
X158520048Y-82130500D01*
X158709551Y-82130500D01*
X158776590Y-82150185D01*
X158822345Y-82202989D01*
X158827256Y-82215493D01*
X158828529Y-82219336D01*
X158830186Y-82224334D01*
X158922288Y-82373656D01*
X159046344Y-82497712D01*
X159195666Y-82589814D01*
X159362203Y-82644999D01*
X159464991Y-82655500D01*
X160190008Y-82655499D01*
X160190016Y-82655498D01*
X160190019Y-82655498D01*
X160246302Y-82649748D01*
X160292797Y-82644999D01*
X160459334Y-82589814D01*
X160608656Y-82497712D01*
X160732712Y-82373656D01*
X160824814Y-82224334D01*
X160879999Y-82057797D01*
X160890500Y-81955009D01*
X160890499Y-80604992D01*
X160879999Y-80502203D01*
X160824814Y-80335666D01*
X160732712Y-80186344D01*
X160608656Y-80062288D01*
X160515888Y-80005069D01*
X160459336Y-79970187D01*
X160459331Y-79970185D01*
X160385639Y-79945766D01*
X160292797Y-79915001D01*
X160292795Y-79915000D01*
X160190010Y-79904500D01*
X159464998Y-79904500D01*
X159464980Y-79904501D01*
X159362203Y-79915000D01*
X159362200Y-79915001D01*
X159195668Y-79970185D01*
X159195663Y-79970187D01*
X159046342Y-80062289D01*
X158922289Y-80186342D01*
X158830185Y-80335667D01*
X158827256Y-80344507D01*
X158787482Y-80401951D01*
X158722965Y-80428772D01*
X158709551Y-80429500D01*
X158520048Y-80429500D01*
X158453009Y-80409815D01*
X158432371Y-80393185D01*
X158319139Y-80279953D01*
X158319138Y-80279952D01*
X158319137Y-80279951D01*
X158132734Y-80149432D01*
X158132728Y-80149429D01*
X158074725Y-80122382D01*
X158022285Y-80076210D01*
X158003133Y-80009017D01*
X158023348Y-79942135D01*
X158074725Y-79897618D01*
X158132734Y-79870568D01*
X158319139Y-79740047D01*
X158480047Y-79579139D01*
X158610568Y-79392734D01*
X158706739Y-79186496D01*
X158708367Y-79180417D01*
X158740460Y-79124827D01*
X159618470Y-78246818D01*
X159679793Y-78213333D01*
X159706151Y-78210499D01*
X160190002Y-78210499D01*
X160190008Y-78210499D01*
X160292797Y-78199999D01*
X160459334Y-78144814D01*
X160608656Y-78052712D01*
X160732712Y-77928656D01*
X160824814Y-77779334D01*
X160879999Y-77612797D01*
X160890500Y-77510009D01*
X160890499Y-76159992D01*
X160879999Y-76057203D01*
X160824814Y-75890666D01*
X160732712Y-75741344D01*
X160608656Y-75617288D01*
X160459334Y-75525186D01*
X160292797Y-75470001D01*
X160292795Y-75470000D01*
X160190010Y-75459500D01*
X159464998Y-75459500D01*
X159464980Y-75459501D01*
X159362203Y-75470000D01*
X159362200Y-75470001D01*
X159195668Y-75525185D01*
X159195663Y-75525187D01*
X159046342Y-75617289D01*
X158922288Y-75741343D01*
X158922285Y-75741347D01*
X158917037Y-75749856D01*
X158865088Y-75796580D01*
X158796125Y-75807800D01*
X158732044Y-75779955D01*
X158699119Y-75737163D01*
X158610568Y-75547266D01*
X158480047Y-75360861D01*
X158480045Y-75360858D01*
X158319141Y-75199954D01*
X158132734Y-75069432D01*
X158132728Y-75069429D01*
X158105038Y-75056517D01*
X158074724Y-75042381D01*
X158022285Y-74996210D01*
X158003133Y-74929017D01*
X158023348Y-74862135D01*
X158074725Y-74817618D01*
X158132734Y-74790568D01*
X158319139Y-74660047D01*
X158480047Y-74499139D01*
X158610568Y-74312734D01*
X158706739Y-74106496D01*
X158765635Y-73886692D01*
X158785468Y-73660000D01*
X158784744Y-73651729D01*
X158773887Y-73527633D01*
X158765635Y-73433308D01*
X158740385Y-73339074D01*
X158729003Y-73296593D01*
X158730666Y-73226743D01*
X158769829Y-73168881D01*
X158834057Y-73141377D01*
X158848778Y-73140500D01*
X158856893Y-73140500D01*
X158923932Y-73160185D01*
X158940431Y-73172863D01*
X159049158Y-73271980D01*
X159049160Y-73271982D01*
X159122190Y-73317200D01*
X159222563Y-73379348D01*
X159412744Y-73453024D01*
X159613224Y-73490500D01*
X159613226Y-73490500D01*
X159817174Y-73490500D01*
X159817176Y-73490500D01*
X159888832Y-73477105D01*
X159958345Y-73484136D01*
X160013023Y-73527633D01*
X160035086Y-73587553D01*
X160051202Y-73761481D01*
X160107017Y-73957647D01*
X160107022Y-73957660D01*
X160197927Y-74140221D01*
X160320837Y-74302981D01*
X160431007Y-74403413D01*
X160468724Y-74437797D01*
X160471558Y-74440380D01*
X160471560Y-74440382D01*
X160523199Y-74472355D01*
X160644963Y-74547748D01*
X160835144Y-74621424D01*
X161035624Y-74658900D01*
X161035626Y-74658900D01*
X161239574Y-74658900D01*
X161239576Y-74658900D01*
X161440056Y-74621424D01*
X161521219Y-74589981D01*
X161583206Y-74565968D01*
X161652829Y-74560105D01*
X161714569Y-74592815D01*
X161748824Y-74653711D01*
X161752000Y-74681594D01*
X161752000Y-75880270D01*
X161745706Y-75919273D01*
X161700002Y-76057199D01*
X161700000Y-76057209D01*
X161689500Y-76159983D01*
X161689500Y-77510001D01*
X161689501Y-77510018D01*
X161700000Y-77612796D01*
X161700001Y-77612799D01*
X161725530Y-77689838D01*
X161755186Y-77779334D01*
X161847288Y-77928656D01*
X161971344Y-78052712D01*
X162120666Y-78144814D01*
X162287203Y-78199999D01*
X162389991Y-78210500D01*
X162661717Y-78210499D01*
X162728756Y-78230183D01*
X162749398Y-78246818D01*
X164605181Y-80102601D01*
X164638666Y-80163924D01*
X164641500Y-80190282D01*
X164641500Y-85984541D01*
X164641500Y-85984543D01*
X164641499Y-85984543D01*
X164679947Y-86177829D01*
X164679950Y-86177839D01*
X164755364Y-86359907D01*
X164755371Y-86359920D01*
X164864859Y-86523780D01*
X164864860Y-86523781D01*
X164864861Y-86523782D01*
X165004218Y-86663139D01*
X165004219Y-86663139D01*
X165011286Y-86670206D01*
X165011285Y-86670206D01*
X165011289Y-86670209D01*
X165986216Y-87645138D01*
X165986219Y-87645140D01*
X166027043Y-87672417D01*
X166027045Y-87672419D01*
X166027046Y-87672419D01*
X166150086Y-87754632D01*
X166241123Y-87792340D01*
X166241124Y-87792341D01*
X166274930Y-87806344D01*
X166332165Y-87830052D01*
X166493389Y-87862121D01*
X166525457Y-87868499D01*
X166525458Y-87868500D01*
X166525459Y-87868500D01*
X166525460Y-87868500D01*
X166722540Y-87868500D01*
X167887218Y-87868500D01*
X167954257Y-87888185D01*
X167974899Y-87904819D01*
X169118430Y-89048350D01*
X169151915Y-89109673D01*
X169153222Y-89116632D01*
X169165290Y-89192823D01*
X169226115Y-89380022D01*
X169226119Y-89380032D01*
X169295985Y-89517153D01*
X169309500Y-89573443D01*
X169309500Y-89600000D01*
X169309501Y-89600018D01*
X169320001Y-89702797D01*
X169320001Y-89702799D01*
X169375185Y-89869331D01*
X169375187Y-89869336D01*
X169394130Y-89900047D01*
X169467288Y-90018656D01*
X169591344Y-90142712D01*
X169740666Y-90234814D01*
X169907203Y-90289999D01*
X170009991Y-90300500D01*
X170760008Y-90300499D01*
X170760016Y-90300498D01*
X170760019Y-90300498D01*
X170841769Y-90292147D01*
X170862797Y-90289999D01*
X171029334Y-90234814D01*
X171120518Y-90178572D01*
X171136100Y-90168961D01*
X171201196Y-90150500D01*
X171900966Y-90150500D01*
X171968005Y-90170185D01*
X172013760Y-90222989D01*
X172023704Y-90292147D01*
X171994679Y-90355703D01*
X171972089Y-90376075D01*
X171880858Y-90439954D01*
X171719954Y-90600858D01*
X171589432Y-90787265D01*
X171589431Y-90787267D01*
X171493261Y-90993502D01*
X171493258Y-90993511D01*
X171434366Y-91213302D01*
X171434364Y-91213313D01*
X171414532Y-91439998D01*
X171414532Y-91440001D01*
X171434364Y-91666686D01*
X171434366Y-91666697D01*
X171493258Y-91886488D01*
X171493261Y-91886497D01*
X171589431Y-92092732D01*
X171589432Y-92092734D01*
X171719954Y-92279141D01*
X171880858Y-92440045D01*
X171880861Y-92440047D01*
X172067266Y-92570568D01*
X172273504Y-92666739D01*
X172493308Y-92725635D01*
X172655230Y-92739801D01*
X172719998Y-92745468D01*
X172720000Y-92745468D01*
X172720002Y-92745468D01*
X172776673Y-92740509D01*
X172946692Y-92725635D01*
X173166496Y-92666739D01*
X173372734Y-92570568D01*
X173559139Y-92440047D01*
X173720047Y-92279139D01*
X173850568Y-92092734D01*
X173946739Y-91886496D01*
X174005635Y-91666692D01*
X174025468Y-91440000D01*
X174005635Y-91213308D01*
X174002065Y-91199983D01*
X177064500Y-91199983D01*
X177064500Y-92990001D01*
X177064501Y-92990018D01*
X177075000Y-93092796D01*
X177075001Y-93092799D01*
X177130185Y-93259331D01*
X177130187Y-93259336D01*
X177152272Y-93295141D01*
X177222288Y-93408656D01*
X177346344Y-93532712D01*
X177495666Y-93624814D01*
X177662203Y-93679999D01*
X177764991Y-93690500D01*
X179105008Y-93690499D01*
X179207797Y-93679999D01*
X179374334Y-93624814D01*
X179523656Y-93532712D01*
X179647712Y-93408656D01*
X179739814Y-93259334D01*
X179794999Y-93092797D01*
X179805500Y-92990009D01*
X179805499Y-91762133D01*
X182144500Y-91762133D01*
X182144500Y-92427866D01*
X182154466Y-92490787D01*
X182178246Y-92640926D01*
X182244908Y-92846089D01*
X182342843Y-93038299D01*
X182469641Y-93212821D01*
X182622179Y-93365359D01*
X182796701Y-93492157D01*
X182988911Y-93590092D01*
X183194074Y-93656754D01*
X183273973Y-93669408D01*
X183407134Y-93690500D01*
X183407139Y-93690500D01*
X183622866Y-93690500D01*
X183741230Y-93671752D01*
X183835926Y-93656754D01*
X184041089Y-93590092D01*
X184233299Y-93492157D01*
X184407821Y-93365359D01*
X184560359Y-93212821D01*
X184687157Y-93038299D01*
X184785092Y-92846089D01*
X184851754Y-92640926D01*
X184875534Y-92490787D01*
X184885500Y-92427866D01*
X184885500Y-91762133D01*
X184851754Y-91549077D01*
X184851754Y-91549074D01*
X184785092Y-91343911D01*
X184687157Y-91151701D01*
X184560359Y-90977179D01*
X184407821Y-90824641D01*
X184233299Y-90697843D01*
X184042959Y-90600861D01*
X184041091Y-90599909D01*
X184041090Y-90599908D01*
X184041089Y-90599908D01*
X183835926Y-90533246D01*
X183835924Y-90533245D01*
X183835922Y-90533245D01*
X183622866Y-90499500D01*
X183622861Y-90499500D01*
X183407139Y-90499500D01*
X183407134Y-90499500D01*
X183194077Y-90533245D01*
X182988908Y-90599909D01*
X182796700Y-90697843D01*
X182704294Y-90764981D01*
X182622179Y-90824641D01*
X182622177Y-90824643D01*
X182622176Y-90824643D01*
X182469643Y-90977176D01*
X182469643Y-90977177D01*
X182469641Y-90977179D01*
X182431964Y-91029037D01*
X182342843Y-91151700D01*
X182244909Y-91343908D01*
X182178245Y-91549077D01*
X182144500Y-91762133D01*
X179805499Y-91762133D01*
X179805499Y-91199992D01*
X179802472Y-91170364D01*
X179794999Y-91097203D01*
X179794998Y-91097200D01*
X179772411Y-91029037D01*
X179739814Y-90930666D01*
X179647712Y-90781344D01*
X179587663Y-90721295D01*
X179554178Y-90659972D01*
X179559162Y-90590280D01*
X179569801Y-90568523D01*
X179624814Y-90479334D01*
X179679999Y-90312797D01*
X179690500Y-90210009D01*
X179690499Y-88859992D01*
X179679999Y-88757203D01*
X179624814Y-88590666D01*
X179532712Y-88441344D01*
X179408656Y-88317288D01*
X179305513Y-88253669D01*
X179259336Y-88225187D01*
X179259331Y-88225185D01*
X179257862Y-88224698D01*
X179092797Y-88170001D01*
X179092795Y-88170000D01*
X178990010Y-88159500D01*
X178264998Y-88159500D01*
X178264980Y-88159501D01*
X178162203Y-88170000D01*
X178162200Y-88170001D01*
X177995668Y-88225185D01*
X177995663Y-88225187D01*
X177846342Y-88317289D01*
X177722289Y-88441342D01*
X177630187Y-88590663D01*
X177630185Y-88590668D01*
X177613960Y-88639633D01*
X177575001Y-88757203D01*
X177575001Y-88757204D01*
X177575000Y-88757204D01*
X177564500Y-88859983D01*
X177564500Y-89192345D01*
X177550581Y-89247910D01*
X177550699Y-89247959D01*
X177550372Y-89248747D01*
X177549859Y-89250797D01*
X177548367Y-89253586D01*
X177495996Y-89380024D01*
X177472950Y-89435661D01*
X177472947Y-89435670D01*
X177468427Y-89458396D01*
X177434500Y-89628954D01*
X177434500Y-90533705D01*
X177414815Y-90600744D01*
X177375599Y-90639242D01*
X177346347Y-90657285D01*
X177346343Y-90657288D01*
X177222289Y-90781342D01*
X177130187Y-90930663D01*
X177130185Y-90930668D01*
X177109361Y-90993511D01*
X177075001Y-91097203D01*
X177075001Y-91097204D01*
X177075000Y-91097204D01*
X177064500Y-91199983D01*
X174002065Y-91199983D01*
X173946739Y-90993504D01*
X173850568Y-90787266D01*
X173720047Y-90600861D01*
X173720045Y-90600858D01*
X173559141Y-90439954D01*
X173372734Y-90309432D01*
X173372728Y-90309429D01*
X173314725Y-90282382D01*
X173262285Y-90236210D01*
X173243133Y-90169017D01*
X173263348Y-90102135D01*
X173314725Y-90057618D01*
X173372734Y-90030568D01*
X173559139Y-89900047D01*
X173720047Y-89739139D01*
X173850568Y-89552734D01*
X173946739Y-89346496D01*
X174005635Y-89126692D01*
X174025468Y-88900000D01*
X174005635Y-88673308D01*
X173946739Y-88453504D01*
X173850568Y-88247266D01*
X173720047Y-88060861D01*
X173720045Y-88060858D01*
X173559141Y-87899954D01*
X173372734Y-87769432D01*
X173372728Y-87769429D01*
X173345038Y-87756517D01*
X173314724Y-87742381D01*
X173262285Y-87696210D01*
X173243133Y-87629017D01*
X173263348Y-87562135D01*
X173314725Y-87517618D01*
X173372734Y-87490568D01*
X173559139Y-87360047D01*
X173720047Y-87199139D01*
X173850568Y-87012734D01*
X173946739Y-86806496D01*
X174005635Y-86586692D01*
X174025468Y-86360000D01*
X174025460Y-86359914D01*
X174014114Y-86230221D01*
X174005635Y-86133308D01*
X173946739Y-85913504D01*
X173850568Y-85707266D01*
X173720047Y-85520861D01*
X173720045Y-85520858D01*
X173559141Y-85359954D01*
X173372734Y-85229432D01*
X173372728Y-85229429D01*
X173314725Y-85202382D01*
X173262285Y-85156210D01*
X173243133Y-85089017D01*
X173263348Y-85022135D01*
X173314725Y-84977618D01*
X173372734Y-84950568D01*
X173526465Y-84842924D01*
X173592671Y-84820598D01*
X173597588Y-84820500D01*
X174286218Y-84820500D01*
X174353257Y-84840185D01*
X174373899Y-84856819D01*
X174665681Y-85148601D01*
X174699166Y-85209924D01*
X174702000Y-85236282D01*
X174702000Y-88580270D01*
X174695706Y-88619273D01*
X174650002Y-88757199D01*
X174650000Y-88757209D01*
X174639500Y-88859983D01*
X174639500Y-90210001D01*
X174639501Y-90210018D01*
X174650000Y-90312796D01*
X174650001Y-90312799D01*
X174705185Y-90479331D01*
X174705187Y-90479336D01*
X174715260Y-90495667D01*
X174797288Y-90628656D01*
X174921344Y-90752712D01*
X175070666Y-90844814D01*
X175237203Y-90899999D01*
X175339991Y-90910500D01*
X176065008Y-90910499D01*
X176065016Y-90910498D01*
X176065019Y-90910498D01*
X176121302Y-90904748D01*
X176167797Y-90899999D01*
X176334334Y-90844814D01*
X176483656Y-90752712D01*
X176607712Y-90628656D01*
X176699814Y-90479334D01*
X176754999Y-90312797D01*
X176765500Y-90210009D01*
X176765499Y-88859992D01*
X176754999Y-88757203D01*
X176716041Y-88639635D01*
X176709294Y-88619273D01*
X176703000Y-88580269D01*
X176703000Y-84671956D01*
X176702999Y-84671954D01*
X176664553Y-84478674D01*
X176664552Y-84478672D01*
X176664551Y-84478665D01*
X176662094Y-84472734D01*
X176654897Y-84455359D01*
X176633918Y-84404709D01*
X176589135Y-84296592D01*
X176589128Y-84296579D01*
X176479639Y-84132718D01*
X176479636Y-84132714D01*
X176337186Y-83990264D01*
X176337155Y-83990235D01*
X175533479Y-83186559D01*
X175533459Y-83186537D01*
X175389785Y-83042863D01*
X175389781Y-83042860D01*
X175225920Y-82933371D01*
X175225907Y-82933364D01*
X175086608Y-82875666D01*
X175043836Y-82857949D01*
X175043828Y-82857947D01*
X174892996Y-82827945D01*
X174892995Y-82827944D01*
X174871768Y-82823722D01*
X174850542Y-82819500D01*
X174850541Y-82819500D01*
X173597588Y-82819500D01*
X173530549Y-82799815D01*
X173526465Y-82797075D01*
X173372734Y-82689432D01*
X173372728Y-82689429D01*
X173314725Y-82662382D01*
X173262285Y-82616210D01*
X173243133Y-82549017D01*
X173263348Y-82482135D01*
X173314725Y-82437618D01*
X173372734Y-82410568D01*
X173544949Y-82289983D01*
X177064500Y-82289983D01*
X177064500Y-84080001D01*
X177064501Y-84080018D01*
X177075000Y-84182796D01*
X177075001Y-84182799D01*
X177112707Y-84296586D01*
X177130186Y-84349334D01*
X177222288Y-84498656D01*
X177346344Y-84622712D01*
X177495666Y-84714814D01*
X177662203Y-84769999D01*
X177764991Y-84780500D01*
X179105008Y-84780499D01*
X179207797Y-84769999D01*
X179374334Y-84714814D01*
X179523656Y-84622712D01*
X179647712Y-84498656D01*
X179739814Y-84349334D01*
X179794999Y-84182797D01*
X179805500Y-84080009D01*
X179805499Y-82852133D01*
X182144500Y-82852133D01*
X182144500Y-83517866D01*
X182174208Y-83705431D01*
X182178246Y-83730926D01*
X182244908Y-83936089D01*
X182342843Y-84128299D01*
X182469641Y-84302821D01*
X182622179Y-84455359D01*
X182796701Y-84582157D01*
X182988911Y-84680092D01*
X183194074Y-84746754D01*
X183273973Y-84759408D01*
X183407134Y-84780500D01*
X183407139Y-84780500D01*
X183622866Y-84780500D01*
X183741230Y-84761752D01*
X183835926Y-84746754D01*
X184041089Y-84680092D01*
X184233299Y-84582157D01*
X184402560Y-84459181D01*
X184468364Y-84435702D01*
X184475444Y-84435500D01*
X185915664Y-84435500D01*
X185982703Y-84455185D01*
X186003345Y-84471819D01*
X186647507Y-85115981D01*
X186680992Y-85177304D01*
X186683183Y-85191058D01*
X186687803Y-85236282D01*
X186690001Y-85257796D01*
X186690001Y-85257799D01*
X186743822Y-85420217D01*
X186745186Y-85424334D01*
X186837288Y-85573656D01*
X186961344Y-85697712D01*
X187110666Y-85789814D01*
X187277203Y-85844999D01*
X187379991Y-85855500D01*
X188130008Y-85855499D01*
X188130016Y-85855498D01*
X188130019Y-85855498D01*
X188205230Y-85847815D01*
X188232797Y-85844999D01*
X188399334Y-85789814D01*
X188548656Y-85697712D01*
X188672712Y-85573656D01*
X188764814Y-85424334D01*
X188819999Y-85257797D01*
X188830500Y-85155009D01*
X188830499Y-85128444D01*
X188844013Y-85072152D01*
X188913884Y-84935026D01*
X188974709Y-84747826D01*
X188974879Y-84746754D01*
X189005500Y-84553421D01*
X189005500Y-84356577D01*
X188974709Y-84162172D01*
X188937185Y-84046686D01*
X188913884Y-83974974D01*
X188913882Y-83974971D01*
X188913881Y-83974966D01*
X188844014Y-83837844D01*
X188830499Y-83781550D01*
X188830499Y-83754998D01*
X188830498Y-83754981D01*
X188819999Y-83652203D01*
X188819998Y-83652200D01*
X188800481Y-83593302D01*
X188764814Y-83485666D01*
X188672712Y-83336344D01*
X188548656Y-83212288D01*
X188399334Y-83120186D01*
X188232797Y-83065001D01*
X188232795Y-83065000D01*
X188166056Y-83058182D01*
X188101365Y-83031785D01*
X188090979Y-83022505D01*
X187299648Y-82231174D01*
X187299646Y-82231172D01*
X187140405Y-82115476D01*
X187107810Y-82098868D01*
X186965030Y-82026117D01*
X186777826Y-81965290D01*
X186583422Y-81934500D01*
X186583417Y-81934500D01*
X184475444Y-81934500D01*
X184408405Y-81914815D01*
X184402576Y-81910830D01*
X184233299Y-81787843D01*
X184041089Y-81689908D01*
X183835926Y-81623246D01*
X183835924Y-81623245D01*
X183835922Y-81623245D01*
X183622866Y-81589500D01*
X183622861Y-81589500D01*
X183407139Y-81589500D01*
X183407134Y-81589500D01*
X183194077Y-81623245D01*
X182988908Y-81689909D01*
X182796700Y-81787843D01*
X182707506Y-81852647D01*
X182622179Y-81914641D01*
X182622177Y-81914643D01*
X182622176Y-81914643D01*
X182469643Y-82067176D01*
X182469643Y-82067177D01*
X182469641Y-82067179D01*
X182415186Y-82142129D01*
X182342843Y-82241700D01*
X182244909Y-82433908D01*
X182178245Y-82639077D01*
X182144500Y-82852133D01*
X179805499Y-82852133D01*
X179805499Y-82289992D01*
X179799490Y-82231172D01*
X179794999Y-82187203D01*
X179794998Y-82187200D01*
X179782732Y-82150185D01*
X179739814Y-82020666D01*
X179647712Y-81871344D01*
X179595293Y-81818925D01*
X179561808Y-81757602D01*
X179566792Y-81687910D01*
X179577432Y-81666152D01*
X179624814Y-81589334D01*
X179679999Y-81422797D01*
X179690500Y-81320009D01*
X179690499Y-80609983D01*
X189559500Y-80609983D01*
X189559500Y-81950001D01*
X189559501Y-81950018D01*
X189570000Y-82052796D01*
X189570001Y-82052799D01*
X189607784Y-82166819D01*
X189625186Y-82219334D01*
X189717288Y-82368656D01*
X189841344Y-82492712D01*
X189990666Y-82584814D01*
X190157203Y-82639999D01*
X190259991Y-82650500D01*
X192050008Y-82650499D01*
X192152797Y-82639999D01*
X192319334Y-82584814D01*
X192468656Y-82492712D01*
X192592712Y-82368656D01*
X192684814Y-82219334D01*
X192739999Y-82052797D01*
X192750500Y-81950009D01*
X192750499Y-80609992D01*
X192739999Y-80507203D01*
X192684814Y-80340666D01*
X192592712Y-80191344D01*
X192468656Y-80067288D01*
X192366182Y-80004082D01*
X192319336Y-79975187D01*
X192319331Y-79975185D01*
X192303678Y-79969998D01*
X192152797Y-79920001D01*
X192152795Y-79920000D01*
X192050010Y-79909500D01*
X190259998Y-79909500D01*
X190259981Y-79909501D01*
X190157203Y-79920000D01*
X190157200Y-79920001D01*
X189990668Y-79975185D01*
X189990663Y-79975187D01*
X189841342Y-80067289D01*
X189717289Y-80191342D01*
X189625187Y-80340663D01*
X189625185Y-80340668D01*
X189618515Y-80360797D01*
X189570001Y-80507203D01*
X189570001Y-80507204D01*
X189570000Y-80507204D01*
X189559500Y-80609983D01*
X179690499Y-80609983D01*
X179690499Y-79969992D01*
X179679999Y-79867203D01*
X179624814Y-79700666D01*
X179532712Y-79551344D01*
X179408656Y-79427288D01*
X179259334Y-79335186D01*
X179092797Y-79280001D01*
X179092795Y-79280000D01*
X178990010Y-79269500D01*
X178264998Y-79269500D01*
X178264980Y-79269501D01*
X178162203Y-79280000D01*
X178162200Y-79280001D01*
X177995668Y-79335185D01*
X177995663Y-79335187D01*
X177846342Y-79427289D01*
X177722289Y-79551342D01*
X177630187Y-79700663D01*
X177630185Y-79700668D01*
X177611851Y-79755998D01*
X177575001Y-79867203D01*
X177575001Y-79867204D01*
X177575000Y-79867204D01*
X177564500Y-79969983D01*
X177564500Y-80302345D01*
X177550581Y-80357910D01*
X177550699Y-80357959D01*
X177550372Y-80358747D01*
X177549859Y-80360797D01*
X177548367Y-80363586D01*
X177510311Y-80455464D01*
X177472949Y-80545661D01*
X177472949Y-80545662D01*
X177472949Y-80545664D01*
X177467349Y-80573816D01*
X177434500Y-80738956D01*
X177434500Y-81623705D01*
X177414815Y-81690744D01*
X177375599Y-81729242D01*
X177346347Y-81747285D01*
X177346343Y-81747288D01*
X177222289Y-81871342D01*
X177197940Y-81910818D01*
X177130289Y-82020500D01*
X177130190Y-82020660D01*
X177130185Y-82020668D01*
X177114066Y-82069313D01*
X177075001Y-82187203D01*
X177075001Y-82187204D01*
X177075000Y-82187204D01*
X177064500Y-82289983D01*
X173544949Y-82289983D01*
X173559139Y-82280047D01*
X173720047Y-82119139D01*
X173850568Y-81932734D01*
X173946739Y-81726496D01*
X174005635Y-81506692D01*
X174025468Y-81280000D01*
X174005635Y-81053308D01*
X173946739Y-80833504D01*
X173850568Y-80627266D01*
X173720047Y-80440861D01*
X173720045Y-80440858D01*
X173559141Y-80279954D01*
X173372734Y-80149432D01*
X173372728Y-80149429D01*
X173314725Y-80122382D01*
X173262285Y-80076210D01*
X173243133Y-80009017D01*
X173263348Y-79942135D01*
X173314725Y-79897618D01*
X173372734Y-79870568D01*
X173559139Y-79740047D01*
X173720047Y-79579139D01*
X173850568Y-79392734D01*
X173946739Y-79186496D01*
X173959396Y-79139260D01*
X173964024Y-79121988D01*
X174000389Y-79062327D01*
X174063236Y-79031798D01*
X174132611Y-79040093D01*
X174171480Y-79066400D01*
X174665681Y-79560601D01*
X174699166Y-79621924D01*
X174702000Y-79648282D01*
X174702000Y-79690270D01*
X174695706Y-79729273D01*
X174650002Y-79867199D01*
X174650000Y-79867209D01*
X174639500Y-79969983D01*
X174639500Y-81320001D01*
X174639501Y-81320018D01*
X174650000Y-81422796D01*
X174650001Y-81422799D01*
X174698477Y-81569088D01*
X174705186Y-81589334D01*
X174797288Y-81738656D01*
X174921344Y-81862712D01*
X175070666Y-81954814D01*
X175237203Y-82009999D01*
X175339991Y-82020500D01*
X176065008Y-82020499D01*
X176065016Y-82020498D01*
X176065019Y-82020498D01*
X176121302Y-82014748D01*
X176167797Y-82009999D01*
X176334334Y-81954814D01*
X176483656Y-81862712D01*
X176607712Y-81738656D01*
X176699814Y-81589334D01*
X176754999Y-81422797D01*
X176765500Y-81320009D01*
X176765499Y-79969992D01*
X176754999Y-79867203D01*
X176733732Y-79803022D01*
X176709294Y-79729273D01*
X176703000Y-79690269D01*
X176703000Y-79083956D01*
X176674978Y-78943084D01*
X176674978Y-78943083D01*
X176664552Y-78890670D01*
X176664551Y-78890664D01*
X176616294Y-78774162D01*
X176603100Y-78742309D01*
X176589135Y-78708593D01*
X176589134Y-78708592D01*
X176589132Y-78708586D01*
X176540398Y-78635650D01*
X176479639Y-78544717D01*
X176337186Y-78402264D01*
X176337155Y-78402235D01*
X174046887Y-76111967D01*
X174013402Y-76050644D01*
X174011040Y-76035093D01*
X174010988Y-76034500D01*
X174005635Y-75973308D01*
X173955540Y-75786351D01*
X173946741Y-75753511D01*
X173946738Y-75753502D01*
X173941068Y-75741342D01*
X173850568Y-75547266D01*
X173720047Y-75360861D01*
X173720045Y-75360858D01*
X173559141Y-75199954D01*
X173372734Y-75069432D01*
X173372728Y-75069429D01*
X173345038Y-75056517D01*
X173314724Y-75042381D01*
X173262285Y-74996210D01*
X173243133Y-74929017D01*
X173263348Y-74862135D01*
X173314725Y-74817618D01*
X173372734Y-74790568D01*
X173559139Y-74660047D01*
X173720047Y-74499139D01*
X173850568Y-74312734D01*
X173946739Y-74106496D01*
X174005635Y-73886692D01*
X174025468Y-73660000D01*
X174024744Y-73651729D01*
X174013887Y-73527633D01*
X174005635Y-73433308D01*
X174002065Y-73419983D01*
X177064500Y-73419983D01*
X177064500Y-75210001D01*
X177064501Y-75210018D01*
X177075000Y-75312796D01*
X177075001Y-75312799D01*
X177122124Y-75455006D01*
X177130186Y-75479334D01*
X177222288Y-75628656D01*
X177346344Y-75752712D01*
X177495666Y-75844814D01*
X177662203Y-75899999D01*
X177764991Y-75910500D01*
X179105008Y-75910499D01*
X179207797Y-75899999D01*
X179374334Y-75844814D01*
X179523656Y-75752712D01*
X179647712Y-75628656D01*
X179739814Y-75479334D01*
X179794999Y-75312797D01*
X179805500Y-75210009D01*
X179805499Y-73982133D01*
X182144500Y-73982133D01*
X182144500Y-74647866D01*
X182177124Y-74853842D01*
X182178246Y-74860926D01*
X182244908Y-75066089D01*
X182342843Y-75258299D01*
X182469641Y-75432821D01*
X182622179Y-75585359D01*
X182796701Y-75712157D01*
X182988911Y-75810092D01*
X183194074Y-75876754D01*
X183273973Y-75889408D01*
X183407134Y-75910500D01*
X183407139Y-75910500D01*
X183622866Y-75910500D01*
X183748076Y-75890668D01*
X183835926Y-75876754D01*
X184041089Y-75810092D01*
X184233299Y-75712157D01*
X184407821Y-75585359D01*
X184560359Y-75432821D01*
X184579149Y-75406958D01*
X184634476Y-75364294D01*
X184704089Y-75358313D01*
X184765885Y-75390918D01*
X184800243Y-75451756D01*
X184802824Y-75492444D01*
X184799501Y-75524976D01*
X184799500Y-75524996D01*
X184799500Y-76875001D01*
X184799501Y-76875018D01*
X184810000Y-76977796D01*
X184810001Y-76977799D01*
X184848117Y-77092823D01*
X184865186Y-77144334D01*
X184909039Y-77215431D01*
X184927500Y-77280527D01*
X184927500Y-78251171D01*
X184914501Y-78306441D01*
X184897419Y-78340747D01*
X184841602Y-78536917D01*
X184822785Y-78739999D01*
X184822785Y-78740000D01*
X184841602Y-78943082D01*
X184897417Y-79139247D01*
X184897422Y-79139260D01*
X184988327Y-79321821D01*
X185111237Y-79484581D01*
X185220360Y-79584059D01*
X185261896Y-79621924D01*
X185261958Y-79621980D01*
X185261960Y-79621982D01*
X185307736Y-79650325D01*
X185435363Y-79729348D01*
X185625544Y-79803024D01*
X185826024Y-79840500D01*
X185826026Y-79840500D01*
X186029974Y-79840500D01*
X186029976Y-79840500D01*
X186230456Y-79803024D01*
X186420637Y-79729348D01*
X186594041Y-79621981D01*
X186744764Y-79484579D01*
X186867673Y-79321821D01*
X186958582Y-79139250D01*
X187014397Y-78943083D01*
X187033215Y-78740000D01*
X187014397Y-78536917D01*
X186958582Y-78340750D01*
X186950094Y-78323703D01*
X186941499Y-78306441D01*
X186928500Y-78251171D01*
X186928500Y-76166962D01*
X186928500Y-76166959D01*
X186927880Y-76163845D01*
X186925499Y-76139660D01*
X186925499Y-75524998D01*
X186925498Y-75524983D01*
X187724500Y-75524983D01*
X187724500Y-76875001D01*
X187724501Y-76875018D01*
X187735000Y-76977796D01*
X187735001Y-76977799D01*
X187773117Y-77092823D01*
X187790186Y-77144334D01*
X187882288Y-77293656D01*
X188006344Y-77417712D01*
X188155666Y-77509814D01*
X188322203Y-77564999D01*
X188424991Y-77575500D01*
X189150008Y-77575499D01*
X189150016Y-77575498D01*
X189150019Y-77575498D01*
X189206302Y-77569748D01*
X189252797Y-77564999D01*
X189419334Y-77509814D01*
X189568656Y-77417712D01*
X189692712Y-77293656D01*
X189713839Y-77259402D01*
X189765787Y-77212679D01*
X189819378Y-77200500D01*
X189940958Y-77200500D01*
X190007997Y-77220185D01*
X190028639Y-77236819D01*
X190037179Y-77245359D01*
X190211701Y-77372157D01*
X190403911Y-77470092D01*
X190609074Y-77536754D01*
X190688973Y-77549408D01*
X190822134Y-77570500D01*
X190822139Y-77570500D01*
X191487866Y-77570500D01*
X191606230Y-77551752D01*
X191700926Y-77536754D01*
X191906089Y-77470092D01*
X192098299Y-77372157D01*
X192272821Y-77245359D01*
X192425359Y-77092821D01*
X192552157Y-76918299D01*
X192650092Y-76726089D01*
X192716754Y-76520926D01*
X192741354Y-76365610D01*
X192750500Y-76307866D01*
X192750500Y-76092133D01*
X192721731Y-75910498D01*
X192716754Y-75879074D01*
X192650092Y-75673911D01*
X192552157Y-75481701D01*
X192425359Y-75307179D01*
X192272821Y-75154641D01*
X192101704Y-75030317D01*
X192059040Y-74974988D01*
X192053061Y-74905374D01*
X192085667Y-74843580D01*
X192101702Y-74829684D01*
X192272821Y-74705359D01*
X192425359Y-74552821D01*
X192552157Y-74378299D01*
X192650092Y-74186089D01*
X192716754Y-73980926D01*
X192737732Y-73848476D01*
X192750500Y-73767866D01*
X192750500Y-73552133D01*
X192722778Y-73377110D01*
X192716754Y-73339074D01*
X192650092Y-73133911D01*
X192552157Y-72941701D01*
X192425359Y-72767179D01*
X192364319Y-72706139D01*
X192330834Y-72644816D01*
X192328000Y-72618458D01*
X192328000Y-72074728D01*
X192334294Y-72035724D01*
X192379999Y-71897797D01*
X192390500Y-71795009D01*
X192390499Y-70444992D01*
X192379999Y-70342203D01*
X192324814Y-70175666D01*
X192232712Y-70026344D01*
X192108656Y-69902288D01*
X191959334Y-69810186D01*
X191792797Y-69755001D01*
X191792795Y-69755000D01*
X191690010Y-69744500D01*
X190964998Y-69744500D01*
X190964980Y-69744501D01*
X190862203Y-69755000D01*
X190862200Y-69755001D01*
X190695668Y-69810185D01*
X190695663Y-69810187D01*
X190546342Y-69902289D01*
X190422289Y-70026342D01*
X190330187Y-70175663D01*
X190330185Y-70175668D01*
X190324706Y-70192204D01*
X190275001Y-70342203D01*
X190275001Y-70342204D01*
X190275000Y-70342204D01*
X190264500Y-70444983D01*
X190264500Y-71795001D01*
X190264501Y-71795018D01*
X190275000Y-71897796D01*
X190275001Y-71897799D01*
X190320706Y-72035725D01*
X190327000Y-72074729D01*
X190327000Y-72353107D01*
X190307315Y-72420146D01*
X190259296Y-72463591D01*
X190211703Y-72487841D01*
X190124440Y-72551242D01*
X190037179Y-72614641D01*
X190037177Y-72614643D01*
X190037176Y-72614643D01*
X189884643Y-72767176D01*
X189884643Y-72767177D01*
X189884641Y-72767179D01*
X189863330Y-72796511D01*
X189757843Y-72941700D01*
X189659909Y-73133908D01*
X189593245Y-73339077D01*
X189559500Y-73552133D01*
X189559500Y-73767866D01*
X189592030Y-73973249D01*
X189593246Y-73980926D01*
X189659908Y-74186089D01*
X189757843Y-74378299D01*
X189884641Y-74552821D01*
X190037179Y-74705359D01*
X190154457Y-74790567D01*
X190208294Y-74829682D01*
X190250959Y-74885012D01*
X190256938Y-74954626D01*
X190224332Y-75016421D01*
X190208294Y-75030318D01*
X190182497Y-75049061D01*
X190037179Y-75154641D01*
X190037177Y-75154643D01*
X190037176Y-75154643D01*
X190028639Y-75163181D01*
X189967316Y-75196666D01*
X189940958Y-75199500D01*
X189819378Y-75199500D01*
X189752339Y-75179815D01*
X189713839Y-75140597D01*
X189705629Y-75127286D01*
X189692712Y-75106344D01*
X189568656Y-74982288D01*
X189419334Y-74890186D01*
X189252797Y-74835001D01*
X189252795Y-74835000D01*
X189150010Y-74824500D01*
X188424998Y-74824500D01*
X188424980Y-74824501D01*
X188322203Y-74835000D01*
X188322200Y-74835001D01*
X188155668Y-74890185D01*
X188155663Y-74890187D01*
X188006342Y-74982289D01*
X187882289Y-75106342D01*
X187790187Y-75255663D01*
X187790185Y-75255668D01*
X187782619Y-75278502D01*
X187735001Y-75422203D01*
X187735001Y-75422204D01*
X187735000Y-75422204D01*
X187724500Y-75524983D01*
X186925498Y-75524983D01*
X186925498Y-75524981D01*
X186914999Y-75422203D01*
X186914998Y-75422200D01*
X186878745Y-75312796D01*
X186859814Y-75255666D01*
X186767712Y-75106344D01*
X186643656Y-74982288D01*
X186494334Y-74890186D01*
X186327797Y-74835001D01*
X186327795Y-74835000D01*
X186225010Y-74824500D01*
X185499998Y-74824500D01*
X185499980Y-74824501D01*
X185397203Y-74835000D01*
X185397200Y-74835001D01*
X185230668Y-74890185D01*
X185230663Y-74890187D01*
X185081342Y-74982289D01*
X185048055Y-75015576D01*
X184986732Y-75049061D01*
X184917040Y-75044075D01*
X184861107Y-75002203D01*
X184836691Y-74936738D01*
X184842444Y-74889577D01*
X184851754Y-74860926D01*
X184874169Y-74719403D01*
X184885500Y-74647866D01*
X184885500Y-73982133D01*
X184862127Y-73834570D01*
X184851754Y-73769074D01*
X184785092Y-73563911D01*
X184687157Y-73371701D01*
X184560359Y-73197179D01*
X184407821Y-73044641D01*
X184233299Y-72917843D01*
X184042959Y-72820861D01*
X184041091Y-72819909D01*
X184041090Y-72819908D01*
X184041089Y-72819908D01*
X183835926Y-72753246D01*
X183835924Y-72753245D01*
X183835922Y-72753245D01*
X183622866Y-72719500D01*
X183622861Y-72719500D01*
X183407139Y-72719500D01*
X183407134Y-72719500D01*
X183194077Y-72753245D01*
X183194074Y-72753246D01*
X183060938Y-72796505D01*
X182988908Y-72819909D01*
X182796700Y-72917843D01*
X182704291Y-72984983D01*
X182622179Y-73044641D01*
X182622177Y-73044643D01*
X182622176Y-73044643D01*
X182469643Y-73197176D01*
X182469643Y-73197177D01*
X182469641Y-73197179D01*
X182442305Y-73234804D01*
X182342843Y-73371700D01*
X182244909Y-73563908D01*
X182178245Y-73769077D01*
X182144500Y-73982133D01*
X179805499Y-73982133D01*
X179805499Y-73419992D01*
X179805042Y-73415523D01*
X179794999Y-73317203D01*
X179794998Y-73317200D01*
X179788171Y-73296597D01*
X179739814Y-73150666D01*
X179647712Y-73001344D01*
X179587663Y-72941295D01*
X179554178Y-72879972D01*
X179559162Y-72810280D01*
X179569801Y-72788523D01*
X179624814Y-72699334D01*
X179679999Y-72532797D01*
X179690500Y-72430009D01*
X179690499Y-71328499D01*
X179710184Y-71261461D01*
X179762987Y-71215706D01*
X179814499Y-71204500D01*
X179933974Y-71204500D01*
X179933976Y-71204500D01*
X180134456Y-71167024D01*
X180274237Y-71112873D01*
X180319031Y-71104500D01*
X186920718Y-71104500D01*
X186987757Y-71124185D01*
X187008399Y-71140819D01*
X187303181Y-71435601D01*
X187336666Y-71496924D01*
X187339500Y-71523282D01*
X187339500Y-71795000D01*
X187339501Y-71795019D01*
X187350000Y-71897796D01*
X187350001Y-71897799D01*
X187405185Y-72064331D01*
X187405187Y-72064336D01*
X187434677Y-72112147D01*
X187497288Y-72213656D01*
X187621344Y-72337712D01*
X187770666Y-72429814D01*
X187937203Y-72484999D01*
X188039991Y-72495500D01*
X188765008Y-72495499D01*
X188765016Y-72495498D01*
X188765019Y-72495498D01*
X188821302Y-72489748D01*
X188867797Y-72484999D01*
X189034334Y-72429814D01*
X189183656Y-72337712D01*
X189307712Y-72213656D01*
X189399814Y-72064334D01*
X189454999Y-71897797D01*
X189465500Y-71795009D01*
X189465499Y-70444992D01*
X189454999Y-70342203D01*
X189399814Y-70175666D01*
X189307712Y-70026344D01*
X189183656Y-69902288D01*
X189034334Y-69810186D01*
X188867797Y-69755001D01*
X188867795Y-69755000D01*
X188765016Y-69744500D01*
X188765009Y-69744500D01*
X188493282Y-69744500D01*
X188426243Y-69724815D01*
X188405601Y-69708181D01*
X188167979Y-69470559D01*
X188167959Y-69470537D01*
X188024285Y-69326863D01*
X188024281Y-69326860D01*
X187860420Y-69217371D01*
X187860411Y-69217366D01*
X187777183Y-69182892D01*
X187731665Y-69164038D01*
X187705000Y-69152993D01*
X187678337Y-69141949D01*
X187678333Y-69141948D01*
X187541105Y-69114652D01*
X187485043Y-69103500D01*
X187485041Y-69103500D01*
X180319031Y-69103500D01*
X180274237Y-69095127D01*
X180223438Y-69075447D01*
X180134456Y-69040976D01*
X179933976Y-69003500D01*
X179730024Y-69003500D01*
X179529544Y-69040976D01*
X179529541Y-69040976D01*
X179529541Y-69040977D01*
X179339364Y-69114651D01*
X179339357Y-69114655D01*
X179165960Y-69222017D01*
X179165958Y-69222019D01*
X179015237Y-69359418D01*
X178892327Y-69522178D01*
X178801422Y-69704739D01*
X178801417Y-69704752D01*
X178745602Y-69900917D01*
X178726785Y-70103999D01*
X178726785Y-70104000D01*
X178739763Y-70244059D01*
X178726348Y-70312629D01*
X178677991Y-70363060D01*
X178616292Y-70379500D01*
X178264998Y-70379500D01*
X178264980Y-70379501D01*
X178162203Y-70390000D01*
X178162200Y-70390001D01*
X177995668Y-70445185D01*
X177995663Y-70445187D01*
X177846342Y-70537289D01*
X177722289Y-70661342D01*
X177630187Y-70810663D01*
X177630186Y-70810666D01*
X177575001Y-70977203D01*
X177575001Y-70977204D01*
X177575000Y-70977204D01*
X177564500Y-71079983D01*
X177564500Y-71412345D01*
X177550582Y-71467909D01*
X177550699Y-71467958D01*
X177550372Y-71468745D01*
X177549859Y-71470797D01*
X177548366Y-71473589D01*
X177509884Y-71566495D01*
X177509884Y-71566496D01*
X177472950Y-71655661D01*
X177472948Y-71655667D01*
X177471248Y-71664215D01*
X177471247Y-71664214D01*
X177434500Y-71848954D01*
X177434500Y-72753705D01*
X177414815Y-72820744D01*
X177375599Y-72859242D01*
X177346347Y-72877285D01*
X177346343Y-72877288D01*
X177222289Y-73001342D01*
X177130187Y-73150663D01*
X177130185Y-73150668D01*
X177102349Y-73234670D01*
X177075001Y-73317203D01*
X177075001Y-73317204D01*
X177075000Y-73317204D01*
X177064500Y-73419983D01*
X174002065Y-73419983D01*
X173946739Y-73213504D01*
X173850568Y-73007266D01*
X173720047Y-72820861D01*
X173720045Y-72820858D01*
X173559141Y-72659954D01*
X173372734Y-72529432D01*
X173372728Y-72529429D01*
X173314725Y-72502382D01*
X173262285Y-72456210D01*
X173243133Y-72389017D01*
X173263348Y-72322135D01*
X173314725Y-72277618D01*
X173372734Y-72250568D01*
X173526465Y-72142924D01*
X173592671Y-72120598D01*
X173597588Y-72120500D01*
X174515501Y-72120500D01*
X174582540Y-72140185D01*
X174628295Y-72192989D01*
X174639501Y-72244500D01*
X174639501Y-72430018D01*
X174650000Y-72532796D01*
X174650001Y-72532799D01*
X174705185Y-72699331D01*
X174705187Y-72699336D01*
X174717624Y-72719500D01*
X174797288Y-72848656D01*
X174921344Y-72972712D01*
X175070666Y-73064814D01*
X175237203Y-73119999D01*
X175339991Y-73130500D01*
X176065008Y-73130499D01*
X176065016Y-73130498D01*
X176065019Y-73130498D01*
X176121302Y-73124748D01*
X176167797Y-73119999D01*
X176334334Y-73064814D01*
X176483656Y-72972712D01*
X176607712Y-72848656D01*
X176699814Y-72699334D01*
X176754999Y-72532797D01*
X176765500Y-72430009D01*
X176765499Y-71079992D01*
X176762607Y-71051685D01*
X176754999Y-70977203D01*
X176754998Y-70977200D01*
X176737521Y-70924458D01*
X176699814Y-70810666D01*
X176607712Y-70661344D01*
X176483656Y-70537288D01*
X176357335Y-70459373D01*
X176334336Y-70445187D01*
X176334331Y-70445185D01*
X176313780Y-70438375D01*
X176167797Y-70390001D01*
X176167795Y-70390000D01*
X176065016Y-70379500D01*
X176065009Y-70379500D01*
X175793284Y-70379500D01*
X175726245Y-70359815D01*
X175709996Y-70346721D01*
X175709992Y-70346726D01*
X175709439Y-70346272D01*
X175705603Y-70343181D01*
X175705285Y-70342863D01*
X175705281Y-70342860D01*
X175541420Y-70233371D01*
X175541407Y-70233364D01*
X175402108Y-70175666D01*
X175359336Y-70157949D01*
X175359328Y-70157947D01*
X175262688Y-70138724D01*
X175166044Y-70119500D01*
X175166041Y-70119500D01*
X173597588Y-70119500D01*
X173530549Y-70099815D01*
X173526465Y-70097075D01*
X173507820Y-70084020D01*
X173372734Y-69989432D01*
X173314724Y-69962381D01*
X173262285Y-69916210D01*
X173243133Y-69849017D01*
X173263348Y-69782135D01*
X173314725Y-69737618D01*
X173372734Y-69710568D01*
X173559139Y-69580047D01*
X173720047Y-69419139D01*
X173850568Y-69232734D01*
X173946739Y-69026496D01*
X174005635Y-68806692D01*
X174025468Y-68580000D01*
X174023559Y-68558185D01*
X174019801Y-68515230D01*
X174005635Y-68353308D01*
X173946739Y-68133504D01*
X173850568Y-67927266D01*
X173730330Y-67755547D01*
X173720045Y-67740858D01*
X173559141Y-67579954D01*
X173372734Y-67449432D01*
X173372728Y-67449429D01*
X173314725Y-67422382D01*
X173262285Y-67376210D01*
X173243133Y-67309017D01*
X173263348Y-67242135D01*
X173314725Y-67197618D01*
X173325349Y-67192664D01*
X173372734Y-67170568D01*
X173559139Y-67040047D01*
X173720047Y-66879139D01*
X173850568Y-66692734D01*
X173946739Y-66486496D01*
X174005635Y-66266692D01*
X174025468Y-66040000D01*
X174005635Y-65813308D01*
X173948478Y-65599995D01*
X173946741Y-65593511D01*
X173946738Y-65593502D01*
X173936573Y-65571703D01*
X173850568Y-65387266D01*
X173720047Y-65200861D01*
X173720045Y-65200858D01*
X173559141Y-65039954D01*
X173372734Y-64909432D01*
X173372728Y-64909429D01*
X173314725Y-64882382D01*
X173262285Y-64836210D01*
X173252719Y-64802648D01*
X179829500Y-64802648D01*
X179829500Y-66007351D01*
X179861522Y-66209534D01*
X179924781Y-66404223D01*
X180017715Y-66586613D01*
X180138028Y-66752213D01*
X180282786Y-66896971D01*
X180437749Y-67009556D01*
X180448390Y-67017287D01*
X180564607Y-67076503D01*
X180630776Y-67110218D01*
X180630778Y-67110218D01*
X180630781Y-67110220D01*
X180735137Y-67144127D01*
X180825465Y-67173477D01*
X180885736Y-67183023D01*
X181027648Y-67205500D01*
X181027649Y-67205500D01*
X181232351Y-67205500D01*
X181232352Y-67205500D01*
X181434534Y-67173477D01*
X181629219Y-67110220D01*
X181811610Y-67017287D01*
X181904590Y-66949732D01*
X181977213Y-66896971D01*
X181977215Y-66896968D01*
X181977219Y-66896966D01*
X182121966Y-66752219D01*
X182121968Y-66752215D01*
X182121971Y-66752213D01*
X182199092Y-66646063D01*
X182242287Y-66586610D01*
X182335220Y-66404219D01*
X182398477Y-66209534D01*
X182430500Y-66007352D01*
X182430500Y-64802648D01*
X182398477Y-64600466D01*
X182335220Y-64405781D01*
X182335218Y-64405778D01*
X182335218Y-64405776D01*
X182282746Y-64302796D01*
X182242287Y-64223390D01*
X182222519Y-64196181D01*
X182121971Y-64057786D01*
X181977213Y-63913028D01*
X181811613Y-63792715D01*
X181811612Y-63792714D01*
X181811610Y-63792713D01*
X181751906Y-63762292D01*
X181629223Y-63699781D01*
X181434534Y-63636522D01*
X181259995Y-63608878D01*
X181232352Y-63604500D01*
X181027648Y-63604500D01*
X181003329Y-63608351D01*
X180825465Y-63636522D01*
X180630776Y-63699781D01*
X180448386Y-63792715D01*
X180282786Y-63913028D01*
X180138028Y-64057786D01*
X180017715Y-64223386D01*
X179924781Y-64405776D01*
X179861522Y-64600465D01*
X179829500Y-64802648D01*
X173252719Y-64802648D01*
X173243133Y-64769017D01*
X173263348Y-64702135D01*
X173314725Y-64657618D01*
X173372734Y-64630568D01*
X173559139Y-64500047D01*
X173720047Y-64339139D01*
X173850568Y-64152734D01*
X173946739Y-63946496D01*
X174005635Y-63726692D01*
X174025468Y-63500000D01*
X174005635Y-63273308D01*
X173946739Y-63053504D01*
X173850568Y-62847266D01*
X173720047Y-62660861D01*
X173720045Y-62660858D01*
X173559141Y-62499954D01*
X173372734Y-62369432D01*
X173372728Y-62369429D01*
X173314725Y-62342382D01*
X173262285Y-62296210D01*
X173243133Y-62229017D01*
X173263348Y-62162135D01*
X173314725Y-62117618D01*
X173372734Y-62090568D01*
X173559139Y-61960047D01*
X173720047Y-61799139D01*
X173850568Y-61612734D01*
X173946739Y-61406496D01*
X174005635Y-61186692D01*
X174025468Y-60960000D01*
X174024346Y-60947181D01*
X174016487Y-60857344D01*
X174005635Y-60733308D01*
X173960916Y-60566415D01*
X173946741Y-60513511D01*
X173946738Y-60513502D01*
X173850568Y-60307266D01*
X173720047Y-60120861D01*
X173720045Y-60120858D01*
X173559141Y-59959954D01*
X173372734Y-59829432D01*
X173372732Y-59829431D01*
X173166497Y-59733261D01*
X173166488Y-59733258D01*
X172946697Y-59674366D01*
X172946693Y-59674365D01*
X172946692Y-59674365D01*
X172946691Y-59674364D01*
X172946686Y-59674364D01*
X172720002Y-59654532D01*
X172719998Y-59654532D01*
X172493313Y-59674364D01*
X172493302Y-59674366D01*
X172273511Y-59733258D01*
X172273502Y-59733261D01*
X172067267Y-59829431D01*
X172067265Y-59829432D01*
X171880858Y-59959954D01*
X171719954Y-60120858D01*
X171589432Y-60307265D01*
X171589431Y-60307267D01*
X171493261Y-60513502D01*
X171493258Y-60513511D01*
X171434366Y-60733302D01*
X171434364Y-60733313D01*
X171414532Y-60959998D01*
X171414532Y-60960001D01*
X171434364Y-61186686D01*
X171434366Y-61186697D01*
X171493258Y-61406488D01*
X171493261Y-61406497D01*
X171589431Y-61612732D01*
X171589432Y-61612734D01*
X171719954Y-61799141D01*
X171880858Y-61960045D01*
X171880861Y-61960047D01*
X172067266Y-62090568D01*
X172125275Y-62117618D01*
X172177714Y-62163791D01*
X172196866Y-62230984D01*
X172176650Y-62297865D01*
X172125275Y-62342382D01*
X172067267Y-62369431D01*
X172067265Y-62369432D01*
X171880862Y-62499951D01*
X171850151Y-62530663D01*
X171767631Y-62613182D01*
X171706311Y-62646666D01*
X171679952Y-62649500D01*
X171523733Y-62649500D01*
X171456694Y-62629815D01*
X171410939Y-62577011D01*
X171406028Y-62564506D01*
X171401495Y-62550829D01*
X171394814Y-62530666D01*
X171302712Y-62381344D01*
X171178656Y-62257288D01*
X171085888Y-62200069D01*
X171029336Y-62165187D01*
X171029331Y-62165185D01*
X171020127Y-62162135D01*
X170862797Y-62110001D01*
X170862795Y-62110000D01*
X170760010Y-62099500D01*
X170009998Y-62099500D01*
X170009980Y-62099501D01*
X169907203Y-62110000D01*
X169907200Y-62110001D01*
X169740668Y-62165185D01*
X169740663Y-62165187D01*
X169591342Y-62257289D01*
X169467289Y-62381342D01*
X169375187Y-62530663D01*
X169375185Y-62530668D01*
X169359829Y-62577011D01*
X169320001Y-62697203D01*
X169320001Y-62697204D01*
X169320000Y-62697204D01*
X169309500Y-62799983D01*
X169309500Y-64200001D01*
X169309501Y-64200018D01*
X169320000Y-64302796D01*
X169320001Y-64302799D01*
X169375185Y-64469331D01*
X169375187Y-64469336D01*
X169394130Y-64500047D01*
X169467288Y-64618656D01*
X169591344Y-64742712D01*
X169740666Y-64834814D01*
X169907203Y-64889999D01*
X170009991Y-64900500D01*
X170760008Y-64900499D01*
X170760016Y-64900498D01*
X170760019Y-64900498D01*
X170816302Y-64894748D01*
X170862797Y-64889999D01*
X171029334Y-64834814D01*
X171178656Y-64742712D01*
X171302712Y-64618656D01*
X171394814Y-64469334D01*
X171406028Y-64435494D01*
X171445801Y-64378050D01*
X171510317Y-64351228D01*
X171523733Y-64350500D01*
X171679952Y-64350500D01*
X171746991Y-64370185D01*
X171767628Y-64386814D01*
X171880861Y-64500047D01*
X172067266Y-64630568D01*
X172125275Y-64657618D01*
X172177714Y-64703791D01*
X172196866Y-64770984D01*
X172176650Y-64837865D01*
X172125275Y-64882382D01*
X172067267Y-64909431D01*
X172067265Y-64909432D01*
X171880858Y-65039954D01*
X171719954Y-65200858D01*
X171589432Y-65387265D01*
X171589431Y-65387267D01*
X171493261Y-65593502D01*
X171493258Y-65593511D01*
X171434366Y-65813302D01*
X171434364Y-65813313D01*
X171414532Y-66039998D01*
X171414532Y-66040001D01*
X171434364Y-66266686D01*
X171434366Y-66266697D01*
X171493258Y-66486488D01*
X171493261Y-66486497D01*
X171589431Y-66692732D01*
X171589432Y-66692734D01*
X171719954Y-66879141D01*
X171880858Y-67040045D01*
X171880861Y-67040047D01*
X172067266Y-67170568D01*
X172114651Y-67192664D01*
X172125275Y-67197618D01*
X172177714Y-67243791D01*
X172196866Y-67310984D01*
X172176650Y-67377865D01*
X172125275Y-67422382D01*
X172067267Y-67449431D01*
X172067265Y-67449432D01*
X171880858Y-67579954D01*
X171719954Y-67740858D01*
X171589432Y-67927265D01*
X171589431Y-67927267D01*
X171493261Y-68133502D01*
X171493258Y-68133511D01*
X171434366Y-68353302D01*
X171434364Y-68353313D01*
X171414532Y-68579998D01*
X171414532Y-68580001D01*
X171434364Y-68806686D01*
X171434366Y-68806697D01*
X171493258Y-69026488D01*
X171493261Y-69026497D01*
X171589431Y-69232732D01*
X171589432Y-69232734D01*
X171719954Y-69419141D01*
X171880858Y-69580045D01*
X171880861Y-69580047D01*
X172067266Y-69710568D01*
X172125275Y-69737618D01*
X172177714Y-69783791D01*
X172196866Y-69850984D01*
X172176650Y-69917865D01*
X172125275Y-69962382D01*
X172067267Y-69989431D01*
X172067265Y-69989432D01*
X171913535Y-70097075D01*
X171847329Y-70119402D01*
X171842412Y-70119500D01*
X171404378Y-70119500D01*
X171337339Y-70099815D01*
X171298839Y-70060597D01*
X171277712Y-70026344D01*
X171153656Y-69902288D01*
X171004334Y-69810186D01*
X170837797Y-69755001D01*
X170837795Y-69755000D01*
X170735010Y-69744500D01*
X170009998Y-69744500D01*
X170009980Y-69744501D01*
X169907203Y-69755000D01*
X169907200Y-69755001D01*
X169740668Y-69810185D01*
X169740663Y-69810187D01*
X169591342Y-69902289D01*
X169467289Y-70026342D01*
X169375187Y-70175663D01*
X169375185Y-70175668D01*
X169369706Y-70192204D01*
X169320001Y-70342203D01*
X169320001Y-70342204D01*
X169320000Y-70342204D01*
X169309500Y-70444983D01*
X169309500Y-71795001D01*
X169309501Y-71795018D01*
X169320000Y-71897796D01*
X169320001Y-71897799D01*
X169375185Y-72064331D01*
X169375187Y-72064336D01*
X169404677Y-72112147D01*
X169439011Y-72167812D01*
X169467289Y-72213657D01*
X169555951Y-72302319D01*
X169589436Y-72363642D01*
X169584452Y-72433334D01*
X169555951Y-72477681D01*
X169467289Y-72566342D01*
X169375187Y-72715663D01*
X169375185Y-72715668D01*
X169348401Y-72796498D01*
X169320001Y-72882203D01*
X169320001Y-72882204D01*
X169320000Y-72882204D01*
X169309500Y-72984983D01*
X169309500Y-74335001D01*
X169309501Y-74335018D01*
X169320000Y-74437796D01*
X169320001Y-74437799D01*
X169375185Y-74604331D01*
X169375187Y-74604336D01*
X169402037Y-74647866D01*
X169437498Y-74705359D01*
X169467289Y-74753657D01*
X169555951Y-74842319D01*
X169589436Y-74903642D01*
X169584452Y-74973334D01*
X169555951Y-75017681D01*
X169467289Y-75106342D01*
X169375187Y-75255663D01*
X169375185Y-75255668D01*
X169367619Y-75278502D01*
X169320001Y-75422203D01*
X169320001Y-75422204D01*
X169320000Y-75422204D01*
X169309500Y-75524983D01*
X169309500Y-76875001D01*
X169309501Y-76875018D01*
X169320000Y-76977796D01*
X169320001Y-76977799D01*
X169358117Y-77092823D01*
X169375186Y-77144334D01*
X169467288Y-77293656D01*
X169591344Y-77417712D01*
X169740666Y-77509814D01*
X169907203Y-77564999D01*
X170009991Y-77575500D01*
X170735008Y-77575499D01*
X170735016Y-77575498D01*
X170735019Y-77575498D01*
X170791302Y-77569748D01*
X170837797Y-77564999D01*
X171004334Y-77509814D01*
X171153656Y-77417712D01*
X171277712Y-77293656D01*
X171298839Y-77259402D01*
X171350787Y-77212679D01*
X171404378Y-77200500D01*
X171842412Y-77200500D01*
X171909451Y-77220185D01*
X171913523Y-77222917D01*
X172067266Y-77330568D01*
X172125275Y-77357618D01*
X172177714Y-77403791D01*
X172196866Y-77470984D01*
X172176650Y-77537865D01*
X172125275Y-77582382D01*
X172067267Y-77609431D01*
X172067265Y-77609432D01*
X171880858Y-77739954D01*
X171719954Y-77900858D01*
X171589432Y-78087265D01*
X171589431Y-78087267D01*
X171493261Y-78293502D01*
X171493258Y-78293511D01*
X171434366Y-78513302D01*
X171434364Y-78513313D01*
X171414532Y-78739998D01*
X171414532Y-78740001D01*
X171434364Y-78966686D01*
X171434366Y-78966697D01*
X171493258Y-79186488D01*
X171493261Y-79186497D01*
X171589431Y-79392732D01*
X171589432Y-79392734D01*
X171719954Y-79579141D01*
X171880858Y-79740045D01*
X171880861Y-79740047D01*
X172067266Y-79870568D01*
X172125275Y-79897618D01*
X172177714Y-79943791D01*
X172196866Y-80010984D01*
X172176650Y-80077865D01*
X172125275Y-80122382D01*
X172067267Y-80149431D01*
X172067265Y-80149432D01*
X171913535Y-80257075D01*
X171847329Y-80279402D01*
X171842412Y-80279500D01*
X171404378Y-80279500D01*
X171337339Y-80259815D01*
X171298839Y-80220597D01*
X171287675Y-80202497D01*
X171277712Y-80186344D01*
X171153656Y-80062288D01*
X171060888Y-80005069D01*
X171004336Y-79970187D01*
X171004331Y-79970185D01*
X170930639Y-79945766D01*
X170837797Y-79915001D01*
X170837795Y-79915000D01*
X170735010Y-79904500D01*
X170009998Y-79904500D01*
X170009980Y-79904501D01*
X169907203Y-79915000D01*
X169907200Y-79915001D01*
X169740668Y-79970185D01*
X169740663Y-79970187D01*
X169591342Y-80062289D01*
X169467289Y-80186342D01*
X169375187Y-80335663D01*
X169375185Y-80335668D01*
X169366858Y-80360797D01*
X169320001Y-80502203D01*
X169320001Y-80502204D01*
X169320000Y-80502204D01*
X169309500Y-80604983D01*
X169309500Y-81955001D01*
X169309501Y-81955018D01*
X169320000Y-82057796D01*
X169320001Y-82057799D01*
X169375185Y-82224331D01*
X169375187Y-82224336D01*
X169379405Y-82231174D01*
X169419388Y-82295998D01*
X169467289Y-82373657D01*
X169555951Y-82462319D01*
X169589436Y-82523642D01*
X169584452Y-82593334D01*
X169555951Y-82637681D01*
X169467289Y-82726342D01*
X169375187Y-82875663D01*
X169375186Y-82875666D01*
X169320001Y-83042203D01*
X169320001Y-83042204D01*
X169320000Y-83042204D01*
X169309500Y-83144983D01*
X169309500Y-84495001D01*
X169309501Y-84495018D01*
X169320000Y-84597796D01*
X169320001Y-84597799D01*
X169375185Y-84764331D01*
X169375187Y-84764336D01*
X169385157Y-84780500D01*
X169467288Y-84913656D01*
X169591344Y-85037712D01*
X169740666Y-85129814D01*
X169907203Y-85184999D01*
X170009991Y-85195500D01*
X170735008Y-85195499D01*
X170735016Y-85195498D01*
X170735019Y-85195498D01*
X170791302Y-85189748D01*
X170837797Y-85184999D01*
X171004334Y-85129814D01*
X171153656Y-85037712D01*
X171277712Y-84913656D01*
X171298839Y-84879402D01*
X171350787Y-84832679D01*
X171404378Y-84820500D01*
X171842412Y-84820500D01*
X171909451Y-84840185D01*
X171913523Y-84842917D01*
X172067266Y-84950568D01*
X172125275Y-84977618D01*
X172177714Y-85023791D01*
X172196866Y-85090984D01*
X172176650Y-85157865D01*
X172125275Y-85202382D01*
X172067267Y-85229431D01*
X172067265Y-85229432D01*
X171880858Y-85359954D01*
X171719954Y-85520858D01*
X171589432Y-85707265D01*
X171589431Y-85707267D01*
X171493261Y-85913502D01*
X171493258Y-85913511D01*
X171434366Y-86133302D01*
X171434364Y-86133313D01*
X171414532Y-86359998D01*
X171414532Y-86360001D01*
X171434364Y-86586686D01*
X171434366Y-86586697D01*
X171493258Y-86806488D01*
X171493261Y-86806497D01*
X171589431Y-87012732D01*
X171589432Y-87012734D01*
X171719954Y-87199141D01*
X171880858Y-87360045D01*
X171972089Y-87423925D01*
X172015714Y-87478501D01*
X172022908Y-87548000D01*
X171991386Y-87610355D01*
X171931156Y-87645769D01*
X171900966Y-87649500D01*
X171201196Y-87649500D01*
X171136100Y-87631039D01*
X171029340Y-87565189D01*
X171029335Y-87565187D01*
X171029334Y-87565186D01*
X170862797Y-87510001D01*
X170862795Y-87510000D01*
X170760016Y-87499500D01*
X170760009Y-87499500D01*
X170450782Y-87499500D01*
X170383743Y-87479815D01*
X170363101Y-87463181D01*
X169134479Y-86234559D01*
X169134459Y-86234537D01*
X168990785Y-86090863D01*
X168990781Y-86090860D01*
X168826920Y-85981371D01*
X168826907Y-85981364D01*
X168663078Y-85913505D01*
X168656338Y-85910713D01*
X168644836Y-85905949D01*
X168644832Y-85905948D01*
X168644828Y-85905947D01*
X168544978Y-85886086D01*
X168513832Y-85879890D01*
X168451543Y-85867500D01*
X168451541Y-85867500D01*
X167089783Y-85867500D01*
X167022744Y-85847815D01*
X167002102Y-85831181D01*
X166678819Y-85507898D01*
X166645334Y-85446575D01*
X166642500Y-85420217D01*
X166642500Y-79625956D01*
X166619020Y-79507919D01*
X166604051Y-79432664D01*
X166563674Y-79335186D01*
X166553039Y-79309511D01*
X166528635Y-79250593D01*
X166528634Y-79250592D01*
X166528632Y-79250586D01*
X166485809Y-79186497D01*
X166419139Y-79086717D01*
X166276686Y-78944264D01*
X166276655Y-78944235D01*
X163851818Y-76519398D01*
X163818333Y-76458075D01*
X163815499Y-76431717D01*
X163815499Y-76159998D01*
X163815498Y-76159981D01*
X163804999Y-76057203D01*
X163804998Y-76057200D01*
X163759294Y-75919273D01*
X163753000Y-75880269D01*
X163753000Y-56199728D01*
X163759294Y-56160724D01*
X163776246Y-56109566D01*
X163804999Y-56022797D01*
X163815500Y-55920009D01*
X163815500Y-55879998D01*
X171414532Y-55879998D01*
X171414532Y-55880001D01*
X171434364Y-56106686D01*
X171434366Y-56106697D01*
X171493258Y-56326488D01*
X171493261Y-56326497D01*
X171589431Y-56532732D01*
X171589432Y-56532734D01*
X171719954Y-56719141D01*
X171880858Y-56880045D01*
X171880861Y-56880047D01*
X172067266Y-57010568D01*
X172273504Y-57106739D01*
X172493308Y-57165635D01*
X172633052Y-57177861D01*
X172719998Y-57185468D01*
X172720000Y-57185468D01*
X172720002Y-57185468D01*
X172776796Y-57180499D01*
X172946692Y-57165635D01*
X173166496Y-57106739D01*
X173372734Y-57010568D01*
X173559139Y-56880047D01*
X173720047Y-56719139D01*
X173850568Y-56532734D01*
X173946739Y-56326496D01*
X174005635Y-56106692D01*
X174024674Y-55889077D01*
X177319500Y-55889077D01*
X177319500Y-56085922D01*
X177350290Y-56280326D01*
X177411117Y-56467529D01*
X177486642Y-56615754D01*
X177500476Y-56642905D01*
X177616172Y-56802146D01*
X177755354Y-56941328D01*
X177914595Y-57057024D01*
X177997455Y-57099243D01*
X178089970Y-57146382D01*
X178089972Y-57146382D01*
X178089975Y-57146384D01*
X178175242Y-57174089D01*
X178277173Y-57207209D01*
X178471578Y-57238000D01*
X178471583Y-57238000D01*
X179668422Y-57238000D01*
X179862826Y-57207209D01*
X179905753Y-57193261D01*
X180050025Y-57146384D01*
X180225405Y-57057024D01*
X180384646Y-56941328D01*
X180523828Y-56802146D01*
X180639524Y-56642905D01*
X180728884Y-56467525D01*
X180789709Y-56280326D01*
X180802474Y-56199729D01*
X180820500Y-56085922D01*
X180820500Y-55889077D01*
X180789709Y-55694673D01*
X180738967Y-55538508D01*
X180728884Y-55507475D01*
X180728882Y-55507472D01*
X180728882Y-55507470D01*
X180639523Y-55332094D01*
X180523828Y-55172854D01*
X180384646Y-55033672D01*
X180225405Y-54917976D01*
X180050029Y-54828617D01*
X179862826Y-54767790D01*
X179668422Y-54737000D01*
X179668417Y-54737000D01*
X178471583Y-54737000D01*
X178471578Y-54737000D01*
X178277173Y-54767790D01*
X178089970Y-54828617D01*
X177914594Y-54917976D01*
X177839526Y-54972517D01*
X177755354Y-55033672D01*
X177755352Y-55033674D01*
X177755351Y-55033674D01*
X177616174Y-55172851D01*
X177616174Y-55172852D01*
X177616172Y-55172854D01*
X177566485Y-55241241D01*
X177500476Y-55332094D01*
X177411117Y-55507470D01*
X177350290Y-55694673D01*
X177319500Y-55889077D01*
X174024674Y-55889077D01*
X174025468Y-55880000D01*
X174005635Y-55653308D01*
X173946739Y-55433504D01*
X173850568Y-55227266D01*
X173720047Y-55040861D01*
X173720045Y-55040858D01*
X173559141Y-54879954D01*
X173372734Y-54749432D01*
X173372732Y-54749431D01*
X173166497Y-54653261D01*
X173166488Y-54653258D01*
X172946697Y-54594366D01*
X172946693Y-54594365D01*
X172946692Y-54594365D01*
X172946691Y-54594364D01*
X172946686Y-54594364D01*
X172720002Y-54574532D01*
X172719998Y-54574532D01*
X172493313Y-54594364D01*
X172493302Y-54594366D01*
X172273511Y-54653258D01*
X172273502Y-54653261D01*
X172067267Y-54749431D01*
X172067265Y-54749432D01*
X171880858Y-54879954D01*
X171719954Y-55040858D01*
X171589432Y-55227265D01*
X171589431Y-55227267D01*
X171493261Y-55433502D01*
X171493261Y-55433504D01*
X171434366Y-55653302D01*
X171434364Y-55653313D01*
X171414532Y-55879998D01*
X163815500Y-55879998D01*
X163815499Y-54569992D01*
X163804999Y-54467203D01*
X163749814Y-54300666D01*
X163657712Y-54151344D01*
X163533656Y-54027288D01*
X163384334Y-53935186D01*
X163217797Y-53880001D01*
X163217795Y-53880000D01*
X163115010Y-53869500D01*
X162389998Y-53869500D01*
X162389980Y-53869501D01*
X162287203Y-53880000D01*
X162287200Y-53880001D01*
X162120668Y-53935185D01*
X162120663Y-53935187D01*
X161971342Y-54027289D01*
X161847289Y-54151342D01*
X161755187Y-54300663D01*
X161755186Y-54300667D01*
X161700001Y-54467203D01*
X161700001Y-54467204D01*
X161700000Y-54467204D01*
X161689500Y-54569983D01*
X161689500Y-55920001D01*
X161689501Y-55920018D01*
X161700000Y-56022796D01*
X161700001Y-56022799D01*
X161745706Y-56160725D01*
X161752000Y-56199729D01*
X161752000Y-58649849D01*
X161732315Y-58716888D01*
X161679511Y-58762643D01*
X161610353Y-58772587D01*
X161546797Y-58743562D01*
X161540319Y-58737530D01*
X159634969Y-56832180D01*
X159601484Y-56770857D01*
X159606468Y-56701165D01*
X159648340Y-56645232D01*
X159713804Y-56620815D01*
X159722631Y-56620499D01*
X160190008Y-56620499D01*
X160190016Y-56620498D01*
X160190019Y-56620498D01*
X160246302Y-56614748D01*
X160292797Y-56609999D01*
X160459334Y-56554814D01*
X160608656Y-56462712D01*
X160732712Y-56338656D01*
X160824814Y-56189334D01*
X160879999Y-56022797D01*
X160890500Y-55920009D01*
X160890499Y-54569992D01*
X160879999Y-54467203D01*
X160824814Y-54300666D01*
X160732712Y-54151344D01*
X160608656Y-54027288D01*
X160459334Y-53935186D01*
X160292797Y-53880001D01*
X160292795Y-53880000D01*
X160190010Y-53869500D01*
X159464998Y-53869500D01*
X159464980Y-53869501D01*
X159362203Y-53880000D01*
X159362200Y-53880001D01*
X159195668Y-53935185D01*
X159195663Y-53935187D01*
X159046342Y-54027289D01*
X158922289Y-54151342D01*
X158830185Y-54300667D01*
X158827256Y-54309507D01*
X158787482Y-54366951D01*
X158722965Y-54393772D01*
X158709551Y-54394500D01*
X158031228Y-54394500D01*
X157866925Y-54427182D01*
X157866913Y-54427185D01*
X157821583Y-54445961D01*
X157821584Y-54445962D01*
X157712140Y-54491294D01*
X157712131Y-54491299D01*
X157611406Y-54558602D01*
X157544728Y-54579480D01*
X157542515Y-54579500D01*
X156632129Y-54579500D01*
X156632123Y-54579501D01*
X156572516Y-54585908D01*
X156437671Y-54636202D01*
X156437664Y-54636206D01*
X156322455Y-54722452D01*
X156322452Y-54722455D01*
X156236206Y-54837664D01*
X156236202Y-54837671D01*
X156185908Y-54972517D01*
X156179501Y-55032116D01*
X156179500Y-55032135D01*
X156179500Y-56727870D01*
X156179501Y-56727876D01*
X156185908Y-56787483D01*
X156236202Y-56922328D01*
X156236206Y-56922335D01*
X156322452Y-57037544D01*
X156322455Y-57037547D01*
X156437664Y-57123793D01*
X156437671Y-57123797D01*
X156482618Y-57140561D01*
X156572517Y-57174091D01*
X156607596Y-57177862D01*
X156672144Y-57204599D01*
X156711993Y-57261991D01*
X156714488Y-57331816D01*
X156678836Y-57391905D01*
X156665464Y-57402725D01*
X156640858Y-57419954D01*
X156479954Y-57580858D01*
X156349432Y-57767265D01*
X156349431Y-57767267D01*
X156253261Y-57973502D01*
X156253258Y-57973511D01*
X156194366Y-58193302D01*
X156194364Y-58193313D01*
X156174532Y-58419998D01*
X156174532Y-58420001D01*
X156194364Y-58646686D01*
X156194366Y-58646697D01*
X156253258Y-58866488D01*
X156253261Y-58866497D01*
X156349431Y-59072732D01*
X156349432Y-59072734D01*
X156479954Y-59259141D01*
X156640858Y-59420045D01*
X156640861Y-59420047D01*
X156827266Y-59550568D01*
X156885275Y-59577618D01*
X156937714Y-59623791D01*
X156956866Y-59690984D01*
X156936650Y-59757865D01*
X156885275Y-59802382D01*
X156827267Y-59829431D01*
X156827265Y-59829432D01*
X156640858Y-59959954D01*
X156479954Y-60120858D01*
X156349432Y-60307265D01*
X156349431Y-60307267D01*
X156253261Y-60513502D01*
X156253258Y-60513511D01*
X156194366Y-60733302D01*
X156194364Y-60733313D01*
X156174532Y-60959998D01*
X156174532Y-60960001D01*
X156194364Y-61186686D01*
X156194366Y-61186697D01*
X156253258Y-61406488D01*
X156253261Y-61406497D01*
X156349431Y-61612732D01*
X156349432Y-61612734D01*
X156479954Y-61799141D01*
X156640858Y-61960045D01*
X156640861Y-61960047D01*
X156827266Y-62090568D01*
X157033504Y-62186739D01*
X157253308Y-62245635D01*
X157415230Y-62259801D01*
X157479998Y-62265468D01*
X157480000Y-62265468D01*
X157480002Y-62265468D01*
X157536673Y-62260509D01*
X157706692Y-62245635D01*
X157926496Y-62186739D01*
X158132734Y-62090568D01*
X158319139Y-61960047D01*
X158480047Y-61799139D01*
X158610568Y-61612734D01*
X158706739Y-61406496D01*
X158765635Y-61186692D01*
X158785468Y-60960000D01*
X158784346Y-60947181D01*
X158776487Y-60857344D01*
X158765635Y-60733308D01*
X158720916Y-60566415D01*
X158706741Y-60513511D01*
X158706738Y-60513502D01*
X158610568Y-60307266D01*
X158480047Y-60120861D01*
X158480045Y-60120858D01*
X158319141Y-59959954D01*
X158132734Y-59829432D01*
X158132728Y-59829429D01*
X158074725Y-59802382D01*
X158022285Y-59756210D01*
X158003133Y-59689017D01*
X158023348Y-59622135D01*
X158074725Y-59577618D01*
X158132734Y-59550568D01*
X158319139Y-59420047D01*
X158480047Y-59259139D01*
X158610568Y-59072734D01*
X158706739Y-58866496D01*
X158765635Y-58646692D01*
X158765635Y-58646684D01*
X158765982Y-58644722D01*
X158766375Y-58643927D01*
X158767036Y-58641463D01*
X158767531Y-58641595D01*
X158797007Y-58582118D01*
X158856953Y-58546225D01*
X158926787Y-58548440D01*
X158975780Y-58578569D01*
X160250781Y-59853570D01*
X160284266Y-59914893D01*
X160287100Y-59941251D01*
X160287100Y-71250340D01*
X160267415Y-71317379D01*
X160214611Y-71363134D01*
X160145453Y-71373078D01*
X160118307Y-71365967D01*
X160017661Y-71326977D01*
X159966316Y-71317379D01*
X159817176Y-71289500D01*
X159613224Y-71289500D01*
X159412744Y-71326976D01*
X159412741Y-71326976D01*
X159412741Y-71326977D01*
X159222564Y-71400651D01*
X159222557Y-71400655D01*
X159049160Y-71508017D01*
X159049158Y-71508019D01*
X158940431Y-71607137D01*
X158877627Y-71637754D01*
X158856893Y-71639500D01*
X158848778Y-71639500D01*
X158781739Y-71619815D01*
X158735984Y-71567011D01*
X158726040Y-71497853D01*
X158729003Y-71483407D01*
X158751176Y-71400655D01*
X158765635Y-71346692D01*
X158785468Y-71120000D01*
X158784844Y-71112873D01*
X158772975Y-70977203D01*
X158765635Y-70893308D01*
X158706739Y-70673504D01*
X158610568Y-70467266D01*
X158480047Y-70280861D01*
X158480045Y-70280858D01*
X158319141Y-70119954D01*
X158132734Y-69989432D01*
X158132728Y-69989429D01*
X158074725Y-69962382D01*
X158022285Y-69916210D01*
X158003133Y-69849017D01*
X158023348Y-69782135D01*
X158074725Y-69737618D01*
X158132734Y-69710568D01*
X158319139Y-69580047D01*
X158480047Y-69419139D01*
X158610568Y-69232734D01*
X158706739Y-69026496D01*
X158765635Y-68806692D01*
X158785468Y-68580000D01*
X158783559Y-68558185D01*
X158779801Y-68515230D01*
X158765635Y-68353308D01*
X158706739Y-68133504D01*
X158610568Y-67927266D01*
X158490330Y-67755547D01*
X158480045Y-67740858D01*
X158319141Y-67579954D01*
X158132734Y-67449432D01*
X158132728Y-67449429D01*
X158074725Y-67422382D01*
X158022285Y-67376210D01*
X158003133Y-67309017D01*
X158023348Y-67242135D01*
X158074725Y-67197618D01*
X158085349Y-67192664D01*
X158132734Y-67170568D01*
X158319139Y-67040047D01*
X158480047Y-66879139D01*
X158610568Y-66692734D01*
X158706739Y-66486496D01*
X158765635Y-66266692D01*
X158785468Y-66040000D01*
X158765635Y-65813308D01*
X158708478Y-65599995D01*
X158706741Y-65593511D01*
X158706738Y-65593502D01*
X158696573Y-65571703D01*
X158610568Y-65387266D01*
X158480047Y-65200861D01*
X158480045Y-65200858D01*
X158319141Y-65039954D01*
X158132734Y-64909432D01*
X158132732Y-64909431D01*
X157926497Y-64813261D01*
X157926488Y-64813258D01*
X157706697Y-64754366D01*
X157706693Y-64754365D01*
X157706692Y-64754365D01*
X157706691Y-64754364D01*
X157706686Y-64754364D01*
X157480002Y-64734532D01*
X157479998Y-64734532D01*
X157253313Y-64754364D01*
X157253302Y-64754366D01*
X157033511Y-64813258D01*
X157033502Y-64813261D01*
X156827267Y-64909431D01*
X156827265Y-64909432D01*
X156640858Y-65039954D01*
X156479954Y-65200858D01*
X156349432Y-65387265D01*
X156349431Y-65387267D01*
X156253261Y-65593502D01*
X156253258Y-65593511D01*
X156222798Y-65707193D01*
X156186433Y-65766854D01*
X156123586Y-65797383D01*
X156103023Y-65799100D01*
X154739318Y-65799100D01*
X154672279Y-65779415D01*
X154626524Y-65726611D01*
X154616580Y-65657453D01*
X154626936Y-65622695D01*
X154628751Y-65618803D01*
X154689903Y-65487663D01*
X154751063Y-65259408D01*
X154771659Y-65024000D01*
X154751063Y-64788592D01*
X154689903Y-64560337D01*
X154590035Y-64346171D01*
X154585112Y-64339139D01*
X154454494Y-64152597D01*
X154287402Y-63985506D01*
X154287395Y-63985501D01*
X154285965Y-63984500D01*
X154231692Y-63946497D01*
X154093834Y-63849967D01*
X154093830Y-63849965D01*
X153971057Y-63792715D01*
X153879663Y-63750097D01*
X153879659Y-63750096D01*
X153879655Y-63750094D01*
X153651413Y-63688938D01*
X153651403Y-63688936D01*
X153416001Y-63668341D01*
X153415999Y-63668341D01*
X153180596Y-63688936D01*
X153180586Y-63688938D01*
X152952344Y-63750094D01*
X152952335Y-63750098D01*
X152738171Y-63849964D01*
X152738169Y-63849965D01*
X152571623Y-63966582D01*
X152505417Y-63988909D01*
X152437650Y-63971899D01*
X152389837Y-63920951D01*
X152376500Y-63865007D01*
X152376500Y-63381902D01*
X152339553Y-63148631D01*
X152266566Y-62924003D01*
X152210003Y-62812992D01*
X152159343Y-62713566D01*
X152020517Y-62522490D01*
X150837510Y-61339483D01*
X150646434Y-61200657D01*
X150619014Y-61186686D01*
X150435996Y-61093433D01*
X150211368Y-61020446D01*
X149978097Y-60983500D01*
X149978092Y-60983500D01*
X145960889Y-60983500D01*
X145893850Y-60963815D01*
X145873208Y-60947181D01*
X145300819Y-60374792D01*
X145267334Y-60313469D01*
X145264500Y-60287111D01*
X145264500Y-58325648D01*
X146809500Y-58325648D01*
X146809500Y-59530351D01*
X146841522Y-59732534D01*
X146904781Y-59927223D01*
X146997715Y-60109613D01*
X147118028Y-60275213D01*
X147262786Y-60419971D01*
X147417749Y-60532556D01*
X147428390Y-60540287D01*
X147544607Y-60599503D01*
X147610776Y-60633218D01*
X147610778Y-60633218D01*
X147610781Y-60633220D01*
X147715137Y-60667127D01*
X147805465Y-60696477D01*
X147906557Y-60712488D01*
X148007648Y-60728500D01*
X148007649Y-60728500D01*
X148212351Y-60728500D01*
X148212352Y-60728500D01*
X148414534Y-60696477D01*
X148609219Y-60633220D01*
X148791610Y-60540287D01*
X148884590Y-60472732D01*
X148957213Y-60419971D01*
X148957215Y-60419968D01*
X148957219Y-60419966D01*
X149101966Y-60275219D01*
X149101968Y-60275215D01*
X149101971Y-60275213D01*
X149203114Y-60135999D01*
X149222287Y-60109610D01*
X149315220Y-59927219D01*
X149378477Y-59732534D01*
X149410500Y-59530352D01*
X149410500Y-58325648D01*
X149378477Y-58123466D01*
X149315220Y-57928781D01*
X149315218Y-57928778D01*
X149315218Y-57928776D01*
X149232924Y-57767267D01*
X149222287Y-57746390D01*
X149214556Y-57735749D01*
X149101971Y-57580786D01*
X148957213Y-57436028D01*
X148791613Y-57315715D01*
X148791612Y-57315714D01*
X148791610Y-57315713D01*
X148734653Y-57286691D01*
X148609223Y-57222781D01*
X148414534Y-57159522D01*
X148239995Y-57131878D01*
X148212352Y-57127500D01*
X148007648Y-57127500D01*
X147983329Y-57131351D01*
X147805465Y-57159522D01*
X147610776Y-57222781D01*
X147428386Y-57315715D01*
X147262786Y-57436028D01*
X147118028Y-57580786D01*
X146997715Y-57746386D01*
X146904781Y-57928776D01*
X146841522Y-58123465D01*
X146809500Y-58325648D01*
X145264500Y-58325648D01*
X145264500Y-56777902D01*
X145227553Y-56544631D01*
X145213605Y-56501705D01*
X145154568Y-56320008D01*
X145121225Y-56254568D01*
X145047343Y-56109566D01*
X144908517Y-55918490D01*
X142709510Y-53719483D01*
X142518434Y-53580657D01*
X142307996Y-53473433D01*
X142083368Y-53400446D01*
X141850097Y-53363500D01*
X141850092Y-53363500D01*
X135246092Y-53363500D01*
X135009908Y-53363500D01*
X135009903Y-53363500D01*
X134776631Y-53400446D01*
X134552003Y-53473433D01*
X134341565Y-53580657D01*
X134150488Y-53719484D01*
X132732984Y-55136988D01*
X132594157Y-55328065D01*
X132540434Y-55433504D01*
X132486933Y-55538503D01*
X132413946Y-55763131D01*
X132377000Y-55996402D01*
X124655700Y-55996402D01*
X124655700Y-50799998D01*
X145234390Y-50799998D01*
X145234390Y-50800001D01*
X145254804Y-51085433D01*
X145315628Y-51365037D01*
X145415635Y-51633166D01*
X145552770Y-51884309D01*
X145552775Y-51884317D01*
X145724254Y-52113387D01*
X145724270Y-52113405D01*
X145926594Y-52315729D01*
X145926612Y-52315745D01*
X146155682Y-52487224D01*
X146155690Y-52487229D01*
X146406833Y-52624364D01*
X146406832Y-52624364D01*
X146406836Y-52624365D01*
X146406839Y-52624367D01*
X146674954Y-52724369D01*
X146674960Y-52724370D01*
X146674962Y-52724371D01*
X146954566Y-52785195D01*
X146954568Y-52785195D01*
X146954572Y-52785196D01*
X147208220Y-52803337D01*
X147239999Y-52805610D01*
X147240000Y-52805610D01*
X147240001Y-52805610D01*
X147268595Y-52803564D01*
X147525428Y-52785196D01*
X147805046Y-52724369D01*
X148073161Y-52624367D01*
X148324315Y-52487226D01*
X148553395Y-52315739D01*
X148755739Y-52113395D01*
X148927226Y-51884315D01*
X149064367Y-51633161D01*
X149164369Y-51365046D01*
X149225196Y-51085428D01*
X149245610Y-50800000D01*
X149225196Y-50514572D01*
X149164369Y-50234954D01*
X149117627Y-50109635D01*
X177319500Y-50109635D01*
X177319500Y-51705370D01*
X177319501Y-51705376D01*
X177325908Y-51764983D01*
X177376202Y-51899828D01*
X177376206Y-51899835D01*
X177462452Y-52015044D01*
X177462455Y-52015047D01*
X177577664Y-52101293D01*
X177577671Y-52101297D01*
X177712517Y-52151591D01*
X177712516Y-52151591D01*
X177719444Y-52152335D01*
X177772127Y-52158000D01*
X180367872Y-52157999D01*
X180427483Y-52151591D01*
X180562331Y-52101296D01*
X180677546Y-52015046D01*
X180763796Y-51899831D01*
X180814091Y-51764983D01*
X180820500Y-51705373D01*
X180820499Y-50109628D01*
X180814091Y-50050017D01*
X180783065Y-49966833D01*
X180763797Y-49915171D01*
X180763793Y-49915164D01*
X180677547Y-49799955D01*
X180677544Y-49799952D01*
X180562335Y-49713706D01*
X180562328Y-49713702D01*
X180427482Y-49663408D01*
X180427483Y-49663408D01*
X180367883Y-49657001D01*
X180367881Y-49657000D01*
X180367873Y-49657000D01*
X180367864Y-49657000D01*
X177772129Y-49657000D01*
X177772123Y-49657001D01*
X177712516Y-49663408D01*
X177577671Y-49713702D01*
X177577664Y-49713706D01*
X177462455Y-49799952D01*
X177462452Y-49799955D01*
X177376206Y-49915164D01*
X177376202Y-49915171D01*
X177325908Y-50050017D01*
X177319501Y-50109616D01*
X177319501Y-50109623D01*
X177319500Y-50109635D01*
X149117627Y-50109635D01*
X149064367Y-49966839D01*
X148973239Y-49799952D01*
X148927229Y-49715690D01*
X148927224Y-49715682D01*
X148755745Y-49486612D01*
X148755729Y-49486594D01*
X148553405Y-49284270D01*
X148553387Y-49284254D01*
X148324317Y-49112775D01*
X148324309Y-49112770D01*
X148073166Y-48975635D01*
X148073167Y-48975635D01*
X147965915Y-48935632D01*
X147805046Y-48875631D01*
X147805043Y-48875630D01*
X147805037Y-48875628D01*
X147525433Y-48814804D01*
X147240001Y-48794390D01*
X147239999Y-48794390D01*
X146954566Y-48814804D01*
X146674962Y-48875628D01*
X146406833Y-48975635D01*
X146155690Y-49112770D01*
X146155682Y-49112775D01*
X145926612Y-49284254D01*
X145926594Y-49284270D01*
X145724270Y-49486594D01*
X145724254Y-49486612D01*
X145552775Y-49715682D01*
X145552770Y-49715690D01*
X145415635Y-49966833D01*
X145315628Y-50234962D01*
X145254804Y-50514566D01*
X145234390Y-50799998D01*
X124655700Y-50799998D01*
X124655700Y-48063350D01*
X124655926Y-48055863D01*
X124673471Y-47765805D01*
X124675276Y-47750940D01*
X124726980Y-47468801D01*
X124730564Y-47454263D01*
X124807296Y-47208022D01*
X124815896Y-47180422D01*
X124821198Y-47166441D01*
X124938931Y-46904849D01*
X124945876Y-46891616D01*
X125094280Y-46646126D01*
X125102767Y-46633830D01*
X125279680Y-46408017D01*
X125289595Y-46396826D01*
X125492426Y-46193995D01*
X125503617Y-46184080D01*
X125729430Y-46007167D01*
X125741726Y-45998680D01*
X125987216Y-45850276D01*
X126000449Y-45843331D01*
X126262041Y-45725598D01*
X126276022Y-45720296D01*
X126549868Y-45634962D01*
X126564397Y-45631380D01*
X126846544Y-45579675D01*
X126861401Y-45577871D01*
X127151464Y-45560326D01*
X127158951Y-45560100D01*
X127221092Y-45560100D01*
X192615708Y-45560100D01*
X192677849Y-45560100D01*
X192685336Y-45560326D01*
G37*
%TD.AperFunction*%
%TD*%
M02*
